<svg width="41" height="40" viewBox="0 0 41 40" fill="none" xmlns="http://www.w3.org/2000/svg">
<path d="M0.368896 19.999C0.368896 8.95115 9.32051 0 20.3689 0C31.4173 0 40.3689 8.95115 40.3689 19.999C40.3689 31.0468 31.4173 39.9979 20.3689 39.9979C9.32051 39.9979 0.368896 31.0468 0.368896 19.999ZM18.9979 10.814L8.07051 21.7408C7.31244 22.4988 7.31244 23.7246 8.07051 24.4745L9.44148 25.8454C10.1995 26.6035 11.4253 26.6035 12.1753 25.8454L20.3689 17.6523L28.5624 25.8454C29.3205 26.6035 30.5463 26.6035 31.2963 25.8454L32.6673 24.4745C33.4253 23.7165 33.4253 22.4908 32.6673 21.7408L21.7399 10.814C20.9818 10.0559 19.756 10.0559 18.9979 10.814Z" fill="#0E76BC"/>
</svg>
