<svg width="359" height="54" viewBox="0 0 359 54" fill="none" xmlns="http://www.w3.org/2000/svg">
<path d="M6.28933 6.156C6.34933 6.152 6.40333 6.174 6.45133 6.222L6.81133 6.606C6.58333 6.87 6.30333 7.076 5.97133 7.224C5.64333 7.368 5.24733 7.44 4.78333 7.44C4.39133 7.44 4.03333 7.372 3.70933 7.236C3.38933 7.1 3.11333 6.91 2.88133 6.666C2.65333 6.422 2.47533 6.132 2.34733 5.796C2.22333 5.46 2.16133 5.092 2.16133 4.692C2.16133 4.288 2.22933 3.918 2.36533 3.582C2.50133 3.242 2.69133 2.952 2.93533 2.712C3.17933 2.468 3.46733 2.28 3.79933 2.148C4.13533 2.012 4.49933 1.944 4.89133 1.944C5.32733 1.944 5.69533 2.012 5.99533 2.148C6.29933 2.28 6.56533 2.458 6.79333 2.682L6.51733 3.072C6.49733 3.096 6.47133 3.12 6.43933 3.144C6.40733 3.168 6.36933 3.18 6.32533 3.18C6.26933 3.18 6.20933 3.158 6.14533 3.114C6.08533 3.07 6.00533 3.022 5.90533 2.97C5.80533 2.914 5.67733 2.864 5.52133 2.82C5.36933 2.772 5.17733 2.748 4.94533 2.748C4.66133 2.748 4.40733 2.794 4.18333 2.886C3.95933 2.974 3.76733 3.102 3.60733 3.27C3.44733 3.438 3.32533 3.642 3.24133 3.882C3.15733 4.122 3.11533 4.392 3.11533 4.692C3.11533 5 3.15733 5.276 3.24133 5.52C3.32933 5.76 3.44933 5.962 3.60133 6.126C3.75333 6.29 3.93333 6.416 4.14133 6.504C4.35333 6.588 4.58333 6.63 4.83133 6.63C5.03933 6.63 5.21333 6.614 5.35333 6.582C5.49333 6.55 5.61533 6.512 5.71933 6.468C5.82733 6.42 5.92333 6.368 6.00733 6.312C6.09533 6.256 6.18933 6.204 6.28933 6.156ZM0.373334 4.704C0.373334 4.3 0.425334 3.912 0.529334 3.54C0.633334 3.164 0.781334 2.814 0.973334 2.49C1.16533 2.162 1.39333 1.866 1.65733 1.602C1.92533 1.334 2.22133 1.104 2.54533 0.912C2.86933 0.72 3.21733 0.572 3.58933 0.468C3.96133 0.364 4.34933 0.312 4.75333 0.312C5.15733 0.312 5.54533 0.364 5.91733 0.468C6.29333 0.572 6.64333 0.72 6.96733 0.912C7.29133 1.104 7.58733 1.334 7.85533 1.602C8.12333 1.866 8.35133 2.162 8.53933 2.49C8.73133 2.814 8.87933 3.164 8.98333 3.54C9.08733 3.912 9.13933 4.3 9.13933 4.704C9.13933 5.104 9.08733 5.492 8.98333 5.868C8.87933 6.24 8.73133 6.588 8.53933 6.912C8.35133 7.236 8.12333 7.532 7.85533 7.8C7.58733 8.064 7.29133 8.292 6.96733 8.484C6.64333 8.676 6.29333 8.824 5.91733 8.928C5.54533 9.032 5.15733 9.084 4.75333 9.084C4.34933 9.084 3.96133 9.032 3.58933 8.928C3.21733 8.824 2.86933 8.676 2.54533 8.484C2.22133 8.292 1.92533 8.064 1.65733 7.8C1.39333 7.532 1.16533 7.236 0.973334 6.912C0.781334 6.588 0.633334 6.24 0.529334 5.868C0.425334 5.496 0.373334 5.108 0.373334 4.704ZM0.979334 4.704C0.979334 5.06 1.02333 5.402 1.11133 5.73C1.19933 6.058 1.32333 6.366 1.48333 6.654C1.64733 6.938 1.84333 7.196 2.07133 7.428C2.30333 7.66 2.55733 7.86 2.83333 8.028C3.11333 8.192 3.41533 8.32 3.73933 8.412C4.06333 8.5 4.40133 8.544 4.75333 8.544C5.10533 8.544 5.44333 8.5 5.76733 8.412C6.09533 8.32 6.39933 8.192 6.67933 8.028C6.96333 7.86 7.21933 7.66 7.44733 7.428C7.67933 7.196 7.87733 6.938 8.04133 6.654C8.20533 6.366 8.33133 6.058 8.41933 5.73C8.51133 5.402 8.55733 5.06 8.55733 4.704C8.55733 4.168 8.45733 3.666 8.25733 3.198C8.06133 2.726 7.79133 2.316 7.44733 1.968C7.10733 1.616 6.70533 1.34 6.24133 1.14C5.77733 0.936 5.28133 0.834 4.75333 0.834C4.40133 0.834 4.06333 0.88 3.73933 0.972C3.41533 1.064 3.11333 1.194 2.83333 1.362C2.55733 1.526 2.30333 1.726 2.07133 1.962C1.84333 2.198 1.64733 2.46 1.48333 2.748C1.32333 3.032 1.19933 3.34 1.11133 3.672C1.02333 4.004 0.979334 4.348 0.979334 4.704ZM15.662 7.986C15.778 7.986 15.87 8.02 15.938 8.088C16.006 8.156 16.04 8.244 16.04 8.352V9H10.304V8.634C10.304 8.558 10.32 8.48 10.352 8.4C10.384 8.32 10.434 8.246 10.502 8.178L13.256 5.412C13.484 5.18 13.692 4.958 13.88 4.746C14.068 4.53 14.228 4.314 14.36 4.098C14.492 3.882 14.594 3.664 14.666 3.444C14.738 3.22 14.774 2.982 14.774 2.73C14.774 2.478 14.734 2.258 14.654 2.07C14.574 1.878 14.464 1.72 14.324 1.596C14.188 1.472 14.026 1.38 13.838 1.32C13.65 1.256 13.448 1.224 13.232 1.224C13.012 1.224 12.81 1.256 12.626 1.32C12.442 1.384 12.278 1.474 12.134 1.59C11.994 1.702 11.876 1.836 11.78 1.992C11.684 2.148 11.616 2.32 11.576 2.508C11.528 2.648 11.462 2.742 11.378 2.79C11.298 2.834 11.184 2.846 11.036 2.826L10.478 2.73C10.534 2.338 10.642 1.992 10.802 1.692C10.966 1.388 11.17 1.134 11.414 0.93C11.662 0.726 11.944 0.572 12.26 0.468C12.576 0.359999 12.918 0.305999 13.286 0.305999C13.65 0.305999 13.99 0.359999 14.306 0.468C14.622 0.575999 14.896 0.733999 15.128 0.942C15.36 1.146 15.542 1.396 15.674 1.692C15.806 1.988 15.872 2.324 15.872 2.7C15.872 3.02 15.824 3.318 15.728 3.594C15.632 3.866 15.502 4.126 15.338 4.374C15.174 4.622 14.984 4.864 14.768 5.1C14.556 5.336 14.33 5.574 14.09 5.814L11.822 8.13C11.982 8.086 12.144 8.052 12.308 8.028C12.472 8 12.63 7.986 12.782 7.986H15.662ZM23.3009 4.704C23.3009 5.456 23.2189 6.108 23.0549 6.66C22.8949 7.208 22.6749 7.662 22.3949 8.022C22.1149 8.382 21.7829 8.65 21.3989 8.826C21.0189 9.002 20.6109 9.09 20.1749 9.09C19.7349 9.09 19.3249 9.002 18.9449 8.826C18.5689 8.65 18.2409 8.382 17.9609 8.022C17.6809 7.662 17.4609 7.208 17.3009 6.66C17.1409 6.108 17.0609 5.456 17.0609 4.704C17.0609 3.952 17.1409 3.3 17.3009 2.748C17.4609 2.196 17.6809 1.74 17.9609 1.38C18.2409 1.016 18.5689 0.746 18.9449 0.569999C19.3249 0.393999 19.7349 0.305999 20.1749 0.305999C20.6109 0.305999 21.0189 0.393999 21.3989 0.569999C21.7829 0.746 22.1149 1.016 22.3949 1.38C22.6749 1.74 22.8949 2.196 23.0549 2.748C23.2189 3.3 23.3009 3.952 23.3009 4.704ZM22.1909 4.704C22.1909 4.048 22.1349 3.498 22.0229 3.054C21.9149 2.606 21.7669 2.246 21.5789 1.974C21.3949 1.702 21.1809 1.508 20.9369 1.392C20.6929 1.272 20.4389 1.212 20.1749 1.212C19.9109 1.212 19.6569 1.272 19.4129 1.392C19.1689 1.508 18.9549 1.702 18.7709 1.974C18.5869 2.246 18.4389 2.606 18.3269 3.054C18.2189 3.498 18.1649 4.048 18.1649 4.704C18.1649 5.36 18.2189 5.91 18.3269 6.354C18.4389 6.798 18.5869 7.156 18.7709 7.428C18.9549 7.7 19.1689 7.896 19.4129 8.016C19.6569 8.132 19.9109 8.19 20.1749 8.19C20.4389 8.19 20.6929 8.132 20.9369 8.016C21.1809 7.896 21.3949 7.7 21.5789 7.428C21.7669 7.156 21.9149 6.798 22.0229 6.354C22.1349 5.91 22.1909 5.36 22.1909 4.704ZM29.5839 7.986C29.6999 7.986 29.7919 8.02 29.8599 8.088C29.9279 8.156 29.9619 8.244 29.9619 8.352V9H24.2259V8.634C24.2259 8.558 24.2419 8.48 24.2739 8.4C24.3059 8.32 24.3559 8.246 24.4239 8.178L27.1779 5.412C27.4059 5.18 27.6139 4.958 27.8019 4.746C27.9899 4.53 28.1499 4.314 28.2819 4.098C28.4139 3.882 28.5159 3.664 28.5879 3.444C28.6599 3.22 28.6959 2.982 28.6959 2.73C28.6959 2.478 28.6559 2.258 28.5759 2.07C28.4959 1.878 28.3859 1.72 28.2459 1.596C28.1099 1.472 27.9479 1.38 27.7599 1.32C27.5719 1.256 27.3699 1.224 27.1539 1.224C26.9339 1.224 26.7319 1.256 26.5479 1.32C26.3639 1.384 26.1999 1.474 26.0559 1.59C25.9159 1.702 25.7979 1.836 25.7019 1.992C25.6059 2.148 25.5379 2.32 25.4979 2.508C25.4499 2.648 25.3839 2.742 25.2999 2.79C25.2199 2.834 25.1059 2.846 24.9579 2.826L24.3999 2.73C24.4559 2.338 24.5639 1.992 24.7239 1.692C24.8879 1.388 25.0919 1.134 25.3359 0.93C25.5839 0.726 25.8659 0.572 26.1819 0.468C26.4979 0.359999 26.8399 0.305999 27.2079 0.305999C27.5719 0.305999 27.9119 0.359999 28.2279 0.468C28.5439 0.575999 28.8179 0.733999 29.0499 0.942C29.2819 1.146 29.4639 1.396 29.5959 1.692C29.7279 1.988 29.7939 2.324 29.7939 2.7C29.7939 3.02 29.7459 3.318 29.6499 3.594C29.5539 3.866 29.4239 4.126 29.2599 4.374C29.0959 4.622 28.9059 4.864 28.6899 5.1C28.4779 5.336 28.2519 5.574 28.0119 5.814L25.7439 8.13C25.9039 8.086 26.0659 8.052 26.2299 8.028C26.3939 8 26.5519 7.986 26.7039 7.986H29.5839ZM36.5448 7.986C36.6608 7.986 36.7528 8.02 36.8208 8.088C36.8888 8.156 36.9228 8.244 36.9228 8.352V9H31.1868V8.634C31.1868 8.558 31.2028 8.48 31.2348 8.4C31.2668 8.32 31.3168 8.246 31.3848 8.178L34.1388 5.412C34.3668 5.18 34.5748 4.958 34.7628 4.746C34.9508 4.53 35.1108 4.314 35.2428 4.098C35.3748 3.882 35.4768 3.664 35.5488 3.444C35.6208 3.22 35.6568 2.982 35.6568 2.73C35.6568 2.478 35.6168 2.258 35.5368 2.07C35.4568 1.878 35.3468 1.72 35.2068 1.596C35.0708 1.472 34.9088 1.38 34.7208 1.32C34.5328 1.256 34.3308 1.224 34.1148 1.224C33.8948 1.224 33.6928 1.256 33.5088 1.32C33.3248 1.384 33.1608 1.474 33.0168 1.59C32.8768 1.702 32.7588 1.836 32.6628 1.992C32.5668 2.148 32.4988 2.32 32.4588 2.508C32.4108 2.648 32.3448 2.742 32.2608 2.79C32.1808 2.834 32.0668 2.846 31.9188 2.826L31.3608 2.73C31.4168 2.338 31.5248 1.992 31.6848 1.692C31.8488 1.388 32.0528 1.134 32.2968 0.93C32.5448 0.726 32.8268 0.572 33.1428 0.468C33.4588 0.359999 33.8008 0.305999 34.1688 0.305999C34.5328 0.305999 34.8728 0.359999 35.1888 0.468C35.5048 0.575999 35.7788 0.733999 36.0108 0.942C36.2428 1.146 36.4248 1.396 36.5568 1.692C36.6888 1.988 36.7548 2.324 36.7548 2.7C36.7548 3.02 36.7068 3.318 36.6108 3.594C36.5148 3.866 36.3848 4.126 36.2208 4.374C36.0568 4.622 35.8668 4.864 35.6508 5.1C35.4388 5.336 35.2128 5.574 34.9728 5.814L32.7048 8.13C32.8648 8.086 33.0268 8.052 33.1908 8.028C33.3548 8 33.5128 7.986 33.6648 7.986H36.5448ZM44.1341 4.566C44.4701 4.566 44.7661 4.526 45.0221 4.446C45.2821 4.362 45.4981 4.246 45.6701 4.098C45.8461 3.946 45.9781 3.766 46.0661 3.558C46.1541 3.35 46.1981 3.12 46.1981 2.868C46.1981 2.356 46.0301 1.97 45.6941 1.71C45.3581 1.45 44.8541 1.32 44.1821 1.32H42.9101V4.566H44.1341ZM48.1061 9H47.0741C46.8621 9 46.7061 8.918 46.6061 8.754L44.3741 5.682C44.3061 5.586 44.2321 5.518 44.1521 5.478C44.0761 5.434 43.9561 5.412 43.7921 5.412H42.9101V9H41.7521V0.401999H44.1821C44.7261 0.401999 45.1961 0.457999 45.5921 0.569999C45.9881 0.678 46.3141 0.836 46.5701 1.044C46.8301 1.252 47.0221 1.504 47.1461 1.8C47.2701 2.092 47.3321 2.42 47.3321 2.784C47.3321 3.088 47.2841 3.372 47.1881 3.636C47.0921 3.9 46.9521 4.138 46.7681 4.35C46.5881 4.558 46.3661 4.736 46.1021 4.884C45.8421 5.032 45.5461 5.144 45.2141 5.22C45.3621 5.304 45.4901 5.426 45.5981 5.586L48.1061 9ZM52.7048 5.298C52.7048 5.05 52.6688 4.824 52.5968 4.62C52.5288 4.412 52.4268 4.234 52.2908 4.086C52.1588 3.934 51.9968 3.818 51.8048 3.738C51.6128 3.654 51.3948 3.612 51.1508 3.612C50.6388 3.612 50.2328 3.762 49.9328 4.062C49.6368 4.358 49.4528 4.77 49.3808 5.298H52.7048ZM53.5688 8.148C53.4368 8.308 53.2788 8.448 53.0948 8.568C52.9108 8.684 52.7128 8.78 52.5008 8.856C52.2928 8.932 52.0768 8.988 51.8528 9.024C51.6288 9.064 51.4068 9.084 51.1868 9.084C50.7668 9.084 50.3788 9.014 50.0228 8.874C49.6708 8.73 49.3648 8.522 49.1048 8.25C48.8488 7.974 48.6488 7.634 48.5048 7.23C48.3608 6.826 48.2888 6.362 48.2888 5.838C48.2888 5.414 48.3528 5.018 48.4808 4.65C48.6128 4.282 48.8008 3.964 49.0448 3.696C49.2888 3.424 49.5868 3.212 49.9388 3.06C50.2908 2.904 50.6868 2.826 51.1268 2.826C51.4908 2.826 51.8268 2.888 52.1348 3.012C52.4468 3.132 52.7148 3.308 52.9388 3.54C53.1668 3.768 53.3448 4.052 53.4728 4.392C53.6008 4.728 53.6648 5.112 53.6648 5.544C53.6648 5.712 53.6468 5.824 53.6108 5.88C53.5748 5.936 53.5068 5.964 53.4068 5.964H49.3448C49.3568 6.348 49.4088 6.682 49.5008 6.966C49.5968 7.25 49.7288 7.488 49.8968 7.68C50.0648 7.868 50.2648 8.01 50.4968 8.106C50.7288 8.198 50.9888 8.244 51.2768 8.244C51.5448 8.244 51.7748 8.214 51.9668 8.154C52.1628 8.09 52.3308 8.022 52.4708 7.95C52.6108 7.878 52.7268 7.812 52.8188 7.752C52.9148 7.688 52.9968 7.656 53.0648 7.656C53.1528 7.656 53.2208 7.69 53.2688 7.758L53.5688 8.148ZM54.9766 9V2.922H55.6186C55.7706 2.922 55.8646 2.996 55.9006 3.144L55.9786 3.768C56.2026 3.492 56.4546 3.266 56.7346 3.09C57.0146 2.914 57.3386 2.826 57.7066 2.826C58.1146 2.826 58.4446 2.94 58.6966 3.168C58.9526 3.396 59.1366 3.704 59.2486 4.092C59.3366 3.872 59.4486 3.682 59.5846 3.522C59.7246 3.362 59.8806 3.23 60.0526 3.126C60.2246 3.022 60.4066 2.946 60.5986 2.898C60.7946 2.85 60.9926 2.826 61.1926 2.826C61.5126 2.826 61.7966 2.878 62.0446 2.982C62.2966 3.082 62.5086 3.23 62.6806 3.426C62.8566 3.622 62.9906 3.864 63.0826 4.152C63.1746 4.436 63.2206 4.762 63.2206 5.13V9H62.1466V5.13C62.1466 4.654 62.0426 4.294 61.8346 4.05C61.6266 3.802 61.3266 3.678 60.9346 3.678C60.7586 3.678 60.5906 3.71 60.4306 3.774C60.2746 3.834 60.1366 3.924 60.0166 4.044C59.8966 4.164 59.8006 4.316 59.7286 4.5C59.6606 4.68 59.6266 4.89 59.6266 5.13V9H58.5526V5.13C58.5526 4.642 58.4546 4.278 58.2586 4.038C58.0626 3.798 57.7766 3.678 57.4006 3.678C57.1366 3.678 56.8926 3.75 56.6686 3.894C56.4446 4.034 56.2386 4.226 56.0506 4.47V9H54.9766ZM67.4058 2.826C67.8498 2.826 68.2498 2.9 68.6058 3.048C68.9618 3.196 69.2658 3.406 69.5178 3.678C69.7698 3.95 69.9618 4.28 70.0938 4.668C70.2298 5.052 70.2978 5.482 70.2978 5.958C70.2978 6.438 70.2298 6.87 70.0938 7.254C69.9618 7.638 69.7698 7.966 69.5178 8.238C69.2658 8.51 68.9618 8.72 68.6058 8.868C68.2498 9.012 67.8498 9.084 67.4058 9.084C66.9578 9.084 66.5538 9.012 66.1938 8.868C65.8378 8.72 65.5338 8.51 65.2818 8.238C65.0298 7.966 64.8358 7.638 64.6998 7.254C64.5678 6.87 64.5018 6.438 64.5018 5.958C64.5018 5.482 64.5678 5.052 64.6998 4.668C64.8358 4.28 65.0298 3.95 65.2818 3.678C65.5338 3.406 65.8378 3.196 66.1938 3.048C66.5538 2.9 66.9578 2.826 67.4058 2.826ZM67.4058 8.25C68.0058 8.25 68.4538 8.05 68.7498 7.65C69.0458 7.246 69.1938 6.684 69.1938 5.964C69.1938 5.24 69.0458 4.676 68.7498 4.272C68.4538 3.868 68.0058 3.666 67.4058 3.666C67.1018 3.666 66.8358 3.718 66.6078 3.822C66.3838 3.926 66.1958 4.076 66.0438 4.272C65.8958 4.468 65.7838 4.71 65.7078 4.998C65.6358 5.282 65.5998 5.604 65.5998 5.964C65.5998 6.684 65.7478 7.246 66.0438 7.65C66.3438 8.05 66.7978 8.25 67.4058 8.25ZM75.6124 4.368C75.4124 4.1 75.1964 3.914 74.9644 3.81C74.7324 3.702 74.4724 3.648 74.1844 3.648C73.6204 3.648 73.1864 3.85 72.8824 4.254C72.5784 4.658 72.4264 5.234 72.4264 5.982C72.4264 6.378 72.4604 6.718 72.5284 7.002C72.5964 7.282 72.6964 7.514 72.8284 7.698C72.9604 7.878 73.1224 8.01 73.3144 8.094C73.5064 8.178 73.7244 8.22 73.9684 8.22C74.3204 8.22 74.6264 8.14 74.8864 7.98C75.1504 7.82 75.3924 7.594 75.6124 7.302V4.368ZM76.6804 0.162V9H76.0444C75.8924 9 75.7964 8.926 75.7564 8.778L75.6604 8.04C75.4004 8.352 75.1044 8.604 74.7724 8.796C74.4404 8.988 74.0564 9.084 73.6204 9.084C73.2724 9.084 72.9564 9.018 72.6724 8.886C72.3884 8.75 72.1464 8.552 71.9464 8.292C71.7464 8.032 71.5924 7.708 71.4844 7.32C71.3764 6.932 71.3224 6.486 71.3224 5.982C71.3224 5.534 71.3824 5.118 71.5024 4.734C71.6224 4.346 71.7944 4.01 72.0184 3.726C72.2424 3.442 72.5164 3.22 72.8404 3.06C73.1684 2.896 73.5364 2.814 73.9444 2.814C74.3164 2.814 74.6344 2.878 74.8984 3.006C75.1664 3.13 75.4044 3.304 75.6124 3.528V0.162H76.6804ZM82.4352 5.298C82.4352 5.05 82.3992 4.824 82.3272 4.62C82.2592 4.412 82.1572 4.234 82.0212 4.086C81.8892 3.934 81.7272 3.818 81.5352 3.738C81.3432 3.654 81.1252 3.612 80.8812 3.612C80.3692 3.612 79.9632 3.762 79.6632 4.062C79.3672 4.358 79.1832 4.77 79.1112 5.298H82.4352ZM83.2992 8.148C83.1672 8.308 83.0092 8.448 82.8252 8.568C82.6412 8.684 82.4432 8.78 82.2312 8.856C82.0232 8.932 81.8072 8.988 81.5832 9.024C81.3592 9.064 81.1372 9.084 80.9172 9.084C80.4972 9.084 80.1092 9.014 79.7532 8.874C79.4012 8.73 79.0952 8.522 78.8352 8.25C78.5792 7.974 78.3792 7.634 78.2352 7.23C78.0912 6.826 78.0192 6.362 78.0192 5.838C78.0192 5.414 78.0832 5.018 78.2112 4.65C78.3432 4.282 78.5312 3.964 78.7752 3.696C79.0192 3.424 79.3172 3.212 79.6692 3.06C80.0212 2.904 80.4172 2.826 80.8572 2.826C81.2212 2.826 81.5572 2.888 81.8652 3.012C82.1772 3.132 82.4452 3.308 82.6692 3.54C82.8972 3.768 83.0752 4.052 83.2032 4.392C83.3312 4.728 83.3952 5.112 83.3952 5.544C83.3952 5.712 83.3772 5.824 83.3412 5.88C83.3052 5.936 83.2372 5.964 83.1372 5.964H79.0752C79.0872 6.348 79.1392 6.682 79.2312 6.966C79.3272 7.25 79.4592 7.488 79.6272 7.68C79.7952 7.868 79.9952 8.01 80.2272 8.106C80.4592 8.198 80.7192 8.244 81.0072 8.244C81.2752 8.244 81.5052 8.214 81.6972 8.154C81.8932 8.09 82.0612 8.022 82.2012 7.95C82.3412 7.878 82.4572 7.812 82.5492 7.752C82.6452 7.688 82.7272 7.656 82.7952 7.656C82.8832 7.656 82.9512 7.69 82.9992 7.758L83.2992 8.148ZM85.8111 0.162V9H84.7431V0.162H85.8111ZM90.9879 5.574V9H89.8239V5.574L86.6739 0.401999H87.6939C87.7979 0.401999 87.8799 0.427999 87.9399 0.48C87.9999 0.527999 88.0519 0.592 88.0959 0.672L90.0639 4.014C90.1359 4.154 90.2019 4.286 90.2619 4.41C90.3219 4.53 90.3739 4.652 90.4179 4.776C90.4619 4.652 90.5119 4.53 90.5679 4.41C90.6239 4.286 90.6859 4.154 90.7539 4.014L92.7159 0.672C92.7519 0.604 92.8019 0.542 92.8659 0.486C92.9299 0.43 93.0119 0.401999 93.1119 0.401999H94.1379L90.9879 5.574ZM96.2456 2.826C96.6896 2.826 97.0896 2.9 97.4456 3.048C97.8016 3.196 98.1056 3.406 98.3576 3.678C98.6096 3.95 98.8016 4.28 98.9336 4.668C99.0696 5.052 99.1376 5.482 99.1376 5.958C99.1376 6.438 99.0696 6.87 98.9336 7.254C98.8016 7.638 98.6096 7.966 98.3576 8.238C98.1056 8.51 97.8016 8.72 97.4456 8.868C97.0896 9.012 96.6896 9.084 96.2456 9.084C95.7976 9.084 95.3936 9.012 95.0336 8.868C94.6776 8.72 94.3736 8.51 94.1216 8.238C93.8696 7.966 93.6756 7.638 93.5396 7.254C93.4076 6.87 93.3416 6.438 93.3416 5.958C93.3416 5.482 93.4076 5.052 93.5396 4.668C93.6756 4.28 93.8696 3.95 94.1216 3.678C94.3736 3.406 94.6776 3.196 95.0336 3.048C95.3936 2.9 95.7976 2.826 96.2456 2.826ZM96.2456 8.25C96.8456 8.25 97.2936 8.05 97.5896 7.65C97.8856 7.246 98.0336 6.684 98.0336 5.964C98.0336 5.24 97.8856 4.676 97.5896 4.272C97.2936 3.868 96.8456 3.666 96.2456 3.666C95.9416 3.666 95.6756 3.718 95.4476 3.822C95.2236 3.926 95.0356 4.076 94.8836 4.272C94.7356 4.468 94.6236 4.71 94.5476 4.998C94.4756 5.282 94.4396 5.604 94.4396 5.964C94.4396 6.684 94.5876 7.246 94.8836 7.65C95.1836 8.05 95.6376 8.25 96.2456 8.25ZM105.49 2.922V9H104.854C104.702 9 104.606 8.926 104.566 8.778L104.482 8.124C104.218 8.416 103.922 8.652 103.594 8.832C103.266 9.008 102.89 9.096 102.466 9.096C102.134 9.096 101.84 9.042 101.584 8.934C101.332 8.822 101.12 8.666 100.948 8.466C100.776 8.266 100.646 8.024 100.558 7.74C100.474 7.456 100.432 7.142 100.432 6.798V2.922H101.5V6.798C101.5 7.258 101.604 7.614 101.812 7.866C102.024 8.118 102.346 8.244 102.778 8.244C103.094 8.244 103.388 8.17 103.66 8.022C103.936 7.87 104.19 7.662 104.422 7.398V2.922H105.49ZM108.198 4.14C108.39 3.724 108.626 3.4 108.906 3.168C109.186 2.932 109.528 2.814 109.932 2.814C110.06 2.814 110.182 2.828 110.298 2.856C110.418 2.884 110.524 2.928 110.616 2.988L110.538 3.786C110.514 3.886 110.454 3.936 110.358 3.936C110.302 3.936 110.22 3.924 110.112 3.9C110.004 3.876 109.882 3.864 109.746 3.864C109.554 3.864 109.382 3.892 109.23 3.948C109.082 4.004 108.948 4.088 108.828 4.2C108.712 4.308 108.606 4.444 108.51 4.608C108.418 4.768 108.334 4.952 108.258 5.16V9H107.184V2.922H107.796C107.912 2.922 107.992 2.944 108.036 2.988C108.08 3.032 108.11 3.108 108.126 3.216L108.198 4.14ZM118.667 0.401999V9H117.503V5.088H112.865V9H111.701V0.401999H112.865V4.236H117.503V0.401999H118.667ZM122.988 2.826C123.432 2.826 123.832 2.9 124.188 3.048C124.544 3.196 124.848 3.406 125.1 3.678C125.352 3.95 125.544 4.28 125.676 4.668C125.812 5.052 125.88 5.482 125.88 5.958C125.88 6.438 125.812 6.87 125.676 7.254C125.544 7.638 125.352 7.966 125.1 8.238C124.848 8.51 124.544 8.72 124.188 8.868C123.832 9.012 123.432 9.084 122.988 9.084C122.54 9.084 122.136 9.012 121.776 8.868C121.42 8.72 121.116 8.51 120.864 8.238C120.612 7.966 120.418 7.638 120.282 7.254C120.15 6.87 120.084 6.438 120.084 5.958C120.084 5.482 120.15 5.052 120.282 4.668C120.418 4.28 120.612 3.95 120.864 3.678C121.116 3.406 121.42 3.196 121.776 3.048C122.136 2.9 122.54 2.826 122.988 2.826ZM122.988 8.25C123.588 8.25 124.036 8.05 124.332 7.65C124.628 7.246 124.776 6.684 124.776 5.964C124.776 5.24 124.628 4.676 124.332 4.272C124.036 3.868 123.588 3.666 122.988 3.666C122.684 3.666 122.418 3.718 122.19 3.822C121.966 3.926 121.778 4.076 121.626 4.272C121.478 4.468 121.366 4.71 121.29 4.998C121.218 5.282 121.182 5.604 121.182 5.964C121.182 6.684 121.33 7.246 121.626 7.65C121.926 8.05 122.38 8.25 122.988 8.25ZM127.234 9V2.922H127.876C128.028 2.922 128.122 2.996 128.158 3.144L128.236 3.768C128.46 3.492 128.712 3.266 128.992 3.09C129.272 2.914 129.596 2.826 129.964 2.826C130.372 2.826 130.702 2.94 130.954 3.168C131.21 3.396 131.394 3.704 131.506 4.092C131.594 3.872 131.706 3.682 131.842 3.522C131.982 3.362 132.138 3.23 132.31 3.126C132.482 3.022 132.664 2.946 132.856 2.898C133.052 2.85 133.25 2.826 133.45 2.826C133.77 2.826 134.054 2.878 134.302 2.982C134.554 3.082 134.766 3.23 134.938 3.426C135.114 3.622 135.248 3.864 135.34 4.152C135.432 4.436 135.478 4.762 135.478 5.13V9H134.404V5.13C134.404 4.654 134.3 4.294 134.092 4.05C133.884 3.802 133.584 3.678 133.192 3.678C133.016 3.678 132.848 3.71 132.688 3.774C132.532 3.834 132.394 3.924 132.274 4.044C132.154 4.164 132.058 4.316 131.986 4.5C131.918 4.68 131.884 4.89 131.884 5.13V9H130.81V5.13C130.81 4.642 130.712 4.278 130.516 4.038C130.32 3.798 130.034 3.678 129.658 3.678C129.394 3.678 129.15 3.75 128.926 3.894C128.702 4.034 128.496 4.226 128.308 4.47V9H127.234ZM141.17 5.298C141.17 5.05 141.134 4.824 141.062 4.62C140.994 4.412 140.892 4.234 140.756 4.086C140.624 3.934 140.462 3.818 140.27 3.738C140.078 3.654 139.86 3.612 139.616 3.612C139.104 3.612 138.698 3.762 138.398 4.062C138.102 4.358 137.918 4.77 137.846 5.298H141.17ZM142.034 8.148C141.902 8.308 141.744 8.448 141.56 8.568C141.376 8.684 141.178 8.78 140.966 8.856C140.758 8.932 140.542 8.988 140.318 9.024C140.094 9.064 139.872 9.084 139.652 9.084C139.232 9.084 138.844 9.014 138.488 8.874C138.136 8.73 137.83 8.522 137.57 8.25C137.314 7.974 137.114 7.634 136.97 7.23C136.826 6.826 136.754 6.362 136.754 5.838C136.754 5.414 136.818 5.018 136.946 4.65C137.078 4.282 137.266 3.964 137.51 3.696C137.754 3.424 138.052 3.212 138.404 3.06C138.756 2.904 139.152 2.826 139.592 2.826C139.956 2.826 140.292 2.888 140.6 3.012C140.912 3.132 141.18 3.308 141.404 3.54C141.632 3.768 141.81 4.052 141.938 4.392C142.066 4.728 142.13 5.112 142.13 5.544C142.13 5.712 142.112 5.824 142.076 5.88C142.04 5.936 141.972 5.964 141.872 5.964H137.81C137.822 6.348 137.874 6.682 137.966 6.966C138.062 7.25 138.194 7.488 138.362 7.68C138.53 7.868 138.73 8.01 138.962 8.106C139.194 8.198 139.454 8.244 139.742 8.244C140.01 8.244 140.24 8.214 140.432 8.154C140.628 8.09 140.796 8.022 140.936 7.95C141.076 7.878 141.192 7.812 141.284 7.752C141.38 7.688 141.462 7.656 141.53 7.656C141.618 7.656 141.686 7.69 141.734 7.758L142.034 8.148ZM3.40333 32.86C3.73533 32.86 4.02733 32.816 4.27933 32.728C4.53533 32.64 4.74933 32.518 4.92133 32.362C5.09733 32.202 5.22933 32.012 5.31733 31.792C5.40533 31.572 5.44933 31.33 5.44933 31.066C5.44933 30.518 5.27933 30.09 4.93933 29.782C4.60333 29.474 4.09133 29.32 3.40333 29.32H2.02333V32.86H3.40333ZM3.40333 28.402C3.94733 28.402 4.41933 28.466 4.81933 28.594C5.22333 28.718 5.55733 28.896 5.82133 29.128C6.08533 29.36 6.28133 29.64 6.40933 29.968C6.54133 30.296 6.60733 30.662 6.60733 31.066C6.60733 31.466 6.53733 31.832 6.39733 32.164C6.25733 32.496 6.05133 32.782 5.77933 33.022C5.51133 33.262 5.17733 33.45 4.77733 33.586C4.38133 33.718 3.92333 33.784 3.40333 33.784H2.02333V37H0.865334V28.402H3.40333ZM8.71718 32.14C8.90918 31.724 9.14518 31.4 9.42518 31.168C9.70518 30.932 10.0472 30.814 10.4512 30.814C10.5792 30.814 10.7012 30.828 10.8172 30.856C10.9372 30.884 11.0432 30.928 11.1352 30.988L11.0572 31.786C11.0332 31.886 10.9732 31.936 10.8772 31.936C10.8212 31.936 10.7392 31.924 10.6312 31.9C10.5232 31.876 10.4012 31.864 10.2652 31.864C10.0732 31.864 9.90118 31.892 9.74918 31.948C9.60118 32.004 9.46718 32.088 9.34718 32.2C9.23118 32.308 9.12518 32.444 9.02918 32.608C8.93718 32.768 8.85318 32.952 8.77718 33.16V37H7.70318V30.922H8.31518C8.43118 30.922 8.51118 30.944 8.55518 30.988C8.59918 31.032 8.62918 31.108 8.64518 31.216L8.71718 32.14ZM13.2023 30.922V37H12.1343V30.922H13.2023ZM13.4303 29.014C13.4303 29.118 13.4083 29.216 13.3643 29.308C13.3243 29.396 13.2683 29.476 13.1963 29.548C13.1283 29.616 13.0463 29.67 12.9503 29.71C12.8583 29.75 12.7603 29.77 12.6563 29.77C12.5523 29.77 12.4543 29.75 12.3623 29.71C12.2743 29.67 12.1963 29.616 12.1283 29.548C12.0603 29.476 12.0063 29.396 11.9663 29.308C11.9263 29.216 11.9063 29.118 11.9063 29.014C11.9063 28.91 11.9263 28.812 11.9663 28.72C12.0063 28.624 12.0603 28.542 12.1283 28.474C12.1963 28.402 12.2743 28.346 12.3623 28.306C12.4543 28.266 12.5523 28.246 12.6563 28.246C12.7603 28.246 12.8583 28.266 12.9503 28.306C13.0463 28.346 13.1283 28.402 13.1963 28.474C13.2683 28.542 13.3243 28.624 13.3643 28.72C13.4083 28.812 13.4303 28.91 13.4303 29.014ZM20.1651 30.922L17.6871 37H16.7271L14.2491 30.922H15.1191C15.2071 30.922 15.2791 30.944 15.3351 30.988C15.3911 31.032 15.4291 31.084 15.4491 31.144L16.9911 35.056C17.0391 35.204 17.0811 35.348 17.1171 35.488C17.1531 35.628 17.1871 35.768 17.2191 35.908C17.2511 35.768 17.2851 35.628 17.3211 35.488C17.3571 35.348 17.4011 35.204 17.4531 35.056L19.0131 31.144C19.0371 31.08 19.0771 31.028 19.1331 30.988C19.1891 30.944 19.2551 30.922 19.3311 30.922H20.1651ZM24.3097 34.264C23.8177 34.28 23.3977 34.32 23.0497 34.384C22.7057 34.444 22.4237 34.524 22.2037 34.624C21.9877 34.724 21.8297 34.842 21.7297 34.978C21.6337 35.114 21.5857 35.266 21.5857 35.434C21.5857 35.594 21.6117 35.732 21.6637 35.848C21.7157 35.964 21.7857 36.06 21.8737 36.136C21.9657 36.208 22.0717 36.262 22.1917 36.298C22.3157 36.33 22.4477 36.346 22.5877 36.346C22.7757 36.346 22.9477 36.328 23.1037 36.292C23.2597 36.252 23.4057 36.196 23.5417 36.124C23.6817 36.052 23.8137 35.966 23.9377 35.866C24.0657 35.766 24.1897 35.652 24.3097 35.524V34.264ZM20.8597 31.78C21.1957 31.456 21.5577 31.214 21.9457 31.054C22.3337 30.894 22.7637 30.814 23.2357 30.814C23.5757 30.814 23.8777 30.87 24.1417 30.982C24.4057 31.094 24.6277 31.25 24.8077 31.45C24.9877 31.65 25.1237 31.892 25.2157 32.176C25.3077 32.46 25.3537 32.772 25.3537 33.112V37H24.8797C24.7757 37 24.6957 36.984 24.6397 36.952C24.5837 36.916 24.5397 36.848 24.5077 36.748L24.3877 36.172C24.2277 36.32 24.0717 36.452 23.9197 36.568C23.7677 36.68 23.6077 36.776 23.4397 36.856C23.2717 36.932 23.0917 36.99 22.8997 37.03C22.7117 37.074 22.5017 37.096 22.2697 37.096C22.0337 37.096 21.8117 37.064 21.6037 37C21.3957 36.932 21.2137 36.832 21.0577 36.7C20.9057 36.568 20.7837 36.402 20.6917 36.202C20.6037 35.998 20.5597 35.758 20.5597 35.482C20.5597 35.242 20.6257 35.012 20.7577 34.792C20.8897 34.568 21.1037 34.37 21.3997 34.198C21.6957 34.026 22.0817 33.886 22.5577 33.778C23.0337 33.666 23.6177 33.602 24.3097 33.586V33.112C24.3097 32.64 24.2077 32.284 24.0037 32.044C23.7997 31.8 23.5017 31.678 23.1097 31.678C22.8457 31.678 22.6237 31.712 22.4437 31.78C22.2677 31.844 22.1137 31.918 21.9817 32.002C21.8537 32.082 21.7417 32.156 21.6457 32.224C21.5537 32.288 21.4617 32.32 21.3697 32.32C21.2977 32.32 21.2357 32.302 21.1837 32.266C21.1317 32.226 21.0877 32.178 21.0517 32.122L20.8597 31.78ZM31.2105 32.002C31.1785 32.046 31.1465 32.08 31.1145 32.104C31.0825 32.128 31.0385 32.14 30.9825 32.14C30.9225 32.14 30.8565 32.116 30.7845 32.068C30.7125 32.016 30.6225 31.96 30.5145 31.9C30.4105 31.84 30.2805 31.786 30.1245 31.738C29.9725 31.686 29.7845 31.66 29.5605 31.66C29.2605 31.66 28.9965 31.714 28.7685 31.822C28.5405 31.926 28.3485 32.078 28.1925 32.278C28.0405 32.478 27.9245 32.72 27.8445 33.004C27.7685 33.288 27.7305 33.606 27.7305 33.958C27.7305 34.326 27.7725 34.654 27.8565 34.942C27.9405 35.226 28.0585 35.466 28.2105 35.662C28.3665 35.854 28.5525 36.002 28.7685 36.106C28.9885 36.206 29.2345 36.256 29.5065 36.256C29.7665 36.256 29.9805 36.226 30.1485 36.166C30.3165 36.102 30.4545 36.032 30.5625 35.956C30.6745 35.88 30.7665 35.812 30.8385 35.752C30.9145 35.688 30.9885 35.656 31.0605 35.656C31.1485 35.656 31.2165 35.69 31.2645 35.758L31.5645 36.148C31.4325 36.312 31.2825 36.452 31.1145 36.568C30.9465 36.684 30.7645 36.782 30.5685 36.862C30.3765 36.938 30.1745 36.994 29.9625 37.03C29.7505 37.066 29.5345 37.084 29.3145 37.084C28.9345 37.084 28.5805 37.014 28.2525 36.874C27.9285 36.734 27.6465 36.532 27.4065 36.268C27.1665 36 26.9785 35.672 26.8425 35.284C26.7065 34.896 26.6385 34.454 26.6385 33.958C26.6385 33.506 26.7005 33.088 26.8245 32.704C26.9525 32.32 27.1365 31.99 27.3765 31.714C27.6205 31.434 27.9185 31.216 28.2705 31.06C28.6265 30.904 29.0345 30.826 29.4945 30.826C29.9225 30.826 30.2985 30.896 30.6225 31.036C30.9505 31.172 31.2405 31.366 31.4925 31.618L31.2105 32.002ZM37.955 30.922L34.565 38.794C34.529 38.874 34.483 38.938 34.427 38.986C34.375 39.034 34.293 39.058 34.181 39.058H33.389L34.499 36.646L31.991 30.922H32.915C33.007 30.922 33.079 30.946 33.131 30.994C33.187 31.038 33.225 31.088 33.245 31.144L34.871 34.972C34.935 35.14 34.989 35.316 35.033 35.5C35.089 35.312 35.149 35.134 35.213 34.966L36.791 31.144C36.815 31.08 36.855 31.028 36.911 30.988C36.971 30.944 37.037 30.922 37.109 30.922H37.955ZM44.4658 32.86C44.7978 32.86 45.0898 32.816 45.3418 32.728C45.5978 32.64 45.8118 32.518 45.9838 32.362C46.1598 32.202 46.2918 32.012 46.3798 31.792C46.4678 31.572 46.5118 31.33 46.5118 31.066C46.5118 30.518 46.3418 30.09 46.0018 29.782C45.6658 29.474 45.1538 29.32 44.4658 29.32H43.0858V32.86H44.4658ZM44.4658 28.402C45.0098 28.402 45.4818 28.466 45.8818 28.594C46.2858 28.718 46.6198 28.896 46.8838 29.128C47.1478 29.36 47.3438 29.64 47.4718 29.968C47.6038 30.296 47.6698 30.662 47.6698 31.066C47.6698 31.466 47.5998 31.832 47.4598 32.164C47.3198 32.496 47.1138 32.782 46.8418 33.022C46.5738 33.262 46.2398 33.45 45.8398 33.586C45.4438 33.718 44.9858 33.784 44.4658 33.784H43.0858V37H41.9278V28.402H44.4658ZM51.1285 30.826C51.5725 30.826 51.9725 30.9 52.3285 31.048C52.6845 31.196 52.9885 31.406 53.2405 31.678C53.4925 31.95 53.6845 32.28 53.8165 32.668C53.9525 33.052 54.0205 33.482 54.0205 33.958C54.0205 34.438 53.9525 34.87 53.8165 35.254C53.6845 35.638 53.4925 35.966 53.2405 36.238C52.9885 36.51 52.6845 36.72 52.3285 36.868C51.9725 37.012 51.5725 37.084 51.1285 37.084C50.6805 37.084 50.2765 37.012 49.9165 36.868C49.5605 36.72 49.2565 36.51 49.0045 36.238C48.7525 35.966 48.5585 35.638 48.4225 35.254C48.2905 34.87 48.2245 34.438 48.2245 33.958C48.2245 33.482 48.2905 33.052 48.4225 32.668C48.5585 32.28 48.7525 31.95 49.0045 31.678C49.2565 31.406 49.5605 31.196 49.9165 31.048C50.2765 30.9 50.6805 30.826 51.1285 30.826ZM51.1285 36.25C51.7285 36.25 52.1765 36.05 52.4725 35.65C52.7685 35.246 52.9165 34.684 52.9165 33.964C52.9165 33.24 52.7685 32.676 52.4725 32.272C52.1765 31.868 51.7285 31.666 51.1285 31.666C50.8245 31.666 50.5585 31.718 50.3305 31.822C50.1065 31.926 49.9185 32.076 49.7665 32.272C49.6185 32.468 49.5065 32.71 49.4305 32.998C49.3585 33.282 49.3225 33.604 49.3225 33.964C49.3225 34.684 49.4705 35.246 49.7665 35.65C50.0665 36.05 50.5205 36.25 51.1285 36.25ZM56.4791 28.162V37H55.4111V28.162H56.4791ZM59.339 30.922V37H58.271V30.922H59.339ZM59.567 29.014C59.567 29.118 59.545 29.216 59.501 29.308C59.461 29.396 59.405 29.476 59.333 29.548C59.265 29.616 59.183 29.67 59.087 29.71C58.995 29.75 58.897 29.77 58.793 29.77C58.689 29.77 58.591 29.75 58.499 29.71C58.411 29.67 58.333 29.616 58.265 29.548C58.197 29.476 58.143 29.396 58.103 29.308C58.063 29.216 58.043 29.118 58.043 29.014C58.043 28.91 58.063 28.812 58.103 28.72C58.143 28.624 58.197 28.542 58.265 28.474C58.333 28.402 58.411 28.346 58.499 28.306C58.591 28.266 58.689 28.246 58.793 28.246C58.897 28.246 58.995 28.266 59.087 28.306C59.183 28.346 59.265 28.402 59.333 28.474C59.405 28.542 59.461 28.624 59.501 28.72C59.545 28.812 59.567 28.91 59.567 29.014ZM65.3238 32.002C65.2918 32.046 65.2598 32.08 65.2278 32.104C65.1958 32.128 65.1518 32.14 65.0958 32.14C65.0358 32.14 64.9698 32.116 64.8978 32.068C64.8258 32.016 64.7358 31.96 64.6278 31.9C64.5238 31.84 64.3938 31.786 64.2378 31.738C64.0858 31.686 63.8978 31.66 63.6738 31.66C63.3738 31.66 63.1098 31.714 62.8818 31.822C62.6538 31.926 62.4618 32.078 62.3058 32.278C62.1538 32.478 62.0378 32.72 61.9578 33.004C61.8818 33.288 61.8438 33.606 61.8438 33.958C61.8438 34.326 61.8858 34.654 61.9698 34.942C62.0538 35.226 62.1718 35.466 62.3238 35.662C62.4798 35.854 62.6658 36.002 62.8818 36.106C63.1018 36.206 63.3478 36.256 63.6198 36.256C63.8798 36.256 64.0938 36.226 64.2618 36.166C64.4298 36.102 64.5678 36.032 64.6758 35.956C64.7878 35.88 64.8798 35.812 64.9518 35.752C65.0278 35.688 65.1018 35.656 65.1738 35.656C65.2618 35.656 65.3298 35.69 65.3778 35.758L65.6778 36.148C65.5458 36.312 65.3958 36.452 65.2278 36.568C65.0598 36.684 64.8778 36.782 64.6818 36.862C64.4898 36.938 64.2878 36.994 64.0758 37.03C63.8638 37.066 63.6478 37.084 63.4278 37.084C63.0478 37.084 62.6938 37.014 62.3658 36.874C62.0418 36.734 61.7598 36.532 61.5198 36.268C61.2798 36 61.0918 35.672 60.9558 35.284C60.8198 34.896 60.7518 34.454 60.7518 33.958C60.7518 33.506 60.8138 33.088 60.9378 32.704C61.0658 32.32 61.2498 31.99 61.4898 31.714C61.7338 31.434 62.0318 31.216 62.3838 31.06C62.7398 30.904 63.1478 30.826 63.6078 30.826C64.0358 30.826 64.4118 30.896 64.7358 31.036C65.0638 31.172 65.3538 31.366 65.6058 31.618L65.3238 32.002ZM72.0683 30.922L68.6783 38.794C68.6423 38.874 68.5963 38.938 68.5403 38.986C68.4883 39.034 68.4063 39.058 68.2943 39.058H67.5023L68.6123 36.646L66.1043 30.922H67.0283C67.1203 30.922 67.1923 30.946 67.2443 30.994C67.3003 31.038 67.3383 31.088 67.3583 31.144L68.9843 34.972C69.0483 35.14 69.1023 35.316 69.1463 35.5C69.2023 35.312 69.2623 35.134 69.3263 34.966L70.9043 31.144C70.9283 31.08 70.9683 31.028 71.0243 30.988C71.0843 30.944 71.1503 30.922 71.2223 30.922H72.0683ZM76.0291 27.802H76.8631V39.094H76.0291V27.802ZM87.5739 29.38H84.7899V37H83.6319V29.38H80.8419V28.402H87.5739V29.38ZM91.2009 33.298C91.2009 33.05 91.1649 32.824 91.0929 32.62C91.0249 32.412 90.9229 32.234 90.7869 32.086C90.6549 31.934 90.4929 31.818 90.3009 31.738C90.1089 31.654 89.8909 31.612 89.6469 31.612C89.1349 31.612 88.7289 31.762 88.4289 32.062C88.1329 32.358 87.9489 32.77 87.8769 33.298H91.2009ZM92.0649 36.148C91.9329 36.308 91.7749 36.448 91.5909 36.568C91.4069 36.684 91.2089 36.78 90.9969 36.856C90.7889 36.932 90.5729 36.988 90.3489 37.024C90.1249 37.064 89.9029 37.084 89.6829 37.084C89.2629 37.084 88.8749 37.014 88.5189 36.874C88.1669 36.73 87.8609 36.522 87.6009 36.25C87.3449 35.974 87.1449 35.634 87.0009 35.23C86.8569 34.826 86.7849 34.362 86.7849 33.838C86.7849 33.414 86.8489 33.018 86.9769 32.65C87.1089 32.282 87.2969 31.964 87.5409 31.696C87.7849 31.424 88.0829 31.212 88.4349 31.06C88.7869 30.904 89.1829 30.826 89.6229 30.826C89.9869 30.826 90.3229 30.888 90.6309 31.012C90.9429 31.132 91.2109 31.308 91.4349 31.54C91.6629 31.768 91.8409 32.052 91.9689 32.392C92.0969 32.728 92.1609 33.112 92.1609 33.544C92.1609 33.712 92.1429 33.824 92.1069 33.88C92.0709 33.936 92.0029 33.964 91.9029 33.964H87.8409C87.8529 34.348 87.9049 34.682 87.9969 34.966C88.0929 35.25 88.2249 35.488 88.3929 35.68C88.5609 35.868 88.7609 36.01 88.9929 36.106C89.2249 36.198 89.4849 36.244 89.7729 36.244C90.0409 36.244 90.2709 36.214 90.4629 36.154C90.6589 36.09 90.8269 36.022 90.9669 35.95C91.1069 35.878 91.2229 35.812 91.3149 35.752C91.4109 35.688 91.4929 35.656 91.5609 35.656C91.6489 35.656 91.7169 35.69 91.7649 35.758L92.0649 36.148ZM94.4867 32.14C94.6787 31.724 94.9147 31.4 95.1947 31.168C95.4747 30.932 95.8167 30.814 96.2207 30.814C96.3487 30.814 96.4707 30.828 96.5867 30.856C96.7067 30.884 96.8127 30.928 96.9047 30.988L96.8267 31.786C96.8027 31.886 96.7427 31.936 96.6467 31.936C96.5907 31.936 96.5087 31.924 96.4007 31.9C96.2927 31.876 96.1707 31.864 96.0347 31.864C95.8427 31.864 95.6707 31.892 95.5187 31.948C95.3707 32.004 95.2367 32.088 95.1167 32.2C95.0007 32.308 94.8947 32.444 94.7987 32.608C94.7067 32.768 94.6227 32.952 94.5467 33.16V37H93.4727V30.922H94.0847C94.2007 30.922 94.2807 30.944 94.3247 30.988C94.3687 31.032 94.3987 31.108 94.4147 31.216L94.4867 32.14ZM97.8438 37V30.922H98.4858C98.6378 30.922 98.7318 30.996 98.7678 31.144L98.8458 31.768C99.0698 31.492 99.3218 31.266 99.6018 31.09C99.8818 30.914 100.206 30.826 100.574 30.826C100.982 30.826 101.312 30.94 101.564 31.168C101.82 31.396 102.004 31.704 102.116 32.092C102.204 31.872 102.316 31.682 102.452 31.522C102.592 31.362 102.748 31.23 102.92 31.126C103.092 31.022 103.274 30.946 103.466 30.898C103.662 30.85 103.86 30.826 104.06 30.826C104.38 30.826 104.664 30.878 104.912 30.982C105.164 31.082 105.376 31.23 105.548 31.426C105.724 31.622 105.858 31.864 105.95 32.152C106.042 32.436 106.088 32.762 106.088 33.13V37H105.014V33.13C105.014 32.654 104.91 32.294 104.702 32.05C104.494 31.802 104.194 31.678 103.802 31.678C103.626 31.678 103.458 31.71 103.298 31.774C103.142 31.834 103.004 31.924 102.884 32.044C102.764 32.164 102.668 32.316 102.596 32.5C102.528 32.68 102.494 32.89 102.494 33.13V37H101.42V33.13C101.42 32.642 101.322 32.278 101.126 32.038C100.93 31.798 100.644 31.678 100.268 31.678C100.004 31.678 99.7598 31.75 99.5358 31.894C99.3118 32.034 99.1058 32.226 98.9178 32.47V37H97.8438ZM111.251 31.924C111.203 32.012 111.129 32.056 111.029 32.056C110.969 32.056 110.901 32.034 110.825 31.99C110.749 31.946 110.655 31.898 110.543 31.846C110.435 31.79 110.305 31.74 110.153 31.696C110.001 31.648 109.821 31.624 109.613 31.624C109.433 31.624 109.271 31.648 109.127 31.696C108.983 31.74 108.859 31.802 108.755 31.882C108.655 31.962 108.577 32.056 108.521 32.164C108.469 32.268 108.443 32.382 108.443 32.506C108.443 32.662 108.487 32.792 108.575 32.896C108.667 33 108.787 33.09 108.935 33.166C109.083 33.242 109.251 33.31 109.439 33.37C109.627 33.426 109.819 33.488 110.015 33.556C110.215 33.62 110.409 33.692 110.597 33.772C110.785 33.852 110.953 33.952 111.101 34.072C111.249 34.192 111.367 34.34 111.455 34.516C111.547 34.688 111.593 34.896 111.593 35.14C111.593 35.42 111.543 35.68 111.443 35.92C111.343 36.156 111.195 36.362 110.999 36.538C110.803 36.71 110.563 36.846 110.279 36.946C109.995 37.046 109.667 37.096 109.295 37.096C108.871 37.096 108.487 37.028 108.143 36.892C107.799 36.752 107.507 36.574 107.267 36.358L107.519 35.95C107.551 35.898 107.589 35.858 107.633 35.83C107.677 35.802 107.733 35.788 107.801 35.788C107.873 35.788 107.949 35.816 108.029 35.872C108.109 35.928 108.205 35.99 108.317 36.058C108.433 36.126 108.573 36.188 108.737 36.244C108.901 36.3 109.105 36.328 109.349 36.328C109.557 36.328 109.739 36.302 109.895 36.25C110.051 36.194 110.181 36.12 110.285 36.028C110.389 35.936 110.465 35.83 110.513 35.71C110.565 35.59 110.591 35.462 110.591 35.326C110.591 35.158 110.545 35.02 110.453 34.912C110.365 34.8 110.247 34.706 110.099 34.63C109.951 34.55 109.781 34.482 109.589 34.426C109.401 34.366 109.207 34.304 109.007 34.24C108.811 34.176 108.617 34.104 108.425 34.024C108.237 33.94 108.069 33.836 107.921 33.712C107.773 33.588 107.653 33.436 107.561 33.256C107.473 33.072 107.429 32.85 107.429 32.59C107.429 32.358 107.477 32.136 107.573 31.924C107.669 31.708 107.809 31.52 107.993 31.36C108.177 31.196 108.403 31.066 108.671 30.97C108.939 30.874 109.245 30.826 109.589 30.826C109.989 30.826 110.347 30.89 110.663 31.018C110.983 31.142 111.259 31.314 111.491 31.534L111.251 31.924ZM118.535 30.826C118.979 30.826 119.379 30.9 119.735 31.048C120.091 31.196 120.395 31.406 120.647 31.678C120.899 31.95 121.091 32.28 121.223 32.668C121.359 33.052 121.427 33.482 121.427 33.958C121.427 34.438 121.359 34.87 121.223 35.254C121.091 35.638 120.899 35.966 120.647 36.238C120.395 36.51 120.091 36.72 119.735 36.868C119.379 37.012 118.979 37.084 118.535 37.084C118.087 37.084 117.683 37.012 117.323 36.868C116.967 36.72 116.663 36.51 116.411 36.238C116.159 35.966 115.965 35.638 115.829 35.254C115.697 34.87 115.631 34.438 115.631 33.958C115.631 33.482 115.697 33.052 115.829 32.668C115.965 32.28 116.159 31.95 116.411 31.678C116.663 31.406 116.967 31.196 117.323 31.048C117.683 30.9 118.087 30.826 118.535 30.826ZM118.535 36.25C119.135 36.25 119.583 36.05 119.879 35.65C120.175 35.246 120.323 34.684 120.323 33.964C120.323 33.24 120.175 32.676 119.879 32.272C119.583 31.868 119.135 31.666 118.535 31.666C118.231 31.666 117.965 31.718 117.737 31.822C117.513 31.926 117.325 32.076 117.173 32.272C117.025 32.468 116.913 32.71 116.837 32.998C116.765 33.282 116.729 33.604 116.729 33.964C116.729 34.684 116.877 35.246 117.173 35.65C117.473 36.05 117.927 36.25 118.535 36.25ZM123.048 37V31.834L122.376 31.756C122.292 31.736 122.222 31.706 122.166 31.666C122.114 31.622 122.088 31.56 122.088 31.48V31.042H123.048V30.454C123.048 30.106 123.096 29.798 123.192 29.53C123.292 29.258 123.432 29.03 123.612 28.846C123.796 28.658 124.016 28.516 124.272 28.42C124.528 28.324 124.816 28.276 125.136 28.276C125.408 28.276 125.658 28.316 125.886 28.396L125.862 28.93C125.854 29.026 125.8 29.078 125.7 29.086C125.604 29.094 125.474 29.098 125.31 29.098C125.126 29.098 124.958 29.122 124.806 29.17C124.658 29.218 124.53 29.296 124.422 29.404C124.314 29.512 124.23 29.654 124.17 29.83C124.114 30.006 124.086 30.224 124.086 30.484V31.042H125.838V31.816H124.122V37H123.048ZM133.277 36.076C133.633 36.076 133.951 36.016 134.231 35.896C134.511 35.776 134.747 35.608 134.939 35.392C135.135 35.176 135.283 34.918 135.383 34.618C135.487 34.318 135.539 33.988 135.539 33.628V28.402H136.697V33.628C136.697 34.124 136.617 34.584 136.457 35.008C136.301 35.432 136.075 35.8 135.779 36.112C135.487 36.42 135.129 36.662 134.705 36.838C134.281 37.014 133.805 37.102 133.277 37.102C132.749 37.102 132.273 37.014 131.849 36.838C131.425 36.662 131.065 36.42 130.769 36.112C130.473 35.8 130.245 35.432 130.085 35.008C129.929 34.584 129.851 34.124 129.851 33.628V28.402H131.009V33.622C131.009 33.982 131.059 34.312 131.159 34.612C131.263 34.912 131.411 35.17 131.603 35.386C131.799 35.602 132.037 35.772 132.317 35.896C132.601 36.016 132.921 36.076 133.277 36.076ZM141.778 31.924C141.73 32.012 141.656 32.056 141.556 32.056C141.496 32.056 141.428 32.034 141.352 31.99C141.276 31.946 141.182 31.898 141.07 31.846C140.962 31.79 140.832 31.74 140.68 31.696C140.528 31.648 140.348 31.624 140.14 31.624C139.96 31.624 139.798 31.648 139.654 31.696C139.51 31.74 139.386 31.802 139.282 31.882C139.182 31.962 139.104 32.056 139.048 32.164C138.996 32.268 138.97 32.382 138.97 32.506C138.97 32.662 139.014 32.792 139.102 32.896C139.194 33 139.314 33.09 139.462 33.166C139.61 33.242 139.778 33.31 139.966 33.37C140.154 33.426 140.346 33.488 140.542 33.556C140.742 33.62 140.936 33.692 141.124 33.772C141.312 33.852 141.48 33.952 141.628 34.072C141.776 34.192 141.894 34.34 141.982 34.516C142.074 34.688 142.12 34.896 142.12 35.14C142.12 35.42 142.07 35.68 141.97 35.92C141.87 36.156 141.722 36.362 141.526 36.538C141.33 36.71 141.09 36.846 140.806 36.946C140.522 37.046 140.194 37.096 139.822 37.096C139.398 37.096 139.014 37.028 138.67 36.892C138.326 36.752 138.034 36.574 137.794 36.358L138.046 35.95C138.078 35.898 138.116 35.858 138.16 35.83C138.204 35.802 138.26 35.788 138.328 35.788C138.4 35.788 138.476 35.816 138.556 35.872C138.636 35.928 138.732 35.99 138.844 36.058C138.96 36.126 139.1 36.188 139.264 36.244C139.428 36.3 139.632 36.328 139.876 36.328C140.084 36.328 140.266 36.302 140.422 36.25C140.578 36.194 140.708 36.12 140.812 36.028C140.916 35.936 140.992 35.83 141.04 35.71C141.092 35.59 141.118 35.462 141.118 35.326C141.118 35.158 141.072 35.02 140.98 34.912C140.892 34.8 140.774 34.706 140.626 34.63C140.478 34.55 140.308 34.482 140.116 34.426C139.928 34.366 139.734 34.304 139.534 34.24C139.338 34.176 139.144 34.104 138.952 34.024C138.764 33.94 138.596 33.836 138.448 33.712C138.3 33.588 138.18 33.436 138.088 33.256C138 33.072 137.956 32.85 137.956 32.59C137.956 32.358 138.004 32.136 138.1 31.924C138.196 31.708 138.336 31.52 138.52 31.36C138.704 31.196 138.93 31.066 139.198 30.97C139.466 30.874 139.772 30.826 140.116 30.826C140.516 30.826 140.874 30.89 141.19 31.018C141.51 31.142 141.786 31.314 142.018 31.534L141.778 31.924ZM147.498 33.298C147.498 33.05 147.462 32.824 147.39 32.62C147.322 32.412 147.22 32.234 147.084 32.086C146.952 31.934 146.79 31.818 146.598 31.738C146.406 31.654 146.188 31.612 145.944 31.612C145.432 31.612 145.026 31.762 144.726 32.062C144.43 32.358 144.246 32.77 144.174 33.298H147.498ZM148.362 36.148C148.23 36.308 148.072 36.448 147.888 36.568C147.704 36.684 147.506 36.78 147.294 36.856C147.086 36.932 146.87 36.988 146.646 37.024C146.422 37.064 146.2 37.084 145.98 37.084C145.56 37.084 145.172 37.014 144.816 36.874C144.464 36.73 144.158 36.522 143.898 36.25C143.642 35.974 143.442 35.634 143.298 35.23C143.154 34.826 143.082 34.362 143.082 33.838C143.082 33.414 143.146 33.018 143.274 32.65C143.406 32.282 143.594 31.964 143.838 31.696C144.082 31.424 144.38 31.212 144.732 31.06C145.084 30.904 145.48 30.826 145.92 30.826C146.284 30.826 146.62 30.888 146.928 31.012C147.24 31.132 147.508 31.308 147.732 31.54C147.96 31.768 148.138 32.052 148.266 32.392C148.394 32.728 148.458 33.112 148.458 33.544C148.458 33.712 148.44 33.824 148.404 33.88C148.368 33.936 148.3 33.964 148.2 33.964H144.138C144.15 34.348 144.202 34.682 144.294 34.966C144.39 35.25 144.522 35.488 144.69 35.68C144.858 35.868 145.058 36.01 145.29 36.106C145.522 36.198 145.782 36.244 146.07 36.244C146.338 36.244 146.568 36.214 146.76 36.154C146.956 36.09 147.124 36.022 147.264 35.95C147.404 35.878 147.52 35.812 147.612 35.752C147.708 35.688 147.79 35.656 147.858 35.656C147.946 35.656 148.014 35.69 148.062 35.758L148.362 36.148ZM6.90133 49.224C6.96533 49.224 7.02133 49.25 7.06933 49.302L7.53133 49.8C7.17933 50.208 6.75133 50.526 6.24733 50.754C5.74733 50.982 5.14133 51.096 4.42933 51.096C3.81333 51.096 3.25333 50.99 2.74933 50.778C2.24533 50.562 1.81533 50.262 1.45933 49.878C1.10333 49.49 0.827334 49.026 0.631334 48.486C0.435334 47.946 0.337334 47.352 0.337334 46.704C0.337334 46.056 0.439334 45.462 0.643334 44.922C0.847334 44.382 1.13333 43.918 1.50133 43.53C1.87333 43.142 2.31733 42.842 2.83333 42.63C3.34933 42.414 3.91933 42.306 4.54333 42.306C5.15533 42.306 5.69533 42.404 6.16333 42.6C6.63133 42.796 7.04333 43.062 7.39933 43.398L7.01533 43.932C6.99133 43.972 6.95933 44.006 6.91933 44.034C6.88333 44.058 6.83333 44.07 6.76933 44.07C6.69733 44.07 6.60933 44.032 6.50533 43.956C6.40133 43.876 6.26533 43.788 6.09733 43.692C5.92933 43.596 5.71933 43.51 5.46733 43.434C5.21533 43.354 4.90533 43.314 4.53733 43.314C4.09333 43.314 3.68733 43.392 3.31933 43.548C2.95133 43.7 2.63333 43.922 2.36533 44.214C2.10133 44.506 1.89533 44.862 1.74733 45.282C1.59933 45.702 1.52533 46.176 1.52533 46.704C1.52533 47.24 1.60133 47.718 1.75333 48.138C1.90933 48.558 2.11933 48.914 2.38333 49.206C2.65133 49.494 2.96533 49.714 3.32533 49.866C3.68933 50.018 4.08133 50.094 4.50133 50.094C4.75733 50.094 4.98733 50.08 5.19133 50.052C5.39933 50.02 5.58933 49.972 5.76133 49.908C5.93733 49.844 6.09933 49.764 6.24733 49.668C6.39933 49.568 6.54933 49.45 6.69733 49.314C6.76533 49.254 6.83333 49.224 6.90133 49.224ZM11.923 48.264C11.431 48.28 11.011 48.32 10.663 48.384C10.319 48.444 10.037 48.524 9.81696 48.624C9.60096 48.724 9.44296 48.842 9.34296 48.978C9.24696 49.114 9.19896 49.266 9.19896 49.434C9.19896 49.594 9.22496 49.732 9.27696 49.848C9.32896 49.964 9.39896 50.06 9.48696 50.136C9.57896 50.208 9.68496 50.262 9.80496 50.298C9.92896 50.33 10.061 50.346 10.201 50.346C10.389 50.346 10.561 50.328 10.717 50.292C10.873 50.252 11.019 50.196 11.155 50.124C11.295 50.052 11.427 49.966 11.551 49.866C11.679 49.766 11.803 49.652 11.923 49.524V48.264ZM8.47296 45.78C8.80896 45.456 9.17096 45.214 9.55896 45.054C9.94696 44.894 10.377 44.814 10.849 44.814C11.189 44.814 11.491 44.87 11.755 44.982C12.019 45.094 12.241 45.25 12.421 45.45C12.601 45.65 12.737 45.892 12.829 46.176C12.921 46.46 12.967 46.772 12.967 47.112V51H12.493C12.389 51 12.309 50.984 12.253 50.952C12.197 50.916 12.153 50.848 12.121 50.748L12.001 50.172C11.841 50.32 11.685 50.452 11.533 50.568C11.381 50.68 11.221 50.776 11.053 50.856C10.885 50.932 10.705 50.99 10.513 51.03C10.325 51.074 10.115 51.096 9.88296 51.096C9.64696 51.096 9.42496 51.064 9.21696 51C9.00896 50.932 8.82696 50.832 8.67096 50.7C8.51896 50.568 8.39696 50.402 8.30496 50.202C8.21696 49.998 8.17296 49.758 8.17296 49.482C8.17296 49.242 8.23896 49.012 8.37096 48.792C8.50296 48.568 8.71696 48.37 9.01296 48.198C9.30896 48.026 9.69496 47.886 10.171 47.778C10.647 47.666 11.231 47.602 11.923 47.586V47.112C11.923 46.64 11.821 46.284 11.617 46.044C11.413 45.8 11.115 45.678 10.723 45.678C10.459 45.678 10.237 45.712 10.057 45.78C9.88096 45.844 9.72696 45.918 9.59496 46.002C9.46696 46.082 9.35496 46.156 9.25896 46.224C9.16696 46.288 9.07496 46.32 8.98296 46.32C8.91096 46.32 8.84896 46.302 8.79696 46.266C8.74496 46.226 8.70096 46.178 8.66496 46.122L8.47296 45.78ZM15.6978 42.162V51H14.6298V42.162H15.6978ZM18.5577 44.922V51H17.4897V44.922H18.5577ZM18.7857 43.014C18.7857 43.118 18.7637 43.216 18.7197 43.308C18.6797 43.396 18.6237 43.476 18.5517 43.548C18.4837 43.616 18.4017 43.67 18.3057 43.71C18.2137 43.75 18.1157 43.77 18.0117 43.77C17.9077 43.77 17.8097 43.75 17.7177 43.71C17.6297 43.67 17.5517 43.616 17.4837 43.548C17.4157 43.476 17.3617 43.396 17.3217 43.308C17.2817 43.216 17.2617 43.118 17.2617 43.014C17.2617 42.91 17.2817 42.812 17.3217 42.72C17.3617 42.624 17.4157 42.542 17.4837 42.474C17.5517 42.402 17.6297 42.346 17.7177 42.306C17.8097 42.266 17.9077 42.246 18.0117 42.246C18.1157 42.246 18.2137 42.266 18.3057 42.306C18.4017 42.346 18.4837 42.402 18.5517 42.474C18.6237 42.542 18.6797 42.624 18.7197 42.72C18.7637 42.812 18.7857 42.91 18.7857 43.014ZM20.7086 51V45.834L20.0366 45.756C19.9526 45.736 19.8826 45.706 19.8266 45.666C19.7746 45.622 19.7486 45.56 19.7486 45.48V45.042H20.7086V44.454C20.7086 44.106 20.7566 43.798 20.8526 43.53C20.9526 43.258 21.0926 43.03 21.2726 42.846C21.4566 42.658 21.6766 42.516 21.9326 42.42C22.1886 42.324 22.4766 42.276 22.7966 42.276C23.0686 42.276 23.3186 42.316 23.5466 42.396L23.5226 42.93C23.5146 43.026 23.4606 43.078 23.3606 43.086C23.2646 43.094 23.1346 43.098 22.9706 43.098C22.7866 43.098 22.6186 43.122 22.4666 43.17C22.3186 43.218 22.1906 43.296 22.0826 43.404C21.9746 43.512 21.8906 43.654 21.8306 43.83C21.7746 44.006 21.7466 44.224 21.7466 44.484V45.042H23.4986V45.816H21.7826V51H20.7086ZM26.8824 44.826C27.3264 44.826 27.7264 44.9 28.0824 45.048C28.4384 45.196 28.7424 45.406 28.9944 45.678C29.2464 45.95 29.4384 46.28 29.5704 46.668C29.7064 47.052 29.7744 47.482 29.7744 47.958C29.7744 48.438 29.7064 48.87 29.5704 49.254C29.4384 49.638 29.2464 49.966 28.9944 50.238C28.7424 50.51 28.4384 50.72 28.0824 50.868C27.7264 51.012 27.3264 51.084 26.8824 51.084C26.4344 51.084 26.0304 51.012 25.6704 50.868C25.3144 50.72 25.0104 50.51 24.7584 50.238C24.5064 49.966 24.3124 49.638 24.1764 49.254C24.0444 48.87 23.9784 48.438 23.9784 47.958C23.9784 47.482 24.0444 47.052 24.1764 46.668C24.3124 46.28 24.5064 45.95 24.7584 45.678C25.0104 45.406 25.3144 45.196 25.6704 45.048C26.0304 44.9 26.4344 44.826 26.8824 44.826ZM26.8824 50.25C27.4824 50.25 27.9304 50.05 28.2264 49.65C28.5224 49.246 28.6704 48.684 28.6704 47.964C28.6704 47.24 28.5224 46.676 28.2264 46.272C27.9304 45.868 27.4824 45.666 26.8824 45.666C26.5784 45.666 26.3124 45.718 26.0844 45.822C25.8604 45.926 25.6724 46.076 25.5204 46.272C25.3724 46.468 25.2604 46.71 25.1844 46.998C25.1124 47.282 25.0764 47.604 25.0764 47.964C25.0764 48.684 25.2244 49.246 25.5204 49.65C25.8204 50.05 26.2744 50.25 26.8824 50.25ZM32.143 46.14C32.335 45.724 32.571 45.4 32.851 45.168C33.131 44.932 33.473 44.814 33.877 44.814C34.005 44.814 34.127 44.828 34.243 44.856C34.363 44.884 34.469 44.928 34.561 44.988L34.483 45.786C34.459 45.886 34.399 45.936 34.303 45.936C34.247 45.936 34.165 45.924 34.057 45.9C33.949 45.876 33.827 45.864 33.691 45.864C33.499 45.864 33.327 45.892 33.175 45.948C33.027 46.004 32.893 46.088 32.773 46.2C32.657 46.308 32.551 46.444 32.455 46.608C32.363 46.768 32.279 46.952 32.203 47.16V51H31.129V44.922H31.741C31.857 44.922 31.937 44.944 31.981 44.988C32.025 45.032 32.055 45.108 32.071 45.216L32.143 46.14ZM36.5081 45.804C36.6401 45.656 36.7801 45.522 36.9281 45.402C37.0761 45.282 37.2321 45.18 37.3961 45.096C37.5641 45.008 37.7401 44.942 37.9241 44.898C38.1121 44.85 38.3141 44.826 38.5301 44.826C38.8621 44.826 39.1541 44.882 39.4061 44.994C39.6621 45.102 39.8741 45.258 40.0421 45.462C40.2141 45.662 40.3441 45.904 40.4321 46.188C40.5201 46.472 40.5641 46.786 40.5641 47.13V51H39.4901V47.13C39.4901 46.67 39.3841 46.314 39.1721 46.062C38.9641 45.806 38.6461 45.678 38.2181 45.678C37.9021 45.678 37.6061 45.754 37.3301 45.906C37.0581 46.058 36.8061 46.264 36.5741 46.524V51H35.5001V44.922H36.1421C36.2941 44.922 36.3881 44.996 36.4241 45.144L36.5081 45.804ZM43.3195 44.922V51H42.2515V44.922H43.3195ZM43.5475 43.014C43.5475 43.118 43.5255 43.216 43.4815 43.308C43.4415 43.396 43.3855 43.476 43.3135 43.548C43.2455 43.616 43.1635 43.67 43.0675 43.71C42.9755 43.75 42.8775 43.77 42.7735 43.77C42.6695 43.77 42.5715 43.75 42.4795 43.71C42.3915 43.67 42.3135 43.616 42.2455 43.548C42.1775 43.476 42.1235 43.396 42.0835 43.308C42.0435 43.216 42.0235 43.118 42.0235 43.014C42.0235 42.91 42.0435 42.812 42.0835 42.72C42.1235 42.624 42.1775 42.542 42.2455 42.474C42.3135 42.402 42.3915 42.346 42.4795 42.306C42.5715 42.266 42.6695 42.246 42.7735 42.246C42.8775 42.246 42.9755 42.266 43.0675 42.306C43.1635 42.346 43.2455 42.402 43.3135 42.474C43.3855 42.542 43.4415 42.624 43.4815 42.72C43.5255 42.812 43.5475 42.91 43.5475 43.014ZM48.3683 48.264C47.8763 48.28 47.4563 48.32 47.1083 48.384C46.7643 48.444 46.4823 48.524 46.2623 48.624C46.0463 48.724 45.8883 48.842 45.7883 48.978C45.6923 49.114 45.6443 49.266 45.6443 49.434C45.6443 49.594 45.6703 49.732 45.7223 49.848C45.7743 49.964 45.8443 50.06 45.9323 50.136C46.0243 50.208 46.1303 50.262 46.2503 50.298C46.3743 50.33 46.5063 50.346 46.6463 50.346C46.8343 50.346 47.0063 50.328 47.1623 50.292C47.3183 50.252 47.4643 50.196 47.6003 50.124C47.7403 50.052 47.8723 49.966 47.9963 49.866C48.1243 49.766 48.2483 49.652 48.3683 49.524V48.264ZM44.9183 45.78C45.2543 45.456 45.6163 45.214 46.0043 45.054C46.3923 44.894 46.8223 44.814 47.2943 44.814C47.6343 44.814 47.9363 44.87 48.2003 44.982C48.4643 45.094 48.6863 45.25 48.8663 45.45C49.0463 45.65 49.1823 45.892 49.2743 46.176C49.3663 46.46 49.4123 46.772 49.4123 47.112V51H48.9383C48.8343 51 48.7543 50.984 48.6983 50.952C48.6423 50.916 48.5983 50.848 48.5663 50.748L48.4463 50.172C48.2863 50.32 48.1303 50.452 47.9783 50.568C47.8263 50.68 47.6663 50.776 47.4983 50.856C47.3303 50.932 47.1503 50.99 46.9583 51.03C46.7703 51.074 46.5603 51.096 46.3283 51.096C46.0923 51.096 45.8703 51.064 45.6623 51C45.4543 50.932 45.2723 50.832 45.1163 50.7C44.9643 50.568 44.8423 50.402 44.7503 50.202C44.6623 49.998 44.6183 49.758 44.6183 49.482C44.6183 49.242 44.6843 49.012 44.8163 48.792C44.9483 48.568 45.1623 48.37 45.4583 48.198C45.7543 48.026 46.1403 47.886 46.6163 47.778C47.0923 47.666 47.6763 47.602 48.3683 47.586V47.112C48.3683 46.64 48.2663 46.284 48.0623 46.044C47.8583 45.8 47.5603 45.678 47.1683 45.678C46.9043 45.678 46.6823 45.712 46.5023 45.78C46.3263 45.844 46.1723 45.918 46.0403 46.002C45.9123 46.082 45.8003 46.156 45.7043 46.224C45.6123 46.288 45.5203 46.32 45.4283 46.32C45.3563 46.32 45.2943 46.302 45.2423 46.266C45.1903 46.226 45.1463 46.178 45.1103 46.122L44.9183 45.78ZM56.8994 46.86C57.2314 46.86 57.5234 46.816 57.7754 46.728C58.0314 46.64 58.2454 46.518 58.4174 46.362C58.5934 46.202 58.7254 46.012 58.8134 45.792C58.9014 45.572 58.9454 45.33 58.9454 45.066C58.9454 44.518 58.7754 44.09 58.4354 43.782C58.0994 43.474 57.5874 43.32 56.8994 43.32H55.5194V46.86H56.8994ZM56.8994 42.402C57.4434 42.402 57.9154 42.466 58.3154 42.594C58.7194 42.718 59.0534 42.896 59.3174 43.128C59.5814 43.36 59.7774 43.64 59.9054 43.968C60.0374 44.296 60.1034 44.662 60.1034 45.066C60.1034 45.466 60.0334 45.832 59.8934 46.164C59.7534 46.496 59.5474 46.782 59.2754 47.022C59.0074 47.262 58.6734 47.45 58.2734 47.586C57.8774 47.718 57.4194 47.784 56.8994 47.784H55.5194V51H54.3614V42.402H56.8994ZM62.2133 46.14C62.4053 45.724 62.6413 45.4 62.9213 45.168C63.2013 44.932 63.5433 44.814 63.9473 44.814C64.0753 44.814 64.1973 44.828 64.3133 44.856C64.4333 44.884 64.5393 44.928 64.6313 44.988L64.5533 45.786C64.5293 45.886 64.4693 45.936 64.3733 45.936C64.3173 45.936 64.2353 45.924 64.1273 45.9C64.0193 45.876 63.8973 45.864 63.7613 45.864C63.5693 45.864 63.3973 45.892 63.2453 45.948C63.0973 46.004 62.9633 46.088 62.8433 46.2C62.7273 46.308 62.6213 46.444 62.5253 46.608C62.4333 46.768 62.3493 46.952 62.2733 47.16V51H61.1993V44.922H61.8113C61.9273 44.922 62.0073 44.944 62.0513 44.988C62.0953 45.032 62.1253 45.108 62.1413 45.216L62.2133 46.14ZM66.6984 44.922V51H65.6304V44.922H66.6984ZM66.9264 43.014C66.9264 43.118 66.9044 43.216 66.8604 43.308C66.8204 43.396 66.7644 43.476 66.6924 43.548C66.6244 43.616 66.5424 43.67 66.4464 43.71C66.3544 43.75 66.2564 43.77 66.1524 43.77C66.0484 43.77 65.9504 43.75 65.8584 43.71C65.7704 43.67 65.6924 43.616 65.6244 43.548C65.5564 43.476 65.5024 43.396 65.4624 43.308C65.4224 43.216 65.4024 43.118 65.4024 43.014C65.4024 42.91 65.4224 42.812 65.4624 42.72C65.5024 42.624 65.5564 42.542 65.6244 42.474C65.6924 42.402 65.7704 42.346 65.8584 42.306C65.9504 42.266 66.0484 42.246 66.1524 42.246C66.2564 42.246 66.3544 42.266 66.4464 42.306C66.5424 42.346 66.6244 42.402 66.6924 42.474C66.7644 42.542 66.8204 42.624 66.8604 42.72C66.9044 42.812 66.9264 42.91 66.9264 43.014ZM73.6612 44.922L71.1832 51H70.2232L67.7452 44.922H68.6152C68.7032 44.922 68.7752 44.944 68.8312 44.988C68.8872 45.032 68.9252 45.084 68.9452 45.144L70.4872 49.056C70.5352 49.204 70.5772 49.348 70.6132 49.488C70.6492 49.628 70.6832 49.768 70.7152 49.908C70.7472 49.768 70.7812 49.628 70.8172 49.488C70.8532 49.348 70.8972 49.204 70.9492 49.056L72.5092 45.144C72.5332 45.08 72.5732 45.028 72.6292 44.988C72.6852 44.944 72.7512 44.922 72.8272 44.922H73.6612ZM77.8058 48.264C77.3138 48.28 76.8938 48.32 76.5458 48.384C76.2018 48.444 75.9198 48.524 75.6998 48.624C75.4838 48.724 75.3258 48.842 75.2258 48.978C75.1298 49.114 75.0818 49.266 75.0818 49.434C75.0818 49.594 75.1078 49.732 75.1598 49.848C75.2118 49.964 75.2818 50.06 75.3698 50.136C75.4618 50.208 75.5678 50.262 75.6878 50.298C75.8118 50.33 75.9438 50.346 76.0838 50.346C76.2718 50.346 76.4438 50.328 76.5998 50.292C76.7558 50.252 76.9018 50.196 77.0378 50.124C77.1778 50.052 77.3098 49.966 77.4338 49.866C77.5618 49.766 77.6858 49.652 77.8058 49.524V48.264ZM74.3558 45.78C74.6918 45.456 75.0538 45.214 75.4418 45.054C75.8298 44.894 76.2598 44.814 76.7318 44.814C77.0718 44.814 77.3738 44.87 77.6378 44.982C77.9018 45.094 78.1238 45.25 78.3038 45.45C78.4838 45.65 78.6198 45.892 78.7118 46.176C78.8038 46.46 78.8498 46.772 78.8498 47.112V51H78.3758C78.2718 51 78.1918 50.984 78.1358 50.952C78.0798 50.916 78.0358 50.848 78.0038 50.748L77.8838 50.172C77.7238 50.32 77.5678 50.452 77.4158 50.568C77.2638 50.68 77.1038 50.776 76.9358 50.856C76.7678 50.932 76.5878 50.99 76.3958 51.03C76.2078 51.074 75.9978 51.096 75.7658 51.096C75.5298 51.096 75.3078 51.064 75.0998 51C74.8918 50.932 74.7098 50.832 74.5538 50.7C74.4018 50.568 74.2798 50.402 74.1878 50.202C74.0998 49.998 74.0558 49.758 74.0558 49.482C74.0558 49.242 74.1218 49.012 74.2538 48.792C74.3858 48.568 74.5998 48.37 74.8958 48.198C75.1918 48.026 75.5778 47.886 76.0538 47.778C76.5298 47.666 77.1138 47.602 77.8058 47.586V47.112C77.8058 46.64 77.7038 46.284 77.4998 46.044C77.2958 45.8 76.9978 45.678 76.6058 45.678C76.3418 45.678 76.1198 45.712 75.9398 45.78C75.7638 45.844 75.6098 45.918 75.4778 46.002C75.3498 46.082 75.2378 46.156 75.1418 46.224C75.0498 46.288 74.9578 46.32 74.8658 46.32C74.7938 46.32 74.7318 46.302 74.6798 46.266C74.6278 46.226 74.5838 46.178 74.5478 46.122L74.3558 45.78ZM84.7066 46.002C84.6746 46.046 84.6426 46.08 84.6106 46.104C84.5786 46.128 84.5346 46.14 84.4786 46.14C84.4186 46.14 84.3526 46.116 84.2806 46.068C84.2086 46.016 84.1186 45.96 84.0106 45.9C83.9066 45.84 83.7766 45.786 83.6206 45.738C83.4686 45.686 83.2806 45.66 83.0566 45.66C82.7566 45.66 82.4926 45.714 82.2646 45.822C82.0366 45.926 81.8446 46.078 81.6886 46.278C81.5366 46.478 81.4206 46.72 81.3406 47.004C81.2646 47.288 81.2266 47.606 81.2266 47.958C81.2266 48.326 81.2686 48.654 81.3526 48.942C81.4366 49.226 81.5546 49.466 81.7066 49.662C81.8626 49.854 82.0486 50.002 82.2646 50.106C82.4846 50.206 82.7306 50.256 83.0026 50.256C83.2626 50.256 83.4766 50.226 83.6446 50.166C83.8126 50.102 83.9506 50.032 84.0586 49.956C84.1706 49.88 84.2626 49.812 84.3346 49.752C84.4106 49.688 84.4846 49.656 84.5566 49.656C84.6446 49.656 84.7126 49.69 84.7606 49.758L85.0606 50.148C84.9286 50.312 84.7786 50.452 84.6106 50.568C84.4426 50.684 84.2606 50.782 84.0646 50.862C83.8726 50.938 83.6706 50.994 83.4586 51.03C83.2466 51.066 83.0306 51.084 82.8106 51.084C82.4306 51.084 82.0766 51.014 81.7486 50.874C81.4246 50.734 81.1426 50.532 80.9026 50.268C80.6626 50 80.4746 49.672 80.3386 49.284C80.2026 48.896 80.1346 48.454 80.1346 47.958C80.1346 47.506 80.1966 47.088 80.3206 46.704C80.4486 46.32 80.6326 45.99 80.8726 45.714C81.1166 45.434 81.4146 45.216 81.7666 45.06C82.1226 44.904 82.5306 44.826 82.9906 44.826C83.4186 44.826 83.7946 44.896 84.1186 45.036C84.4466 45.172 84.7366 45.366 84.9886 45.618L84.7066 46.002ZM91.4511 44.922L88.0611 52.794C88.0251 52.874 87.9791 52.938 87.9231 52.986C87.8711 53.034 87.7891 53.058 87.6771 53.058H86.8851L87.9951 50.646L85.4871 44.922H86.4111C86.5031 44.922 86.5751 44.946 86.6271 44.994C86.6831 45.038 86.7211 45.088 86.7411 45.144L88.3671 48.972C88.4311 49.14 88.4851 49.316 88.5291 49.5C88.5851 49.312 88.6451 49.134 88.7091 48.966L90.2871 45.144C90.3111 45.08 90.3511 45.028 90.4071 44.988C90.4671 44.944 90.5331 44.922 90.6051 44.922H91.4511ZM95.4119 41.802H96.2459V53.094H95.4119V41.802ZM108.472 42.402V51H107.89C107.798 51 107.72 50.984 107.656 50.952C107.596 50.92 107.536 50.866 107.476 50.79L102.502 44.31C102.51 44.41 102.516 44.508 102.52 44.604C102.524 44.7 102.526 44.79 102.526 44.874V51H101.506V42.402H102.106C102.158 42.402 102.202 42.406 102.238 42.414C102.274 42.418 102.306 42.428 102.334 42.444C102.362 42.456 102.39 42.476 102.418 42.504C102.446 42.528 102.476 42.56 102.508 42.6L107.482 49.074C107.474 48.97 107.466 48.87 107.458 48.774C107.454 48.674 107.452 48.58 107.452 48.492V42.402H108.472ZM114.299 47.298C114.299 47.05 114.263 46.824 114.191 46.62C114.123 46.412 114.021 46.234 113.885 46.086C113.753 45.934 113.591 45.818 113.399 45.738C113.207 45.654 112.989 45.612 112.745 45.612C112.233 45.612 111.827 45.762 111.527 46.062C111.231 46.358 111.047 46.77 110.975 47.298H114.299ZM115.163 50.148C115.031 50.308 114.873 50.448 114.689 50.568C114.505 50.684 114.307 50.78 114.095 50.856C113.887 50.932 113.671 50.988 113.447 51.024C113.223 51.064 113.001 51.084 112.781 51.084C112.361 51.084 111.973 51.014 111.617 50.874C111.265 50.73 110.959 50.522 110.699 50.25C110.443 49.974 110.243 49.634 110.099 49.23C109.955 48.826 109.883 48.362 109.883 47.838C109.883 47.414 109.947 47.018 110.075 46.65C110.207 46.282 110.395 45.964 110.639 45.696C110.883 45.424 111.181 45.212 111.533 45.06C111.885 44.904 112.281 44.826 112.721 44.826C113.085 44.826 113.421 44.888 113.729 45.012C114.041 45.132 114.309 45.308 114.533 45.54C114.761 45.768 114.939 46.052 115.067 46.392C115.195 46.728 115.259 47.112 115.259 47.544C115.259 47.712 115.241 47.824 115.205 47.88C115.169 47.936 115.101 47.964 115.001 47.964H110.939C110.951 48.348 111.003 48.682 111.095 48.966C111.191 49.25 111.323 49.488 111.491 49.68C111.659 49.868 111.859 50.01 112.091 50.106C112.323 50.198 112.583 50.244 112.871 50.244C113.139 50.244 113.369 50.214 113.561 50.154C113.757 50.09 113.925 50.022 114.065 49.95C114.205 49.878 114.321 49.812 114.413 49.752C114.509 49.688 114.591 49.656 114.659 49.656C114.747 49.656 114.815 49.69 114.863 49.758L115.163 50.148ZM124.894 44.922L122.926 51H122.08C121.976 51 121.904 50.932 121.864 50.796L120.52 46.674C120.488 46.582 120.462 46.49 120.442 46.398C120.422 46.302 120.402 46.208 120.382 46.116C120.362 46.208 120.342 46.302 120.322 46.398C120.302 46.49 120.276 46.584 120.244 46.68L118.876 50.796C118.84 50.932 118.76 51 118.636 51H117.832L115.864 44.922H116.704C116.788 44.922 116.858 44.944 116.914 44.988C116.974 45.032 117.014 45.084 117.034 45.144L118.198 49.056C118.266 49.344 118.32 49.616 118.36 49.872C118.396 49.74 118.432 49.606 118.468 49.47C118.508 49.334 118.55 49.196 118.594 49.056L119.878 45.12C119.898 45.06 119.932 45.01 119.98 44.97C120.032 44.93 120.094 44.91 120.166 44.91H120.634C120.714 44.91 120.78 44.93 120.832 44.97C120.884 45.01 120.92 45.06 120.94 45.12L122.194 49.056C122.238 49.196 122.278 49.334 122.314 49.47C122.35 49.606 122.384 49.74 122.416 49.872C122.436 49.74 122.46 49.608 122.488 49.476C122.52 49.34 122.554 49.2 122.59 49.056L123.778 45.144C123.798 45.08 123.836 45.028 123.892 44.988C123.948 44.944 124.014 44.922 124.09 44.922H124.894ZM131.769 47.574V51H130.605V47.574L127.455 42.402H128.475C128.579 42.402 128.661 42.428 128.721 42.48C128.781 42.528 128.833 42.592 128.877 42.672L130.845 46.014C130.917 46.154 130.983 46.286 131.043 46.41C131.103 46.53 131.155 46.652 131.199 46.776C131.243 46.652 131.293 46.53 131.349 46.41C131.405 46.286 131.467 46.154 131.535 46.014L133.497 42.672C133.533 42.604 133.583 42.542 133.647 42.486C133.711 42.43 133.793 42.402 133.893 42.402H134.919L131.769 47.574ZM137.027 44.826C137.471 44.826 137.871 44.9 138.227 45.048C138.583 45.196 138.887 45.406 139.139 45.678C139.391 45.95 139.583 46.28 139.715 46.668C139.851 47.052 139.919 47.482 139.919 47.958C139.919 48.438 139.851 48.87 139.715 49.254C139.583 49.638 139.391 49.966 139.139 50.238C138.887 50.51 138.583 50.72 138.227 50.868C137.871 51.012 137.471 51.084 137.027 51.084C136.579 51.084 136.175 51.012 135.815 50.868C135.459 50.72 135.155 50.51 134.903 50.238C134.651 49.966 134.457 49.638 134.321 49.254C134.189 48.87 134.123 48.438 134.123 47.958C134.123 47.482 134.189 47.052 134.321 46.668C134.457 46.28 134.651 45.95 134.903 45.678C135.155 45.406 135.459 45.196 135.815 45.048C136.175 44.9 136.579 44.826 137.027 44.826ZM137.027 50.25C137.627 50.25 138.075 50.05 138.371 49.65C138.667 49.246 138.815 48.684 138.815 47.964C138.815 47.24 138.667 46.676 138.371 46.272C138.075 45.868 137.627 45.666 137.027 45.666C136.723 45.666 136.457 45.718 136.229 45.822C136.005 45.926 135.817 46.076 135.665 46.272C135.517 46.468 135.405 46.71 135.329 46.998C135.257 47.282 135.221 47.604 135.221 47.964C135.221 48.684 135.369 49.246 135.665 49.65C135.965 50.05 136.419 50.25 137.027 50.25ZM142.287 46.14C142.479 45.724 142.715 45.4 142.995 45.168C143.275 44.932 143.617 44.814 144.021 44.814C144.149 44.814 144.271 44.828 144.387 44.856C144.507 44.884 144.613 44.928 144.705 44.988L144.627 45.786C144.603 45.886 144.543 45.936 144.447 45.936C144.391 45.936 144.309 45.924 144.201 45.9C144.093 45.876 143.971 45.864 143.835 45.864C143.643 45.864 143.471 45.892 143.319 45.948C143.171 46.004 143.037 46.088 142.917 46.2C142.801 46.308 142.695 46.444 142.599 46.608C142.507 46.768 142.423 46.952 142.347 47.16V51H141.273V44.922H141.885C142.001 44.922 142.081 44.944 142.125 44.988C142.169 45.032 142.199 45.108 142.215 45.216L142.287 46.14ZM146.719 42.162V47.364H146.995C147.075 47.364 147.141 47.354 147.193 47.334C147.249 47.31 147.307 47.264 147.367 47.196L149.287 45.138C149.343 45.07 149.401 45.018 149.461 44.982C149.525 44.942 149.609 44.922 149.713 44.922H150.679L148.441 47.304C148.333 47.44 148.217 47.546 148.093 47.622C148.165 47.67 148.229 47.726 148.285 47.79C148.345 47.85 148.401 47.92 148.453 48L150.829 51H149.875C149.783 51 149.703 50.986 149.635 50.958C149.571 50.926 149.515 50.87 149.467 50.79L147.469 48.3C147.409 48.216 147.349 48.162 147.289 48.138C147.233 48.11 147.145 48.096 147.025 48.096H146.719V51H145.645V42.162H146.719ZM157.599 46.86C157.931 46.86 158.223 46.816 158.475 46.728C158.731 46.64 158.945 46.518 159.117 46.362C159.293 46.202 159.425 46.012 159.513 45.792C159.601 45.572 159.645 45.33 159.645 45.066C159.645 44.518 159.475 44.09 159.135 43.782C158.799 43.474 158.287 43.32 157.599 43.32H156.219V46.86H157.599ZM157.599 42.402C158.143 42.402 158.615 42.466 159.015 42.594C159.419 42.718 159.753 42.896 160.017 43.128C160.281 43.36 160.477 43.64 160.605 43.968C160.737 44.296 160.803 44.662 160.803 45.066C160.803 45.466 160.733 45.832 160.593 46.164C160.453 46.496 160.247 46.782 159.975 47.022C159.707 47.262 159.373 47.45 158.973 47.586C158.577 47.718 158.119 47.784 157.599 47.784H156.219V51H155.061V42.402H157.599ZM164.261 44.826C164.705 44.826 165.105 44.9 165.461 45.048C165.817 45.196 166.121 45.406 166.373 45.678C166.625 45.95 166.817 46.28 166.949 46.668C167.085 47.052 167.153 47.482 167.153 47.958C167.153 48.438 167.085 48.87 166.949 49.254C166.817 49.638 166.625 49.966 166.373 50.238C166.121 50.51 165.817 50.72 165.461 50.868C165.105 51.012 164.705 51.084 164.261 51.084C163.813 51.084 163.409 51.012 163.049 50.868C162.693 50.72 162.389 50.51 162.137 50.238C161.885 49.966 161.691 49.638 161.555 49.254C161.423 48.87 161.357 48.438 161.357 47.958C161.357 47.482 161.423 47.052 161.555 46.668C161.691 46.28 161.885 45.95 162.137 45.678C162.389 45.406 162.693 45.196 163.049 45.048C163.409 44.9 163.813 44.826 164.261 44.826ZM164.261 50.25C164.861 50.25 165.309 50.05 165.605 49.65C165.901 49.246 166.049 48.684 166.049 47.964C166.049 47.24 165.901 46.676 165.605 46.272C165.309 45.868 164.861 45.666 164.261 45.666C163.957 45.666 163.691 45.718 163.463 45.822C163.239 45.926 163.051 46.076 162.899 46.272C162.751 46.468 162.639 46.71 162.563 46.998C162.491 47.282 162.455 47.604 162.455 47.964C162.455 48.684 162.603 49.246 162.899 49.65C163.199 50.05 163.653 50.25 164.261 50.25ZM169.612 42.162V51H168.544V42.162H169.612ZM172.472 44.922V51H171.404V44.922H172.472ZM172.7 43.014C172.7 43.118 172.678 43.216 172.634 43.308C172.594 43.396 172.538 43.476 172.466 43.548C172.398 43.616 172.316 43.67 172.22 43.71C172.128 43.75 172.03 43.77 171.926 43.77C171.822 43.77 171.724 43.75 171.632 43.71C171.544 43.67 171.466 43.616 171.398 43.548C171.33 43.476 171.276 43.396 171.236 43.308C171.196 43.216 171.176 43.118 171.176 43.014C171.176 42.91 171.196 42.812 171.236 42.72C171.276 42.624 171.33 42.542 171.398 42.474C171.466 42.402 171.544 42.346 171.632 42.306C171.724 42.266 171.822 42.246 171.926 42.246C172.03 42.246 172.128 42.266 172.22 42.306C172.316 42.346 172.398 42.402 172.466 42.474C172.538 42.542 172.594 42.624 172.634 42.72C172.678 42.812 172.7 42.91 172.7 43.014ZM178.457 46.002C178.425 46.046 178.393 46.08 178.361 46.104C178.329 46.128 178.285 46.14 178.229 46.14C178.169 46.14 178.103 46.116 178.031 46.068C177.959 46.016 177.869 45.96 177.761 45.9C177.657 45.84 177.527 45.786 177.371 45.738C177.219 45.686 177.031 45.66 176.807 45.66C176.507 45.66 176.243 45.714 176.015 45.822C175.787 45.926 175.595 46.078 175.439 46.278C175.287 46.478 175.171 46.72 175.091 47.004C175.015 47.288 174.977 47.606 174.977 47.958C174.977 48.326 175.019 48.654 175.103 48.942C175.187 49.226 175.305 49.466 175.457 49.662C175.613 49.854 175.799 50.002 176.015 50.106C176.235 50.206 176.481 50.256 176.753 50.256C177.013 50.256 177.227 50.226 177.395 50.166C177.563 50.102 177.701 50.032 177.809 49.956C177.921 49.88 178.013 49.812 178.085 49.752C178.161 49.688 178.235 49.656 178.307 49.656C178.395 49.656 178.463 49.69 178.511 49.758L178.811 50.148C178.679 50.312 178.529 50.452 178.361 50.568C178.193 50.684 178.011 50.782 177.815 50.862C177.623 50.938 177.421 50.994 177.209 51.03C176.997 51.066 176.781 51.084 176.561 51.084C176.181 51.084 175.827 51.014 175.499 50.874C175.175 50.734 174.893 50.532 174.653 50.268C174.413 50 174.225 49.672 174.089 49.284C173.953 48.896 173.885 48.454 173.885 47.958C173.885 47.506 173.947 47.088 174.071 46.704C174.199 46.32 174.383 45.99 174.623 45.714C174.867 45.434 175.165 45.216 175.517 45.06C175.873 44.904 176.281 44.826 176.741 44.826C177.169 44.826 177.545 44.896 177.869 45.036C178.197 45.172 178.487 45.366 178.739 45.618L178.457 46.002ZM185.201 44.922L181.811 52.794C181.775 52.874 181.729 52.938 181.673 52.986C181.621 53.034 181.539 53.058 181.427 53.058H180.635L181.745 50.646L179.237 44.922H180.161C180.253 44.922 180.325 44.946 180.377 44.994C180.433 45.038 180.471 45.088 180.491 45.144L182.117 48.972C182.181 49.14 182.235 49.316 182.279 49.5C182.335 49.312 182.395 49.134 182.459 48.966L184.037 45.144C184.061 45.08 184.101 45.028 184.157 44.988C184.217 44.944 184.283 44.922 184.355 44.922H185.201ZM189.162 41.802H189.996V53.094H189.162V41.802ZM201.292 49.224C201.356 49.224 201.412 49.25 201.46 49.302L201.922 49.8C201.57 50.208 201.142 50.526 200.638 50.754C200.138 50.982 199.532 51.096 198.82 51.096C198.204 51.096 197.644 50.99 197.14 50.778C196.636 50.562 196.206 50.262 195.85 49.878C195.494 49.49 195.218 49.026 195.022 48.486C194.826 47.946 194.728 47.352 194.728 46.704C194.728 46.056 194.83 45.462 195.034 44.922C195.238 44.382 195.524 43.918 195.892 43.53C196.264 43.142 196.708 42.842 197.224 42.63C197.74 42.414 198.31 42.306 198.934 42.306C199.546 42.306 200.086 42.404 200.554 42.6C201.022 42.796 201.434 43.062 201.79 43.398L201.406 43.932C201.382 43.972 201.35 44.006 201.31 44.034C201.274 44.058 201.224 44.07 201.16 44.07C201.088 44.07 201 44.032 200.896 43.956C200.792 43.876 200.656 43.788 200.488 43.692C200.32 43.596 200.11 43.51 199.858 43.434C199.606 43.354 199.296 43.314 198.928 43.314C198.484 43.314 198.078 43.392 197.71 43.548C197.342 43.7 197.024 43.922 196.756 44.214C196.492 44.506 196.286 44.862 196.138 45.282C195.99 45.702 195.916 46.176 195.916 46.704C195.916 47.24 195.992 47.718 196.144 48.138C196.3 48.558 196.51 48.914 196.774 49.206C197.042 49.494 197.356 49.714 197.716 49.866C198.08 50.018 198.472 50.094 198.892 50.094C199.148 50.094 199.378 50.08 199.582 50.052C199.79 50.02 199.98 49.972 200.152 49.908C200.328 49.844 200.49 49.764 200.638 49.668C200.79 49.568 200.94 49.45 201.088 49.314C201.156 49.254 201.224 49.224 201.292 49.224ZM206.314 48.264C205.822 48.28 205.402 48.32 205.054 48.384C204.71 48.444 204.428 48.524 204.208 48.624C203.992 48.724 203.834 48.842 203.734 48.978C203.638 49.114 203.59 49.266 203.59 49.434C203.59 49.594 203.616 49.732 203.668 49.848C203.72 49.964 203.79 50.06 203.878 50.136C203.97 50.208 204.076 50.262 204.196 50.298C204.32 50.33 204.452 50.346 204.592 50.346C204.78 50.346 204.952 50.328 205.108 50.292C205.264 50.252 205.41 50.196 205.546 50.124C205.686 50.052 205.818 49.966 205.942 49.866C206.07 49.766 206.194 49.652 206.314 49.524V48.264ZM202.864 45.78C203.2 45.456 203.562 45.214 203.95 45.054C204.338 44.894 204.768 44.814 205.24 44.814C205.58 44.814 205.882 44.87 206.146 44.982C206.41 45.094 206.632 45.25 206.812 45.45C206.992 45.65 207.128 45.892 207.22 46.176C207.312 46.46 207.358 46.772 207.358 47.112V51H206.884C206.78 51 206.7 50.984 206.644 50.952C206.588 50.916 206.544 50.848 206.512 50.748L206.392 50.172C206.232 50.32 206.076 50.452 205.924 50.568C205.772 50.68 205.612 50.776 205.444 50.856C205.276 50.932 205.096 50.99 204.904 51.03C204.716 51.074 204.506 51.096 204.274 51.096C204.038 51.096 203.816 51.064 203.608 51C203.4 50.932 203.218 50.832 203.062 50.7C202.91 50.568 202.788 50.402 202.696 50.202C202.608 49.998 202.564 49.758 202.564 49.482C202.564 49.242 202.63 49.012 202.762 48.792C202.894 48.568 203.108 48.37 203.404 48.198C203.7 48.026 204.086 47.886 204.562 47.778C205.038 47.666 205.622 47.602 206.314 47.586V47.112C206.314 46.64 206.212 46.284 206.008 46.044C205.804 45.8 205.506 45.678 205.114 45.678C204.85 45.678 204.628 45.712 204.448 45.78C204.272 45.844 204.118 45.918 203.986 46.002C203.858 46.082 203.746 46.156 203.65 46.224C203.558 46.288 203.466 46.32 203.374 46.32C203.302 46.32 203.24 46.302 203.188 46.266C203.136 46.226 203.092 46.178 203.056 46.122L202.864 45.78ZM210.088 42.162V51H209.02V42.162H210.088ZM212.948 44.922V51H211.88V44.922H212.948ZM213.176 43.014C213.176 43.118 213.154 43.216 213.11 43.308C213.07 43.396 213.014 43.476 212.942 43.548C212.874 43.616 212.792 43.67 212.696 43.71C212.604 43.75 212.506 43.77 212.402 43.77C212.298 43.77 212.2 43.75 212.108 43.71C212.02 43.67 211.942 43.616 211.874 43.548C211.806 43.476 211.752 43.396 211.712 43.308C211.672 43.216 211.652 43.118 211.652 43.014C211.652 42.91 211.672 42.812 211.712 42.72C211.752 42.624 211.806 42.542 211.874 42.474C211.942 42.402 212.02 42.346 212.108 42.306C212.2 42.266 212.298 42.246 212.402 42.246C212.506 42.246 212.604 42.266 212.696 42.306C212.792 42.346 212.874 42.402 212.942 42.474C213.014 42.542 213.07 42.624 213.11 42.72C213.154 42.812 213.176 42.91 213.176 43.014ZM215.099 51V45.834L214.427 45.756C214.343 45.736 214.273 45.706 214.217 45.666C214.165 45.622 214.139 45.56 214.139 45.48V45.042H215.099V44.454C215.099 44.106 215.147 43.798 215.243 43.53C215.343 43.258 215.483 43.03 215.663 42.846C215.847 42.658 216.067 42.516 216.323 42.42C216.579 42.324 216.867 42.276 217.187 42.276C217.459 42.276 217.709 42.316 217.937 42.396L217.913 42.93C217.905 43.026 217.851 43.078 217.751 43.086C217.655 43.094 217.525 43.098 217.361 43.098C217.177 43.098 217.009 43.122 216.857 43.17C216.709 43.218 216.581 43.296 216.473 43.404C216.365 43.512 216.281 43.654 216.221 43.83C216.165 44.006 216.137 44.224 216.137 44.484V45.042H217.889V45.816H216.173V51H215.099ZM221.273 44.826C221.717 44.826 222.117 44.9 222.473 45.048C222.829 45.196 223.133 45.406 223.385 45.678C223.637 45.95 223.829 46.28 223.961 46.668C224.097 47.052 224.165 47.482 224.165 47.958C224.165 48.438 224.097 48.87 223.961 49.254C223.829 49.638 223.637 49.966 223.385 50.238C223.133 50.51 222.829 50.72 222.473 50.868C222.117 51.012 221.717 51.084 221.273 51.084C220.825 51.084 220.421 51.012 220.061 50.868C219.705 50.72 219.401 50.51 219.149 50.238C218.897 49.966 218.703 49.638 218.567 49.254C218.435 48.87 218.369 48.438 218.369 47.958C218.369 47.482 218.435 47.052 218.567 46.668C218.703 46.28 218.897 45.95 219.149 45.678C219.401 45.406 219.705 45.196 220.061 45.048C220.421 44.9 220.825 44.826 221.273 44.826ZM221.273 50.25C221.873 50.25 222.321 50.05 222.617 49.65C222.913 49.246 223.061 48.684 223.061 47.964C223.061 47.24 222.913 46.676 222.617 46.272C222.321 45.868 221.873 45.666 221.273 45.666C220.969 45.666 220.703 45.718 220.475 45.822C220.251 45.926 220.063 46.076 219.911 46.272C219.763 46.468 219.651 46.71 219.575 46.998C219.503 47.282 219.467 47.604 219.467 47.964C219.467 48.684 219.615 49.246 219.911 49.65C220.211 50.05 220.665 50.25 221.273 50.25ZM226.534 46.14C226.726 45.724 226.962 45.4 227.242 45.168C227.522 44.932 227.864 44.814 228.268 44.814C228.396 44.814 228.518 44.828 228.634 44.856C228.754 44.884 228.86 44.928 228.952 44.988L228.874 45.786C228.85 45.886 228.79 45.936 228.694 45.936C228.638 45.936 228.556 45.924 228.448 45.9C228.34 45.876 228.218 45.864 228.082 45.864C227.89 45.864 227.718 45.892 227.566 45.948C227.418 46.004 227.284 46.088 227.164 46.2C227.048 46.308 226.942 46.444 226.846 46.608C226.754 46.768 226.67 46.952 226.594 47.16V51H225.52V44.922H226.132C226.248 44.922 226.328 44.944 226.372 44.988C226.416 45.032 226.446 45.108 226.462 45.216L226.534 46.14ZM230.899 45.804C231.031 45.656 231.171 45.522 231.319 45.402C231.467 45.282 231.623 45.18 231.787 45.096C231.955 45.008 232.131 44.942 232.315 44.898C232.503 44.85 232.705 44.826 232.921 44.826C233.253 44.826 233.545 44.882 233.797 44.994C234.053 45.102 234.265 45.258 234.433 45.462C234.605 45.662 234.735 45.904 234.823 46.188C234.911 46.472 234.955 46.786 234.955 47.13V51H233.881V47.13C233.881 46.67 233.775 46.314 233.563 46.062C233.355 45.806 233.037 45.678 232.609 45.678C232.293 45.678 231.997 45.754 231.721 45.906C231.449 46.058 231.197 46.264 230.965 46.524V51H229.891V44.922H230.533C230.685 44.922 230.779 44.996 230.815 45.144L230.899 45.804ZM237.71 44.922V51H236.642V44.922H237.71ZM237.938 43.014C237.938 43.118 237.916 43.216 237.872 43.308C237.832 43.396 237.776 43.476 237.704 43.548C237.636 43.616 237.554 43.67 237.458 43.71C237.366 43.75 237.268 43.77 237.164 43.77C237.06 43.77 236.962 43.75 236.87 43.71C236.782 43.67 236.704 43.616 236.636 43.548C236.568 43.476 236.514 43.396 236.474 43.308C236.434 43.216 236.414 43.118 236.414 43.014C236.414 42.91 236.434 42.812 236.474 42.72C236.514 42.624 236.568 42.542 236.636 42.474C236.704 42.402 236.782 42.346 236.87 42.306C236.962 42.266 237.06 42.246 237.164 42.246C237.268 42.246 237.366 42.266 237.458 42.306C237.554 42.346 237.636 42.402 237.704 42.474C237.776 42.542 237.832 42.624 237.872 42.72C237.916 42.812 237.938 42.91 237.938 43.014ZM242.759 48.264C242.267 48.28 241.847 48.32 241.499 48.384C241.155 48.444 240.873 48.524 240.653 48.624C240.437 48.724 240.279 48.842 240.179 48.978C240.083 49.114 240.035 49.266 240.035 49.434C240.035 49.594 240.061 49.732 240.113 49.848C240.165 49.964 240.235 50.06 240.323 50.136C240.415 50.208 240.521 50.262 240.641 50.298C240.765 50.33 240.897 50.346 241.037 50.346C241.225 50.346 241.397 50.328 241.553 50.292C241.709 50.252 241.855 50.196 241.991 50.124C242.131 50.052 242.263 49.966 242.387 49.866C242.515 49.766 242.639 49.652 242.759 49.524V48.264ZM239.309 45.78C239.645 45.456 240.007 45.214 240.395 45.054C240.783 44.894 241.213 44.814 241.685 44.814C242.025 44.814 242.327 44.87 242.591 44.982C242.855 45.094 243.077 45.25 243.257 45.45C243.437 45.65 243.573 45.892 243.665 46.176C243.757 46.46 243.803 46.772 243.803 47.112V51H243.329C243.225 51 243.145 50.984 243.089 50.952C243.033 50.916 242.989 50.848 242.957 50.748L242.837 50.172C242.677 50.32 242.521 50.452 242.369 50.568C242.217 50.68 242.057 50.776 241.889 50.856C241.721 50.932 241.541 50.99 241.349 51.03C241.161 51.074 240.951 51.096 240.719 51.096C240.483 51.096 240.261 51.064 240.053 51C239.845 50.932 239.663 50.832 239.507 50.7C239.355 50.568 239.233 50.402 239.141 50.202C239.053 49.998 239.009 49.758 239.009 49.482C239.009 49.242 239.075 49.012 239.207 48.792C239.339 48.568 239.553 48.37 239.849 48.198C240.145 48.026 240.531 47.886 241.007 47.778C241.483 47.666 242.067 47.602 242.759 47.586V47.112C242.759 46.64 242.657 46.284 242.453 46.044C242.249 45.8 241.951 45.678 241.559 45.678C241.295 45.678 241.073 45.712 240.893 45.78C240.717 45.844 240.563 45.918 240.431 46.002C240.303 46.082 240.191 46.156 240.095 46.224C240.003 46.288 239.911 46.32 239.819 46.32C239.747 46.32 239.685 46.302 239.633 46.266C239.581 46.226 239.537 46.178 239.501 46.122L239.309 45.78ZM248.404 46.95H251.368V47.856H248.404V46.95ZM263.727 46.704C263.727 47.348 263.625 47.934 263.421 48.462C263.217 48.99 262.929 49.442 262.557 49.818C262.185 50.194 261.737 50.486 261.213 50.694C260.693 50.898 260.117 51 259.485 51H256.275V42.402H259.485C260.117 42.402 260.693 42.506 261.213 42.714C261.737 42.918 262.185 43.21 262.557 43.59C262.929 43.966 263.217 44.418 263.421 44.946C263.625 45.474 263.727 46.06 263.727 46.704ZM262.533 46.704C262.533 46.176 262.461 45.704 262.317 45.288C262.173 44.872 261.969 44.52 261.705 44.232C261.441 43.944 261.121 43.724 260.745 43.572C260.369 43.42 259.949 43.344 259.485 43.344H257.439V50.058H259.485C259.949 50.058 260.369 49.982 260.745 49.83C261.121 49.678 261.441 49.46 261.705 49.176C261.969 48.888 262.173 48.536 262.317 48.12C262.461 47.704 262.533 47.232 262.533 46.704ZM267.632 44.826C268.076 44.826 268.476 44.9 268.832 45.048C269.188 45.196 269.492 45.406 269.744 45.678C269.996 45.95 270.188 46.28 270.32 46.668C270.456 47.052 270.524 47.482 270.524 47.958C270.524 48.438 270.456 48.87 270.32 49.254C270.188 49.638 269.996 49.966 269.744 50.238C269.492 50.51 269.188 50.72 268.832 50.868C268.476 51.012 268.076 51.084 267.632 51.084C267.184 51.084 266.78 51.012 266.42 50.868C266.064 50.72 265.76 50.51 265.508 50.238C265.256 49.966 265.062 49.638 264.926 49.254C264.794 48.87 264.728 48.438 264.728 47.958C264.728 47.482 264.794 47.052 264.926 46.668C265.062 46.28 265.256 45.95 265.508 45.678C265.76 45.406 266.064 45.196 266.42 45.048C266.78 44.9 267.184 44.826 267.632 44.826ZM267.632 50.25C268.232 50.25 268.68 50.05 268.976 49.65C269.272 49.246 269.42 48.684 269.42 47.964C269.42 47.24 269.272 46.676 268.976 46.272C268.68 45.868 268.232 45.666 267.632 45.666C267.328 45.666 267.062 45.718 266.834 45.822C266.61 45.926 266.422 46.076 266.27 46.272C266.122 46.468 266.01 46.71 265.934 46.998C265.862 47.282 265.826 47.604 265.826 47.964C265.826 48.684 265.974 49.246 266.27 49.65C266.57 50.05 267.024 50.25 267.632 50.25ZM282.167 42.402V51H281.585C281.493 51 281.415 50.984 281.351 50.952C281.291 50.92 281.231 50.866 281.171 50.79L276.197 44.31C276.205 44.41 276.211 44.508 276.215 44.604C276.219 44.7 276.221 44.79 276.221 44.874V51H275.201V42.402H275.801C275.853 42.402 275.897 42.406 275.933 42.414C275.969 42.418 276.001 42.428 276.029 42.444C276.057 42.456 276.085 42.476 276.113 42.504C276.141 42.528 276.171 42.56 276.203 42.6L281.177 49.074C281.169 48.97 281.161 48.87 281.153 48.774C281.149 48.674 281.147 48.58 281.147 48.492V42.402H282.167ZM286.488 44.826C286.932 44.826 287.332 44.9 287.688 45.048C288.044 45.196 288.348 45.406 288.6 45.678C288.852 45.95 289.044 46.28 289.176 46.668C289.312 47.052 289.38 47.482 289.38 47.958C289.38 48.438 289.312 48.87 289.176 49.254C289.044 49.638 288.852 49.966 288.6 50.238C288.348 50.51 288.044 50.72 287.688 50.868C287.332 51.012 286.932 51.084 286.488 51.084C286.04 51.084 285.636 51.012 285.276 50.868C284.92 50.72 284.616 50.51 284.364 50.238C284.112 49.966 283.918 49.638 283.782 49.254C283.65 48.87 283.584 48.438 283.584 47.958C283.584 47.482 283.65 47.052 283.782 46.668C283.918 46.28 284.112 45.95 284.364 45.678C284.616 45.406 284.92 45.196 285.276 45.048C285.636 44.9 286.04 44.826 286.488 44.826ZM286.488 50.25C287.088 50.25 287.536 50.05 287.832 49.65C288.128 49.246 288.276 48.684 288.276 47.964C288.276 47.24 288.128 46.676 287.832 46.272C287.536 45.868 287.088 45.666 286.488 45.666C286.184 45.666 285.918 45.718 285.69 45.822C285.466 45.926 285.278 46.076 285.126 46.272C284.978 46.468 284.866 46.71 284.79 46.998C284.718 47.282 284.682 47.604 284.682 47.964C284.682 48.684 284.83 49.246 285.126 49.65C285.426 50.05 285.88 50.25 286.488 50.25ZM292.495 51.096C292.015 51.096 291.645 50.962 291.385 50.694C291.129 50.426 291.001 50.04 291.001 49.536V45.816H290.269C290.205 45.816 290.151 45.798 290.107 45.762C290.063 45.722 290.041 45.662 290.041 45.582V45.156L291.037 45.03L291.283 43.152C291.295 43.092 291.321 43.044 291.361 43.008C291.405 42.968 291.461 42.948 291.529 42.948H292.069V45.042H293.827V45.816H292.069V49.464C292.069 49.72 292.131 49.91 292.255 50.034C292.379 50.158 292.539 50.22 292.735 50.22C292.847 50.22 292.943 50.206 293.023 50.178C293.107 50.146 293.179 50.112 293.239 50.076C293.299 50.04 293.349 50.008 293.389 49.98C293.433 49.948 293.471 49.932 293.503 49.932C293.559 49.932 293.609 49.966 293.653 50.034L293.965 50.544C293.781 50.716 293.559 50.852 293.299 50.952C293.039 51.048 292.771 51.096 292.495 51.096ZM302.65 43.746C302.614 43.806 302.574 43.852 302.53 43.884C302.49 43.912 302.44 43.926 302.38 43.926C302.312 43.926 302.232 43.892 302.14 43.824C302.048 43.756 301.932 43.682 301.792 43.602C301.656 43.518 301.49 43.442 301.294 43.374C301.102 43.306 300.868 43.272 300.592 43.272C300.332 43.272 300.102 43.308 299.902 43.38C299.706 43.448 299.54 43.542 299.404 43.662C299.272 43.782 299.172 43.924 299.104 44.088C299.036 44.248 299.002 44.422 299.002 44.61C299.002 44.85 299.06 45.05 299.176 45.21C299.296 45.366 299.452 45.5 299.644 45.612C299.84 45.724 300.06 45.822 300.304 45.906C300.552 45.986 300.804 46.07 301.06 46.158C301.32 46.246 301.572 46.346 301.816 46.458C302.064 46.566 302.284 46.704 302.476 46.872C302.672 47.04 302.828 47.246 302.944 47.49C303.064 47.734 303.124 48.034 303.124 48.39C303.124 48.766 303.06 49.12 302.932 49.452C302.804 49.78 302.616 50.066 302.368 50.31C302.124 50.554 301.822 50.746 301.462 50.886C301.106 51.026 300.7 51.096 300.244 51.096C299.684 51.096 299.176 50.996 298.72 50.796C298.264 50.592 297.874 50.318 297.55 49.974L297.886 49.422C297.918 49.378 297.956 49.342 298 49.314C298.048 49.282 298.1 49.266 298.156 49.266C298.208 49.266 298.266 49.288 298.33 49.332C298.398 49.372 298.474 49.424 298.558 49.488C298.642 49.552 298.738 49.622 298.846 49.698C298.954 49.774 299.076 49.844 299.212 49.908C299.352 49.972 299.51 50.026 299.686 50.07C299.862 50.11 300.06 50.13 300.28 50.13C300.556 50.13 300.802 50.092 301.018 50.016C301.234 49.94 301.416 49.834 301.564 49.698C301.716 49.558 301.832 49.392 301.912 49.2C301.992 49.008 302.032 48.794 302.032 48.558C302.032 48.298 301.972 48.086 301.852 47.922C301.736 47.754 301.582 47.614 301.39 47.502C301.198 47.39 300.978 47.296 300.73 47.22C300.482 47.14 300.23 47.06 299.974 46.98C299.718 46.896 299.466 46.8 299.218 46.692C298.97 46.584 298.75 46.444 298.558 46.272C298.366 46.1 298.21 45.886 298.09 45.63C297.974 45.37 297.916 45.05 297.916 44.67C297.916 44.366 297.974 44.072 298.09 43.788C298.21 43.504 298.382 43.252 298.606 43.032C298.834 42.812 299.112 42.636 299.44 42.504C299.772 42.372 300.152 42.306 300.58 42.306C301.06 42.306 301.496 42.382 301.888 42.534C302.284 42.686 302.632 42.906 302.932 43.194L302.65 43.746ZM308.549 47.298C308.549 47.05 308.513 46.824 308.441 46.62C308.373 46.412 308.271 46.234 308.135 46.086C308.003 45.934 307.841 45.818 307.649 45.738C307.457 45.654 307.239 45.612 306.995 45.612C306.483 45.612 306.077 45.762 305.777 46.062C305.481 46.358 305.297 46.77 305.225 47.298H308.549ZM309.413 50.148C309.281 50.308 309.123 50.448 308.939 50.568C308.755 50.684 308.557 50.78 308.345 50.856C308.137 50.932 307.921 50.988 307.697 51.024C307.473 51.064 307.251 51.084 307.031 51.084C306.611 51.084 306.223 51.014 305.867 50.874C305.515 50.73 305.209 50.522 304.949 50.25C304.693 49.974 304.493 49.634 304.349 49.23C304.205 48.826 304.133 48.362 304.133 47.838C304.133 47.414 304.197 47.018 304.325 46.65C304.457 46.282 304.645 45.964 304.889 45.696C305.133 45.424 305.431 45.212 305.783 45.06C306.135 44.904 306.531 44.826 306.971 44.826C307.335 44.826 307.671 44.888 307.979 45.012C308.291 45.132 308.559 45.308 308.783 45.54C309.011 45.768 309.189 46.052 309.317 46.392C309.445 46.728 309.509 47.112 309.509 47.544C309.509 47.712 309.491 47.824 309.455 47.88C309.419 47.936 309.351 47.964 309.251 47.964H305.189C305.201 48.348 305.253 48.682 305.345 48.966C305.441 49.25 305.573 49.488 305.741 49.68C305.909 49.868 306.109 50.01 306.341 50.106C306.573 50.198 306.833 50.244 307.121 50.244C307.389 50.244 307.619 50.214 307.811 50.154C308.007 50.09 308.175 50.022 308.315 49.95C308.455 49.878 308.571 49.812 308.663 49.752C308.759 49.688 308.841 49.656 308.909 49.656C308.997 49.656 309.065 49.69 309.113 49.758L309.413 50.148ZM311.924 42.162V51H310.856V42.162H311.924ZM314.76 42.162V51H313.692V42.162H314.76ZM328.761 42.402V51H327.741V44.682C327.741 44.598 327.743 44.508 327.747 44.412C327.755 44.316 327.763 44.218 327.771 44.118L324.819 49.494C324.727 49.674 324.587 49.764 324.399 49.764H324.231C324.043 49.764 323.903 49.674 323.811 49.494L320.799 44.094C320.823 44.306 320.835 44.502 320.835 44.682V51H319.815V42.402H320.673C320.777 42.402 320.857 42.412 320.913 42.432C320.969 42.452 321.023 42.508 321.075 42.6L324.045 47.892C324.093 47.988 324.139 48.088 324.183 48.192C324.231 48.296 324.275 48.402 324.315 48.51C324.355 48.402 324.397 48.296 324.441 48.192C324.485 48.084 324.533 47.982 324.585 47.886L327.501 42.6C327.549 42.508 327.601 42.452 327.657 42.432C327.717 42.412 327.799 42.402 327.903 42.402H328.761ZM335.81 44.922L332.42 52.794C332.384 52.874 332.338 52.938 332.282 52.986C332.23 53.034 332.148 53.058 332.036 53.058H331.244L332.354 50.646L329.846 44.922H330.77C330.862 44.922 330.934 44.946 330.986 44.994C331.042 45.038 331.08 45.088 331.1 45.144L332.726 48.972C332.79 49.14 332.844 49.316 332.888 49.5C332.944 49.312 333.004 49.134 333.068 48.966L334.646 45.144C334.67 45.08 334.71 45.028 334.766 44.988C334.826 44.944 334.892 44.922 334.964 44.922H335.81ZM340.947 51H339.783V42.402H340.947V51ZM343.809 45.804C343.941 45.656 344.081 45.522 344.229 45.402C344.377 45.282 344.533 45.18 344.697 45.096C344.865 45.008 345.041 44.942 345.225 44.898C345.413 44.85 345.615 44.826 345.831 44.826C346.163 44.826 346.455 44.882 346.707 44.994C346.963 45.102 347.175 45.258 347.343 45.462C347.515 45.662 347.645 45.904 347.733 46.188C347.821 46.472 347.865 46.786 347.865 47.13V51H346.791V47.13C346.791 46.67 346.685 46.314 346.473 46.062C346.265 45.806 345.947 45.678 345.519 45.678C345.203 45.678 344.907 45.754 344.631 45.906C344.359 46.058 344.107 46.264 343.875 46.524V51H342.801V44.922H343.443C343.595 44.922 343.689 44.996 343.725 45.144L343.809 45.804ZM349.794 51V45.834L349.122 45.756C349.038 45.736 348.968 45.706 348.912 45.666C348.86 45.622 348.834 45.56 348.834 45.48V45.042H349.794V44.454C349.794 44.106 349.842 43.798 349.938 43.53C350.038 43.258 350.178 43.03 350.358 42.846C350.542 42.658 350.762 42.516 351.018 42.42C351.274 42.324 351.562 42.276 351.882 42.276C352.154 42.276 352.404 42.316 352.632 42.396L352.608 42.93C352.6 43.026 352.546 43.078 352.446 43.086C352.35 43.094 352.22 43.098 352.056 43.098C351.872 43.098 351.704 43.122 351.552 43.17C351.404 43.218 351.276 43.296 351.168 43.404C351.06 43.512 350.976 43.654 350.916 43.83C350.86 44.006 350.832 44.224 350.832 44.484V45.042H352.584V45.816H350.868V51H349.794ZM355.968 44.826C356.412 44.826 356.812 44.9 357.168 45.048C357.524 45.196 357.828 45.406 358.08 45.678C358.332 45.95 358.524 46.28 358.656 46.668C358.792 47.052 358.86 47.482 358.86 47.958C358.86 48.438 358.792 48.87 358.656 49.254C358.524 49.638 358.332 49.966 358.08 50.238C357.828 50.51 357.524 50.72 357.168 50.868C356.812 51.012 356.412 51.084 355.968 51.084C355.52 51.084 355.116 51.012 354.756 50.868C354.4 50.72 354.096 50.51 353.844 50.238C353.592 49.966 353.398 49.638 353.262 49.254C353.13 48.87 353.064 48.438 353.064 47.958C353.064 47.482 353.13 47.052 353.262 46.668C353.398 46.28 353.592 45.95 353.844 45.678C354.096 45.406 354.4 45.196 354.756 45.048C355.116 44.9 355.52 44.826 355.968 44.826ZM355.968 50.25C356.568 50.25 357.016 50.05 357.312 49.65C357.608 49.246 357.756 48.684 357.756 47.964C357.756 47.24 357.608 46.676 357.312 46.272C357.016 45.868 356.568 45.666 355.968 45.666C355.664 45.666 355.398 45.718 355.17 45.822C354.946 45.926 354.758 46.076 354.606 46.272C354.458 46.468 354.346 46.71 354.27 46.998C354.198 47.282 354.162 47.604 354.162 47.964C354.162 48.684 354.31 49.246 354.606 49.65C354.906 50.05 355.36 50.25 355.968 50.25Z" fill="#555555"/>
</svg>
