<svg width="270" height="51" viewBox="0 0 270 51" fill="none" xmlns="http://www.w3.org/2000/svg">
<path d="M86.331 4.867C86.376 4.864 86.4165 4.8805 86.4525 4.9165L86.7225 5.2045C86.5515 5.4025 86.3415 5.557 86.0925 5.668C85.8465 5.776 85.5495 5.83 85.2015 5.83C84.9075 5.83 84.639 5.779 84.396 5.677C84.156 5.575 83.949 5.4325 83.775 5.2495C83.604 5.0665 83.4705 4.849 83.3745 4.597C83.2815 4.345 83.235 4.069 83.235 3.769C83.235 3.466 83.286 3.1885 83.388 2.9365C83.49 2.6815 83.6325 2.464 83.8155 2.284C83.9985 2.101 84.2145 1.96 84.4635 1.861C84.7155 1.759 84.9885 1.708 85.2825 1.708C85.6095 1.708 85.8855 1.759 86.1105 1.861C86.3385 1.96 86.538 2.0935 86.709 2.2615L86.502 2.554C86.487 2.572 86.4675 2.59 86.4435 2.608C86.4195 2.626 86.391 2.635 86.358 2.635C86.316 2.635 86.271 2.6185 86.223 2.5855C86.178 2.5525 86.118 2.5165 86.043 2.4775C85.968 2.4355 85.872 2.398 85.755 2.365C85.641 2.329 85.497 2.311 85.323 2.311C85.11 2.311 84.9195 2.3455 84.7515 2.4145C84.5835 2.4805 84.4395 2.5765 84.3195 2.7025C84.1995 2.8285 84.108 2.9815 84.045 3.1615C83.982 3.3415 83.9505 3.544 83.9505 3.769C83.9505 4 83.982 4.207 84.045 4.39C84.111 4.57 84.201 4.7215 84.315 4.8445C84.429 4.9675 84.564 5.062 84.72 5.128C84.879 5.191 85.0515 5.2225 85.2375 5.2225C85.3935 5.2225 85.524 5.2105 85.629 5.1865C85.734 5.1625 85.8255 5.134 85.9035 5.101C85.9845 5.065 86.0565 5.026 86.1195 4.984C86.1855 4.942 86.256 4.903 86.331 4.867ZM81.894 3.778C81.894 3.475 81.933 3.184 82.011 2.905C82.089 2.623 82.2 2.3605 82.344 2.1175C82.488 1.8715 82.659 1.6495 82.857 1.4515C83.058 1.2505 83.28 1.078 83.523 0.934C83.766 0.79 84.027 0.679 84.306 0.601C84.585 0.523 84.876 0.484 85.179 0.484C85.482 0.484 85.773 0.523 86.052 0.601C86.334 0.679 86.5965 0.79 86.8395 0.934C87.0825 1.078 87.3045 1.2505 87.5055 1.4515C87.7065 1.6495 87.8775 1.8715 88.0185 2.1175C88.1625 2.3605 88.2735 2.623 88.3515 2.905C88.4295 3.184 88.4685 3.475 88.4685 3.778C88.4685 4.078 88.4295 4.369 88.3515 4.651C88.2735 4.93 88.1625 5.191 88.0185 5.434C87.8775 5.677 87.7065 5.899 87.5055 6.1C87.3045 6.298 87.0825 6.469 86.8395 6.613C86.5965 6.757 86.334 6.868 86.052 6.946C85.773 7.024 85.482 7.063 85.179 7.063C84.876 7.063 84.585 7.024 84.306 6.946C84.027 6.868 83.766 6.757 83.523 6.613C83.28 6.469 83.058 6.298 82.857 6.1C82.659 5.899 82.488 5.677 82.344 5.434C82.2 5.191 82.089 4.93 82.011 4.651C81.933 4.372 81.894 4.081 81.894 3.778ZM82.3485 3.778C82.3485 4.045 82.3815 4.3015 82.4475 4.5475C82.5135 4.7935 82.6065 5.0245 82.7265 5.2405C82.8495 5.4535 82.9965 5.647 83.1675 5.821C83.3415 5.995 83.532 6.145 83.739 6.271C83.949 6.394 84.1755 6.49 84.4185 6.559C84.6615 6.625 84.915 6.658 85.179 6.658C85.443 6.658 85.6965 6.625 85.9395 6.559C86.1855 6.49 86.4135 6.394 86.6235 6.271C86.8365 6.145 87.0285 5.995 87.1995 5.821C87.3735 5.647 87.522 5.4535 87.645 5.2405C87.768 5.0245 87.8625 4.7935 87.9285 4.5475C87.9975 4.3015 88.032 4.045 88.032 3.778C88.032 3.376 87.957 2.9995 87.807 2.6485C87.66 2.2945 87.4575 1.987 87.1995 1.726C86.9445 1.462 86.643 1.255 86.295 1.105C85.947 0.952 85.575 0.8755 85.179 0.8755C84.915 0.8755 84.6615 0.91 84.4185 0.979C84.1755 1.048 83.949 1.1455 83.739 1.2715C83.532 1.3945 83.3415 1.5445 83.1675 1.7215C82.9965 1.8985 82.8495 2.095 82.7265 2.311C82.6065 2.524 82.5135 2.755 82.4475 3.004C82.3815 3.253 82.3485 3.511 82.3485 3.778ZM93.3604 6.2395C93.4474 6.2395 93.5164 6.265 93.5674 6.316C93.6184 6.367 93.6439 6.433 93.6439 6.514V7H89.3419V6.7255C89.3419 6.6685 89.3539 6.61 89.3779 6.55C89.4019 6.49 89.4394 6.4345 89.4904 6.3835L91.5559 4.309C91.7269 4.135 91.8829 3.9685 92.0239 3.8095C92.1649 3.6475 92.2849 3.4855 92.3839 3.3235C92.4829 3.1615 92.5594 2.998 92.6134 2.833C92.6674 2.665 92.6944 2.4865 92.6944 2.2975C92.6944 2.1085 92.6644 1.9435 92.6044 1.8025C92.5444 1.6585 92.4619 1.54 92.3569 1.447C92.2549 1.354 92.1334 1.285 91.9924 1.24C91.8514 1.192 91.6999 1.168 91.5379 1.168C91.3729 1.168 91.2214 1.192 91.0834 1.24C90.9454 1.288 90.8224 1.3555 90.7144 1.4425C90.6094 1.5265 90.5209 1.627 90.4489 1.744C90.3769 1.861 90.3259 1.99 90.2959 2.131C90.2599 2.236 90.2104 2.3065 90.1474 2.3425C90.0874 2.3755 90.0019 2.3845 89.8909 2.3695L89.4724 2.2975C89.5144 2.0035 89.5954 1.744 89.7154 1.519C89.8384 1.291 89.9914 1.1005 90.1744 0.9475C90.3604 0.7945 90.5719 0.679 90.8089 0.601C91.0459 0.52 91.3024 0.479499 91.5784 0.479499C91.8514 0.479499 92.1064 0.52 92.3434 0.601C92.5804 0.682 92.7859 0.8005 92.9599 0.9565C93.1339 1.1095 93.2704 1.297 93.3694 1.519C93.4684 1.741 93.5179 1.993 93.5179 2.275C93.5179 2.515 93.4819 2.7385 93.4099 2.9455C93.3379 3.1495 93.2404 3.3445 93.1174 3.5305C92.9944 3.7165 92.8519 3.898 92.6899 4.075C92.5309 4.252 92.3614 4.4305 92.1814 4.6105L90.4804 6.3475C90.6004 6.3145 90.7219 6.289 90.8449 6.271C90.9679 6.25 91.0864 6.2395 91.2004 6.2395H93.3604ZM99.0896 3.778C99.0896 4.342 99.0281 4.831 98.9051 5.245C98.7851 5.656 98.6201 5.9965 98.4101 6.2665C98.2001 6.5365 97.9511 6.7375 97.6631 6.8695C97.3781 7.0015 97.0721 7.0675 96.7451 7.0675C96.4151 7.0675 96.1076 7.0015 95.8226 6.8695C95.5406 6.7375 95.2946 6.5365 95.0846 6.2665C94.8746 5.9965 94.7096 5.656 94.5896 5.245C94.4696 4.831 94.4096 4.342 94.4096 3.778C94.4096 3.214 94.4696 2.725 94.5896 2.311C94.7096 1.897 94.8746 1.555 95.0846 1.285C95.2946 1.012 95.5406 0.8095 95.8226 0.6775C96.1076 0.5455 96.4151 0.479499 96.7451 0.479499C97.0721 0.479499 97.3781 0.5455 97.6631 0.6775C97.9511 0.8095 98.2001 1.012 98.4101 1.285C98.6201 1.555 98.7851 1.897 98.9051 2.311C99.0281 2.725 99.0896 3.214 99.0896 3.778ZM98.2571 3.778C98.2571 3.286 98.2151 2.8735 98.1311 2.5405C98.0501 2.2045 97.9391 1.9345 97.7981 1.7305C97.6601 1.5265 97.4996 1.381 97.3166 1.294C97.1336 1.204 96.9431 1.159 96.7451 1.159C96.5471 1.159 96.3566 1.204 96.1736 1.294C95.9906 1.381 95.8301 1.5265 95.6921 1.7305C95.5541 1.9345 95.4431 2.2045 95.3591 2.5405C95.2781 2.8735 95.2376 3.286 95.2376 3.778C95.2376 4.27 95.2781 4.6825 95.3591 5.0155C95.4431 5.3485 95.5541 5.617 95.6921 5.821C95.8301 6.025 95.9906 6.172 96.1736 6.262C96.3566 6.349 96.5471 6.3925 96.7451 6.3925C96.9431 6.3925 97.1336 6.349 97.3166 6.262C97.4996 6.172 97.6601 6.025 97.7981 5.821C97.9391 5.617 98.0501 5.3485 98.1311 5.0155C98.2151 4.6825 98.2571 4.27 98.2571 3.778ZM103.802 6.2395C103.889 6.2395 103.958 6.265 104.009 6.316C104.06 6.367 104.085 6.433 104.085 6.514V7H99.7834V6.7255C99.7834 6.6685 99.7954 6.61 99.8194 6.55C99.8434 6.49 99.8809 6.4345 99.9319 6.3835L101.997 4.309C102.168 4.135 102.324 3.9685 102.465 3.8095C102.606 3.6475 102.726 3.4855 102.825 3.3235C102.924 3.1615 103.001 2.998 103.055 2.833C103.109 2.665 103.136 2.4865 103.136 2.2975C103.136 2.1085 103.106 1.9435 103.046 1.8025C102.986 1.6585 102.903 1.54 102.798 1.447C102.696 1.354 102.575 1.285 102.434 1.24C102.293 1.192 102.141 1.168 101.979 1.168C101.814 1.168 101.663 1.192 101.525 1.24C101.387 1.288 101.264 1.3555 101.156 1.4425C101.051 1.5265 100.962 1.627 100.89 1.744C100.818 1.861 100.767 1.99 100.737 2.131C100.701 2.236 100.652 2.3065 100.589 2.3425C100.529 2.3755 100.443 2.3845 100.332 2.3695L99.9139 2.2975C99.9559 2.0035 100.037 1.744 100.157 1.519C100.28 1.291 100.433 1.1005 100.616 0.9475C100.802 0.7945 101.013 0.679 101.25 0.601C101.487 0.52 101.744 0.479499 102.02 0.479499C102.293 0.479499 102.548 0.52 102.785 0.601C103.022 0.682 103.227 0.8005 103.401 0.9565C103.575 1.1095 103.712 1.297 103.811 1.519C103.91 1.741 103.959 1.993 103.959 2.275C103.959 2.515 103.923 2.7385 103.851 2.9455C103.779 3.1495 103.682 3.3445 103.559 3.5305C103.436 3.7165 103.293 3.898 103.131 4.075C102.972 4.252 102.803 4.4305 102.623 4.6105L100.922 6.3475C101.042 6.3145 101.163 6.289 101.286 6.271C101.409 6.25 101.528 6.2395 101.642 6.2395H103.802ZM109.023 6.2395C109.11 6.2395 109.179 6.265 109.23 6.316C109.281 6.367 109.306 6.433 109.306 6.514V7H105.004V6.7255C105.004 6.6685 105.016 6.61 105.04 6.55C105.064 6.49 105.102 6.4345 105.153 6.3835L107.218 4.309C107.389 4.135 107.545 3.9685 107.686 3.8095C107.827 3.6475 107.947 3.4855 108.046 3.3235C108.145 3.1615 108.222 2.998 108.276 2.833C108.33 2.665 108.357 2.4865 108.357 2.2975C108.357 2.1085 108.327 1.9435 108.267 1.8025C108.207 1.6585 108.124 1.54 108.019 1.447C107.917 1.354 107.796 1.285 107.655 1.24C107.514 1.192 107.362 1.168 107.2 1.168C107.035 1.168 106.884 1.192 106.746 1.24C106.608 1.288 106.485 1.3555 106.377 1.4425C106.272 1.5265 106.183 1.627 106.111 1.744C106.039 1.861 105.988 1.99 105.958 2.131C105.922 2.236 105.873 2.3065 105.81 2.3425C105.75 2.3755 105.664 2.3845 105.553 2.3695L105.135 2.2975C105.177 2.0035 105.258 1.744 105.378 1.519C105.501 1.291 105.654 1.1005 105.837 0.9475C106.023 0.7945 106.234 0.679 106.471 0.601C106.708 0.52 106.965 0.479499 107.241 0.479499C107.514 0.479499 107.769 0.52 108.006 0.601C108.243 0.682 108.448 0.8005 108.622 0.9565C108.796 1.1095 108.933 1.297 109.032 1.519C109.131 1.741 109.18 1.993 109.18 2.275C109.18 2.515 109.144 2.7385 109.072 2.9455C109 3.1495 108.903 3.3445 108.78 3.5305C108.657 3.7165 108.514 3.898 108.352 4.075C108.193 4.252 108.024 4.4305 107.844 4.6105L106.143 6.3475C106.263 6.3145 106.384 6.289 106.507 6.271C106.63 6.25 106.749 6.2395 106.863 6.2395H109.023ZM114.714 3.6745C114.966 3.6745 115.188 3.6445 115.38 3.5845C115.575 3.5215 115.737 3.4345 115.866 3.3235C115.998 3.2095 116.097 3.0745 116.163 2.9185C116.229 2.7625 116.262 2.59 116.262 2.401C116.262 2.017 116.136 1.7275 115.884 1.5325C115.632 1.3375 115.254 1.24 114.75 1.24H113.796V3.6745H114.714ZM117.693 7H116.919C116.76 7 116.643 6.9385 116.568 6.8155L114.894 4.5115C114.843 4.4395 114.788 4.3885 114.728 4.3585C114.671 4.3255 114.581 4.309 114.458 4.309H113.796V7H112.928V0.5515H114.75C115.158 0.5515 115.511 0.5935 115.808 0.6775C116.105 0.7585 116.349 0.877 116.541 1.033C116.736 1.189 116.88 1.378 116.973 1.6C117.066 1.819 117.113 2.065 117.113 2.338C117.113 2.566 117.077 2.779 117.005 2.977C116.933 3.175 116.828 3.3535 116.69 3.5125C116.555 3.6685 116.388 3.802 116.19 3.913C115.995 4.024 115.773 4.108 115.524 4.165C115.635 4.228 115.731 4.3195 115.812 4.4395L117.693 7ZM121.143 4.2235C121.143 4.0375 121.116 3.868 121.062 3.715C121.011 3.559 120.934 3.4255 120.832 3.3145C120.733 3.2005 120.612 3.1135 120.468 3.0535C120.324 2.9905 120.16 2.959 119.977 2.959C119.593 2.959 119.289 3.0715 119.064 3.2965C118.842 3.5185 118.704 3.8275 118.65 4.2235H121.143ZM121.791 6.361C121.692 6.481 121.573 6.586 121.435 6.676C121.297 6.763 121.149 6.835 120.99 6.892C120.834 6.949 120.672 6.991 120.504 7.018C120.336 7.048 120.169 7.063 120.004 7.063C119.689 7.063 119.398 7.0105 119.131 6.9055C118.867 6.7975 118.638 6.6415 118.443 6.4375C118.251 6.2305 118.101 5.9755 117.993 5.6725C117.885 5.3695 117.831 5.0215 117.831 4.6285C117.831 4.3105 117.879 4.0135 117.975 3.7375C118.074 3.4615 118.215 3.223 118.398 3.022C118.581 2.818 118.804 2.659 119.068 2.545C119.332 2.428 119.629 2.3695 119.959 2.3695C120.232 2.3695 120.484 2.416 120.715 2.509C120.949 2.599 121.15 2.731 121.318 2.905C121.489 3.076 121.623 3.289 121.719 3.544C121.815 3.796 121.863 4.084 121.863 4.408C121.863 4.534 121.849 4.618 121.822 4.66C121.795 4.702 121.744 4.723 121.669 4.723H118.623C118.632 5.011 118.671 5.2615 118.74 5.4745C118.812 5.6875 118.911 5.866 119.037 6.01C119.163 6.151 119.313 6.2575 119.487 6.3295C119.661 6.3985 119.856 6.433 120.072 6.433C120.273 6.433 120.445 6.4105 120.589 6.3655C120.736 6.3175 120.862 6.2665 120.967 6.2125C121.072 6.1585 121.159 6.109 121.228 6.064C121.3 6.016 121.362 5.992 121.413 5.992C121.479 5.992 121.53 6.0175 121.566 6.0685L121.791 6.361ZM122.846 7V2.4415H123.328C123.442 2.4415 123.512 2.497 123.539 2.608L123.598 3.076C123.766 2.869 123.955 2.6995 124.165 2.5675C124.375 2.4355 124.618 2.3695 124.894 2.3695C125.2 2.3695 125.447 2.455 125.636 2.626C125.828 2.797 125.966 3.028 126.05 3.319C126.116 3.154 126.2 3.0115 126.302 2.8915C126.407 2.7715 126.524 2.6725 126.653 2.5945C126.782 2.5165 126.919 2.4595 127.063 2.4235C127.21 2.3875 127.358 2.3695 127.508 2.3695C127.748 2.3695 127.961 2.4085 128.147 2.4865C128.336 2.5615 128.495 2.6725 128.624 2.8195C128.756 2.9665 128.857 3.148 128.926 3.364C128.995 3.577 129.029 3.8215 129.029 4.0975V7H128.224V4.0975C128.224 3.7405 128.146 3.4705 127.99 3.2875C127.834 3.1015 127.609 3.0085 127.315 3.0085C127.183 3.0085 127.057 3.0325 126.937 3.0805C126.82 3.1255 126.716 3.193 126.626 3.283C126.536 3.373 126.464 3.487 126.41 3.625C126.359 3.76 126.334 3.9175 126.334 4.0975V7H125.528V4.0975C125.528 3.7315 125.455 3.4585 125.308 3.2785C125.161 3.0985 124.946 3.0085 124.664 3.0085C124.466 3.0085 124.283 3.0625 124.115 3.1705C123.947 3.2755 123.793 3.4195 123.652 3.6025V7H122.846ZM132.168 2.3695C132.501 2.3695 132.801 2.425 133.068 2.536C133.335 2.647 133.563 2.8045 133.752 3.0085C133.941 3.2125 134.085 3.46 134.184 3.751C134.286 4.039 134.337 4.3615 134.337 4.7185C134.337 5.0785 134.286 5.4025 134.184 5.6905C134.085 5.9785 133.941 6.2245 133.752 6.4285C133.563 6.6325 133.335 6.79 133.068 6.901C132.801 7.009 132.501 7.063 132.168 7.063C131.832 7.063 131.529 7.009 131.259 6.901C130.992 6.79 130.764 6.6325 130.575 6.4285C130.386 6.2245 130.241 5.9785 130.139 5.6905C130.04 5.4025 129.99 5.0785 129.99 4.7185C129.99 4.3615 130.04 4.039 130.139 3.751C130.241 3.46 130.386 3.2125 130.575 3.0085C130.764 2.8045 130.992 2.647 131.259 2.536C131.529 2.425 131.832 2.3695 132.168 2.3695ZM132.168 6.4375C132.618 6.4375 132.954 6.2875 133.176 5.9875C133.398 5.6845 133.509 5.263 133.509 4.723C133.509 4.18 133.398 3.757 133.176 3.454C132.954 3.151 132.618 2.9995 132.168 2.9995C131.94 2.9995 131.741 3.0385 131.57 3.1165C131.402 3.1945 131.261 3.307 131.147 3.454C131.036 3.601 130.952 3.7825 130.895 3.9985C130.841 4.2115 130.814 4.453 130.814 4.723C130.814 5.263 130.925 5.6845 131.147 5.9875C131.372 6.2875 131.712 6.4375 132.168 6.4375ZM138.323 3.526C138.173 3.325 138.011 3.1855 137.837 3.1075C137.663 3.0265 137.468 2.986 137.252 2.986C136.829 2.986 136.504 3.1375 136.276 3.4405C136.048 3.7435 135.934 4.1755 135.934 4.7365C135.934 5.0335 135.959 5.2885 136.01 5.5015C136.061 5.7115 136.136 5.8855 136.235 6.0235C136.334 6.1585 136.456 6.2575 136.6 6.3205C136.744 6.3835 136.907 6.415 137.09 6.415C137.354 6.415 137.584 6.355 137.779 6.235C137.977 6.115 138.158 5.9455 138.323 5.7265V3.526ZM139.124 0.3715V7H138.647C138.533 7 138.461 6.9445 138.431 6.8335L138.359 6.28C138.164 6.514 137.942 6.703 137.693 6.847C137.444 6.991 137.156 7.063 136.829 7.063C136.568 7.063 136.331 7.0135 136.118 6.9145C135.905 6.8125 135.724 6.664 135.574 6.469C135.424 6.274 135.308 6.031 135.227 5.74C135.146 5.449 135.106 5.1145 135.106 4.7365C135.106 4.4005 135.151 4.0885 135.241 3.8005C135.331 3.5095 135.46 3.2575 135.628 3.0445C135.796 2.8315 136.001 2.665 136.244 2.545C136.49 2.422 136.766 2.3605 137.072 2.3605C137.351 2.3605 137.59 2.4085 137.788 2.5045C137.989 2.5975 138.167 2.728 138.323 2.896V0.3715H139.124ZM143.44 4.2235C143.44 4.0375 143.413 3.868 143.359 3.715C143.308 3.559 143.232 3.4255 143.13 3.3145C143.031 3.2005 142.909 3.1135 142.765 3.0535C142.621 2.9905 142.458 2.959 142.275 2.959C141.891 2.959 141.586 3.0715 141.361 3.2965C141.139 3.5185 141.001 3.8275 140.947 4.2235H143.44ZM144.088 6.361C143.989 6.481 143.871 6.586 143.733 6.676C143.595 6.763 143.446 6.835 143.287 6.892C143.131 6.949 142.969 6.991 142.801 7.018C142.633 7.048 142.467 7.063 142.302 7.063C141.987 7.063 141.696 7.0105 141.429 6.9055C141.165 6.7975 140.935 6.6415 140.74 6.4375C140.548 6.2305 140.398 5.9755 140.29 5.6725C140.182 5.3695 140.128 5.0215 140.128 4.6285C140.128 4.3105 140.176 4.0135 140.272 3.7375C140.371 3.4615 140.512 3.223 140.695 3.022C140.878 2.818 141.102 2.659 141.366 2.545C141.63 2.428 141.927 2.3695 142.257 2.3695C142.53 2.3695 142.782 2.416 143.013 2.509C143.247 2.599 143.448 2.731 143.616 2.905C143.787 3.076 143.92 3.289 144.016 3.544C144.112 3.796 144.16 4.084 144.16 4.408C144.16 4.534 144.147 4.618 144.12 4.66C144.093 4.702 144.042 4.723 143.967 4.723H140.92C140.929 5.011 140.968 5.2615 141.037 5.4745C141.109 5.6875 141.208 5.866 141.334 6.01C141.46 6.151 141.61 6.2575 141.784 6.3295C141.958 6.3985 142.153 6.433 142.369 6.433C142.57 6.433 142.743 6.4105 142.887 6.3655C143.034 6.3175 143.16 6.2665 143.265 6.2125C143.37 6.1585 143.457 6.109 143.526 6.064C143.598 6.016 143.659 5.992 143.71 5.992C143.776 5.992 143.827 6.0175 143.863 6.0685L144.088 6.361ZM145.972 0.3715V7H145.171V0.3715H145.972ZM149.855 4.4305V7H148.982V4.4305L146.619 0.5515H147.384C147.462 0.5515 147.524 0.571 147.569 0.61C147.614 0.646 147.653 0.694 147.686 0.754L149.162 3.2605C149.216 3.3655 149.265 3.4645 149.31 3.5575C149.355 3.6475 149.394 3.739 149.427 3.832C149.46 3.739 149.498 3.6475 149.54 3.5575C149.582 3.4645 149.628 3.3655 149.679 3.2605L151.151 0.754C151.178 0.703 151.215 0.6565 151.263 0.6145C151.311 0.5725 151.373 0.5515 151.448 0.5515H152.217L149.855 4.4305ZM153.798 2.3695C154.131 2.3695 154.431 2.425 154.698 2.536C154.965 2.647 155.193 2.8045 155.382 3.0085C155.571 3.2125 155.715 3.46 155.814 3.751C155.916 4.039 155.967 4.3615 155.967 4.7185C155.967 5.0785 155.916 5.4025 155.814 5.6905C155.715 5.9785 155.571 6.2245 155.382 6.4285C155.193 6.6325 154.965 6.79 154.698 6.901C154.431 7.009 154.131 7.063 153.798 7.063C153.462 7.063 153.159 7.009 152.889 6.901C152.622 6.79 152.394 6.6325 152.205 6.4285C152.016 6.2245 151.871 5.9785 151.769 5.6905C151.67 5.4025 151.62 5.0785 151.62 4.7185C151.62 4.3615 151.67 4.039 151.769 3.751C151.871 3.46 152.016 3.2125 152.205 3.0085C152.394 2.8045 152.622 2.647 152.889 2.536C153.159 2.425 153.462 2.3695 153.798 2.3695ZM153.798 6.4375C154.248 6.4375 154.584 6.2875 154.806 5.9875C155.028 5.6845 155.139 5.263 155.139 4.723C155.139 4.18 155.028 3.757 154.806 3.454C154.584 3.151 154.248 2.9995 153.798 2.9995C153.57 2.9995 153.371 3.0385 153.2 3.1165C153.032 3.1945 152.891 3.307 152.777 3.454C152.666 3.601 152.582 3.7825 152.525 3.9985C152.471 4.2115 152.444 4.453 152.444 4.723C152.444 5.263 152.555 5.6845 152.777 5.9875C153.002 6.2875 153.342 6.4375 153.798 6.4375ZM160.732 2.4415V7H160.255C160.141 7 160.069 6.9445 160.039 6.8335L159.976 6.343C159.778 6.562 159.556 6.739 159.31 6.874C159.064 7.006 158.782 7.072 158.464 7.072C158.215 7.072 157.994 7.0315 157.802 6.9505C157.613 6.8665 157.454 6.7495 157.325 6.5995C157.196 6.4495 157.099 6.268 157.033 6.055C156.97 5.842 156.938 5.6065 156.938 5.3485V2.4415H157.739V5.3485C157.739 5.6935 157.817 5.9605 157.973 6.1495C158.132 6.3385 158.374 6.433 158.698 6.433C158.935 6.433 159.155 6.3775 159.359 6.2665C159.566 6.1525 159.757 5.9965 159.931 5.7985V2.4415H160.732ZM162.762 3.355C162.906 3.043 163.083 2.8 163.293 2.626C163.503 2.449 163.76 2.3605 164.063 2.3605C164.159 2.3605 164.25 2.371 164.337 2.392C164.427 2.413 164.507 2.446 164.576 2.491L164.517 3.0895C164.499 3.1645 164.454 3.202 164.382 3.202C164.34 3.202 164.279 3.193 164.198 3.175C164.117 3.157 164.025 3.148 163.923 3.148C163.779 3.148 163.65 3.169 163.536 3.211C163.425 3.253 163.325 3.316 163.235 3.4C163.148 3.481 163.068 3.583 162.996 3.706C162.927 3.826 162.864 3.964 162.807 4.12V7H162.002V2.4415H162.461C162.548 2.4415 162.608 2.458 162.641 2.491C162.674 2.524 162.696 2.581 162.708 2.662L162.762 3.355ZM170.614 0.5515V7H169.741V4.066H166.263V7H165.39V0.5515H166.263V3.427H169.741V0.5515H170.614ZM173.855 2.3695C174.188 2.3695 174.488 2.425 174.755 2.536C175.022 2.647 175.25 2.8045 175.439 3.0085C175.628 3.2125 175.772 3.46 175.871 3.751C175.973 4.039 176.024 4.3615 176.024 4.7185C176.024 5.0785 175.973 5.4025 175.871 5.6905C175.772 5.9785 175.628 6.2245 175.439 6.4285C175.25 6.6325 175.022 6.79 174.755 6.901C174.488 7.009 174.188 7.063 173.855 7.063C173.519 7.063 173.216 7.009 172.946 6.901C172.679 6.79 172.451 6.6325 172.262 6.4285C172.073 6.2245 171.927 5.9785 171.825 5.6905C171.726 5.4025 171.677 5.0785 171.677 4.7185C171.677 4.3615 171.726 4.039 171.825 3.751C171.927 3.46 172.073 3.2125 172.262 3.0085C172.451 2.8045 172.679 2.647 172.946 2.536C173.216 2.425 173.519 2.3695 173.855 2.3695ZM173.855 6.4375C174.305 6.4375 174.641 6.2875 174.863 5.9875C175.085 5.6845 175.196 5.263 175.196 4.723C175.196 4.18 175.085 3.757 174.863 3.454C174.641 3.151 174.305 2.9995 173.855 2.9995C173.627 2.9995 173.427 3.0385 173.256 3.1165C173.088 3.1945 172.947 3.307 172.833 3.454C172.722 3.601 172.638 3.7825 172.581 3.9985C172.527 4.2115 172.5 4.453 172.5 4.723C172.5 5.263 172.611 5.6845 172.833 5.9875C173.058 6.2875 173.399 6.4375 173.855 6.4375ZM177.04 7V2.4415H177.521C177.635 2.4415 177.706 2.497 177.733 2.608L177.791 3.076C177.959 2.869 178.148 2.6995 178.358 2.5675C178.568 2.4355 178.811 2.3695 179.087 2.3695C179.393 2.3695 179.641 2.455 179.83 2.626C180.022 2.797 180.16 3.028 180.244 3.319C180.31 3.154 180.394 3.0115 180.496 2.8915C180.601 2.7715 180.718 2.6725 180.847 2.5945C180.976 2.5165 181.112 2.4595 181.256 2.4235C181.403 2.3875 181.552 2.3695 181.702 2.3695C181.942 2.3695 182.155 2.4085 182.341 2.4865C182.53 2.5615 182.689 2.6725 182.818 2.8195C182.95 2.9665 183.05 3.148 183.119 3.364C183.188 3.577 183.223 3.8215 183.223 4.0975V7H182.417V4.0975C182.417 3.7405 182.339 3.4705 182.183 3.2875C182.027 3.1015 181.802 3.0085 181.508 3.0085C181.376 3.0085 181.25 3.0325 181.13 3.0805C181.013 3.1255 180.91 3.193 180.82 3.283C180.73 3.373 180.658 3.487 180.604 3.625C180.553 3.76 180.527 3.9175 180.527 4.0975V7H179.722V4.0975C179.722 3.7315 179.648 3.4585 179.501 3.2785C179.354 3.0985 179.14 3.0085 178.858 3.0085C178.66 3.0085 178.477 3.0625 178.309 3.1705C178.141 3.2755 177.986 3.4195 177.845 3.6025V7H177.04ZM187.491 4.2235C187.491 4.0375 187.464 3.868 187.41 3.715C187.359 3.559 187.283 3.4255 187.181 3.3145C187.082 3.2005 186.96 3.1135 186.816 3.0535C186.672 2.9905 186.509 2.959 186.326 2.959C185.942 2.959 185.637 3.0715 185.412 3.2965C185.19 3.5185 185.052 3.8275 184.998 4.2235H187.491ZM188.139 6.361C188.04 6.481 187.922 6.586 187.784 6.676C187.646 6.763 187.497 6.835 187.338 6.892C187.182 6.949 187.02 6.991 186.852 7.018C186.684 7.048 186.518 7.063 186.353 7.063C186.038 7.063 185.747 7.0105 185.48 6.9055C185.216 6.7975 184.986 6.6415 184.791 6.4375C184.599 6.2305 184.449 5.9755 184.341 5.6725C184.233 5.3695 184.179 5.0215 184.179 4.6285C184.179 4.3105 184.227 4.0135 184.323 3.7375C184.422 3.4615 184.563 3.223 184.746 3.022C184.929 2.818 185.153 2.659 185.417 2.545C185.681 2.428 185.978 2.3695 186.308 2.3695C186.581 2.3695 186.833 2.416 187.064 2.509C187.298 2.599 187.499 2.731 187.667 2.905C187.838 3.076 187.971 3.289 188.067 3.544C188.163 3.796 188.211 4.084 188.211 4.408C188.211 4.534 188.198 4.618 188.171 4.66C188.144 4.702 188.093 4.723 188.018 4.723H184.971C184.98 5.011 185.019 5.2615 185.088 5.4745C185.16 5.6875 185.259 5.866 185.385 6.01C185.511 6.151 185.661 6.2575 185.835 6.3295C186.009 6.3985 186.204 6.433 186.42 6.433C186.621 6.433 186.794 6.4105 186.938 6.3655C187.085 6.3175 187.211 6.2665 187.316 6.2125C187.421 6.1585 187.508 6.109 187.577 6.064C187.649 6.016 187.71 5.992 187.761 5.992C187.827 5.992 187.878 6.0175 187.914 6.0685L188.139 6.361ZM81.7934 31.895C82.0424 31.895 82.2614 31.862 82.4504 31.796C82.6424 31.73 82.8029 31.6385 82.9319 31.5215C83.0639 31.4015 83.1629 31.259 83.2289 31.094C83.2949 30.929 83.3279 30.7475 83.3279 30.5495C83.3279 30.1385 83.2004 29.8175 82.9454 29.5865C82.6934 29.3555 82.3094 29.24 81.7934 29.24H80.7584V31.895H81.7934ZM81.7934 28.5515C82.2014 28.5515 82.5554 28.5995 82.8554 28.6955C83.1584 28.7885 83.4089 28.922 83.6069 29.096C83.8049 29.27 83.9519 29.48 84.0479 29.726C84.1469 29.972 84.1964 30.2465 84.1964 30.5495C84.1964 30.8495 84.1439 31.124 84.0389 31.373C83.9339 31.622 83.7794 31.8365 83.5754 32.0165C83.3744 32.1965 83.1239 32.3375 82.8239 32.4395C82.5269 32.5385 82.1834 32.588 81.7934 32.588H80.7584V35H79.8899V28.5515H81.7934ZM85.7788 31.355C85.9228 31.043 86.0998 30.8 86.3098 30.626C86.5198 30.449 86.7763 30.3605 87.0793 30.3605C87.1753 30.3605 87.2668 30.371 87.3538 30.392C87.4438 30.413 87.5233 30.446 87.5923 30.491L87.5338 31.0895C87.5158 31.1645 87.4708 31.202 87.3988 31.202C87.3568 31.202 87.2953 31.193 87.2143 31.175C87.1333 31.157 87.0418 31.148 86.9398 31.148C86.7958 31.148 86.6668 31.169 86.5528 31.211C86.4418 31.253 86.3413 31.316 86.2513 31.4C86.1643 31.481 86.0848 31.583 86.0128 31.706C85.9438 31.826 85.8808 31.964 85.8238 32.12V35H85.0183V30.4415H85.4773C85.5643 30.4415 85.6243 30.458 85.6573 30.491C85.6903 30.524 85.7128 30.581 85.7248 30.662L85.7788 31.355ZM89.1426 30.4415V35H88.3416V30.4415H89.1426ZM89.3136 29.0105C89.3136 29.0885 89.2971 29.162 89.2641 29.231C89.2341 29.297 89.1921 29.357 89.1381 29.411C89.0871 29.462 89.0256 29.5025 88.9536 29.5325C88.8846 29.5625 88.8111 29.5775 88.7331 29.5775C88.6551 29.5775 88.5816 29.5625 88.5126 29.5325C88.4466 29.5025 88.3881 29.462 88.3371 29.411C88.2861 29.357 88.2456 29.297 88.2156 29.231C88.1856 29.162 88.1706 29.0885 88.1706 29.0105C88.1706 28.9325 88.1856 28.859 88.2156 28.79C88.2456 28.718 88.2861 28.6565 88.3371 28.6055C88.3881 28.5515 88.4466 28.5095 88.5126 28.4795C88.5816 28.4495 88.6551 28.4345 88.7331 28.4345C88.8111 28.4345 88.8846 28.4495 88.9536 28.4795C89.0256 28.5095 89.0871 28.5515 89.1381 28.6055C89.1921 28.6565 89.2341 28.718 89.2641 28.79C89.2971 28.859 89.3136 28.9325 89.3136 29.0105ZM94.3647 30.4415L92.5062 35H91.7862L89.9277 30.4415H90.5802C90.6462 30.4415 90.7002 30.458 90.7422 30.491C90.7842 30.524 90.8127 30.563 90.8277 30.608L91.9842 33.542C92.0202 33.653 92.0517 33.761 92.0787 33.866C92.1057 33.971 92.1312 34.076 92.1552 34.181C92.1792 34.076 92.2047 33.971 92.2317 33.866C92.2587 33.761 92.2917 33.653 92.3307 33.542L93.5007 30.608C93.5187 30.56 93.5487 30.521 93.5907 30.491C93.6327 30.458 93.6822 30.4415 93.7392 30.4415H94.3647ZM97.4732 32.948C97.1042 32.96 96.7892 32.99 96.5282 33.038C96.2702 33.083 96.0587 33.143 95.8937 33.218C95.7317 33.293 95.6132 33.3815 95.5382 33.4835C95.4662 33.5855 95.4302 33.6995 95.4302 33.8255C95.4302 33.9455 95.4497 34.049 95.4887 34.136C95.5277 34.223 95.5802 34.295 95.6462 34.352C95.7152 34.406 95.7947 34.4465 95.8847 34.4735C95.9777 34.4975 96.0767 34.5095 96.1817 34.5095C96.3227 34.5095 96.4517 34.496 96.5687 34.469C96.6857 34.439 96.7952 34.397 96.8972 34.343C97.0022 34.289 97.1012 34.2245 97.1942 34.1495C97.2902 34.0745 97.3832 33.989 97.4732 33.893V32.948ZM94.8857 31.085C95.1377 30.842 95.4092 30.6605 95.7002 30.5405C95.9912 30.4205 96.3137 30.3605 96.6677 30.3605C96.9227 30.3605 97.1492 30.4025 97.3472 30.4865C97.5452 30.5705 97.7117 30.6875 97.8467 30.8375C97.9817 30.9875 98.0837 31.169 98.1527 31.382C98.2217 31.595 98.2562 31.829 98.2562 32.084V35H97.9007C97.8227 35 97.7627 34.988 97.7207 34.964C97.6787 34.937 97.6457 34.886 97.6217 34.811L97.5317 34.379C97.4117 34.49 97.2947 34.589 97.1807 34.676C97.0667 34.76 96.9467 34.832 96.8207 34.892C96.6947 34.949 96.5597 34.9925 96.4157 35.0225C96.2747 35.0555 96.1172 35.072 95.9432 35.072C95.7662 35.072 95.5997 35.048 95.4437 35C95.2877 34.949 95.1512 34.874 95.0342 34.775C94.9202 34.676 94.8287 34.5515 94.7597 34.4015C94.6937 34.2485 94.6607 34.0685 94.6607 33.8615C94.6607 33.6815 94.7102 33.509 94.8092 33.344C94.9082 33.176 95.0687 33.0275 95.2907 32.8985C95.5127 32.7695 95.8022 32.6645 96.1592 32.5835C96.5162 32.4995 96.9542 32.4515 97.4732 32.4395V32.084C97.4732 31.73 97.3967 31.463 97.2437 31.283C97.0907 31.1 96.8672 31.0085 96.5732 31.0085C96.3752 31.0085 96.2087 31.034 96.0737 31.085C95.9417 31.133 95.8262 31.1885 95.7272 31.2515C95.6312 31.3115 95.5472 31.367 95.4752 31.418C95.4062 31.466 95.3372 31.49 95.2682 31.49C95.2142 31.49 95.1677 31.4765 95.1287 31.4495C95.0897 31.4195 95.0567 31.3835 95.0297 31.3415L94.8857 31.085ZM102.649 31.2515C102.625 31.2845 102.601 31.31 102.577 31.328C102.553 31.346 102.52 31.355 102.478 31.355C102.433 31.355 102.383 31.337 102.329 31.301C102.275 31.262 102.208 31.22 102.127 31.175C102.049 31.13 101.951 31.0895 101.834 31.0535C101.72 31.0145 101.579 30.995 101.411 30.995C101.186 30.995 100.988 31.0355 100.817 31.1165C100.646 31.1945 100.502 31.3085 100.385 31.4585C100.271 31.6085 100.184 31.79 100.124 32.003C100.067 32.216 100.039 32.4545 100.039 32.7185C100.039 32.9945 100.07 33.2405 100.133 33.4565C100.196 33.6695 100.285 33.8495 100.399 33.9965C100.516 34.1405 100.655 34.2515 100.817 34.3295C100.982 34.4045 101.167 34.442 101.371 34.442C101.566 34.442 101.726 34.4195 101.852 34.3745C101.978 34.3265 102.082 34.274 102.163 34.217C102.247 34.16 102.316 34.109 102.37 34.064C102.427 34.016 102.482 33.992 102.536 33.992C102.602 33.992 102.653 34.0175 102.689 34.0685L102.914 34.361C102.815 34.484 102.703 34.589 102.577 34.676C102.451 34.763 102.314 34.8365 102.167 34.8965C102.023 34.9535 101.872 34.9955 101.713 35.0225C101.554 35.0495 101.392 35.063 101.227 35.063C100.942 35.063 100.676 35.0105 100.43 34.9055C100.187 34.8005 99.9758 34.649 99.7958 34.451C99.6158 34.25 99.4748 34.004 99.3728 33.713C99.2708 33.422 99.2198 33.0905 99.2198 32.7185C99.2198 32.3795 99.2663 32.066 99.3593 31.778C99.4553 31.49 99.5933 31.2425 99.7733 31.0355C99.9563 30.8255 100.18 30.662 100.444 30.545C100.711 30.428 101.017 30.3695 101.362 30.3695C101.683 30.3695 101.965 30.422 102.208 30.527C102.454 30.629 102.671 30.7745 102.86 30.9635L102.649 31.2515ZM107.707 30.4415L105.165 36.3455C105.138 36.4055 105.103 36.4535 105.061 36.4895C105.022 36.5255 104.961 36.5435 104.877 36.5435H104.283L105.115 34.7345L103.234 30.4415H103.927C103.996 30.4415 104.05 30.4595 104.089 30.4955C104.131 30.5285 104.16 30.566 104.175 30.608L105.394 33.479C105.442 33.605 105.483 33.737 105.516 33.875C105.558 33.734 105.603 33.6005 105.651 33.4745L106.834 30.608C106.852 30.56 106.882 30.521 106.924 30.491C106.969 30.458 107.019 30.4415 107.073 30.4415H107.707ZM112.59 31.895C112.839 31.895 113.058 31.862 113.247 31.796C113.439 31.73 113.6 31.6385 113.729 31.5215C113.861 31.4015 113.96 31.259 114.026 31.094C114.092 30.929 114.125 30.7475 114.125 30.5495C114.125 30.1385 113.997 29.8175 113.742 29.5865C113.49 29.3555 113.106 29.24 112.59 29.24H111.555V31.895H112.59ZM112.59 28.5515C112.998 28.5515 113.352 28.5995 113.652 28.6955C113.955 28.7885 114.206 28.922 114.404 29.096C114.602 29.27 114.749 29.48 114.845 29.726C114.944 29.972 114.993 30.2465 114.993 30.5495C114.993 30.8495 114.941 31.124 114.836 31.373C114.731 31.622 114.576 31.8365 114.372 32.0165C114.171 32.1965 113.921 32.3375 113.621 32.4395C113.324 32.5385 112.98 32.588 112.59 32.588H111.555V35H110.687V28.5515H112.59ZM117.587 30.3695C117.92 30.3695 118.22 30.425 118.487 30.536C118.754 30.647 118.982 30.8045 119.171 31.0085C119.36 31.2125 119.504 31.46 119.603 31.751C119.705 32.039 119.756 32.3615 119.756 32.7185C119.756 33.0785 119.705 33.4025 119.603 33.6905C119.504 33.9785 119.36 34.2245 119.171 34.4285C118.982 34.6325 118.754 34.79 118.487 34.901C118.22 35.009 117.92 35.063 117.587 35.063C117.251 35.063 116.948 35.009 116.678 34.901C116.411 34.79 116.183 34.6325 115.994 34.4285C115.805 34.2245 115.66 33.9785 115.558 33.6905C115.459 33.4025 115.409 33.0785 115.409 32.7185C115.409 32.3615 115.459 32.039 115.558 31.751C115.66 31.46 115.805 31.2125 115.994 31.0085C116.183 30.8045 116.411 30.647 116.678 30.536C116.948 30.425 117.251 30.3695 117.587 30.3695ZM117.587 34.4375C118.037 34.4375 118.373 34.2875 118.595 33.9875C118.817 33.6845 118.928 33.263 118.928 32.723C118.928 32.18 118.817 31.757 118.595 31.454C118.373 31.151 118.037 30.9995 117.587 30.9995C117.359 30.9995 117.16 31.0385 116.989 31.1165C116.821 31.1945 116.68 31.307 116.566 31.454C116.455 31.601 116.371 31.7825 116.314 31.9985C116.26 32.2115 116.233 32.453 116.233 32.723C116.233 33.263 116.344 33.6845 116.566 33.9875C116.791 34.2875 117.131 34.4375 117.587 34.4375ZM121.6 28.3715V35H120.799V28.3715H121.6ZM123.745 30.4415V35H122.944V30.4415H123.745ZM123.916 29.0105C123.916 29.0885 123.9 29.162 123.867 29.231C123.837 29.297 123.795 29.357 123.741 29.411C123.69 29.462 123.628 29.5025 123.556 29.5325C123.487 29.5625 123.414 29.5775 123.336 29.5775C123.258 29.5775 123.184 29.5625 123.115 29.5325C123.049 29.5025 122.991 29.462 122.94 29.411C122.889 29.357 122.848 29.297 122.818 29.231C122.788 29.162 122.773 29.0885 122.773 29.0105C122.773 28.9325 122.788 28.859 122.818 28.79C122.848 28.718 122.889 28.6565 122.94 28.6055C122.991 28.5515 123.049 28.5095 123.115 28.4795C123.184 28.4495 123.258 28.4345 123.336 28.4345C123.414 28.4345 123.487 28.4495 123.556 28.4795C123.628 28.5095 123.69 28.5515 123.741 28.6055C123.795 28.6565 123.837 28.718 123.867 28.79C123.9 28.859 123.916 28.9325 123.916 29.0105ZM128.234 31.2515C128.21 31.2845 128.186 31.31 128.162 31.328C128.138 31.346 128.105 31.355 128.063 31.355C128.018 31.355 127.968 31.337 127.914 31.301C127.86 31.262 127.793 31.22 127.712 31.175C127.634 31.13 127.536 31.0895 127.419 31.0535C127.305 31.0145 127.164 30.995 126.996 30.995C126.771 30.995 126.573 31.0355 126.402 31.1165C126.231 31.1945 126.087 31.3085 125.97 31.4585C125.856 31.6085 125.769 31.79 125.709 32.003C125.652 32.216 125.624 32.4545 125.624 32.7185C125.624 32.9945 125.655 33.2405 125.718 33.4565C125.781 33.6695 125.87 33.8495 125.984 33.9965C126.101 34.1405 126.24 34.2515 126.402 34.3295C126.567 34.4045 126.752 34.442 126.956 34.442C127.151 34.442 127.311 34.4195 127.437 34.3745C127.563 34.3265 127.667 34.274 127.748 34.217C127.832 34.16 127.901 34.109 127.955 34.064C128.012 34.016 128.067 33.992 128.121 33.992C128.187 33.992 128.238 34.0175 128.274 34.0685L128.499 34.361C128.4 34.484 128.288 34.589 128.162 34.676C128.036 34.763 127.899 34.8365 127.752 34.8965C127.608 34.9535 127.457 34.9955 127.298 35.0225C127.139 35.0495 126.977 35.063 126.812 35.063C126.527 35.063 126.261 35.0105 126.015 34.9055C125.772 34.8005 125.561 34.649 125.381 34.451C125.201 34.25 125.06 34.004 124.958 33.713C124.856 33.422 124.805 33.0905 124.805 32.7185C124.805 32.3795 124.851 32.066 124.944 31.778C125.04 31.49 125.178 31.2425 125.358 31.0355C125.541 30.8255 125.765 30.662 126.029 30.545C126.296 30.428 126.602 30.3695 126.947 30.3695C127.268 30.3695 127.55 30.422 127.793 30.527C128.039 30.629 128.256 30.7745 128.445 30.9635L128.234 31.2515ZM133.292 30.4415L130.75 36.3455C130.723 36.4055 130.688 36.4535 130.646 36.4895C130.607 36.5255 130.546 36.5435 130.462 36.5435H129.868L130.7 34.7345L128.819 30.4415H129.512C129.581 30.4415 129.635 30.4595 129.674 30.4955C129.716 30.5285 129.745 30.566 129.76 30.608L130.979 33.479C131.027 33.605 131.068 33.737 131.101 33.875C131.143 33.734 131.188 33.6005 131.236 33.4745L132.419 30.608C132.437 30.56 132.467 30.521 132.509 30.491C132.554 30.458 132.604 30.4415 132.658 30.4415H133.292ZM136.263 28.1015H136.888V36.5705H136.263V28.1015ZM144.921 29.285H142.833V35H141.965V29.285H139.872V28.5515H144.921V29.285ZM147.642 32.2235C147.642 32.0375 147.615 31.868 147.561 31.715C147.51 31.559 147.433 31.4255 147.331 31.3145C147.232 31.2005 147.111 31.1135 146.967 31.0535C146.823 30.9905 146.659 30.959 146.476 30.959C146.092 30.959 145.788 31.0715 145.563 31.2965C145.341 31.5185 145.203 31.8275 145.149 32.2235H147.642ZM148.29 34.361C148.191 34.481 148.072 34.586 147.934 34.676C147.796 34.763 147.648 34.835 147.489 34.892C147.333 34.949 147.171 34.991 147.003 35.018C146.835 35.048 146.668 35.063 146.503 35.063C146.188 35.063 145.897 35.0105 145.63 34.9055C145.366 34.7975 145.137 34.6415 144.942 34.4375C144.75 34.2305 144.6 33.9755 144.492 33.6725C144.384 33.3695 144.33 33.0215 144.33 32.6285C144.33 32.3105 144.378 32.0135 144.474 31.7375C144.573 31.4615 144.714 31.223 144.897 31.022C145.08 30.818 145.303 30.659 145.567 30.545C145.831 30.428 146.128 30.3695 146.458 30.3695C146.731 30.3695 146.983 30.416 147.214 30.509C147.448 30.599 147.649 30.731 147.817 30.905C147.988 31.076 148.122 31.289 148.218 31.544C148.314 31.796 148.362 32.084 148.362 32.408C148.362 32.534 148.348 32.618 148.321 32.66C148.294 32.702 148.243 32.723 148.168 32.723H145.122C145.131 33.011 145.17 33.2615 145.239 33.4745C145.311 33.6875 145.41 33.866 145.536 34.01C145.662 34.151 145.812 34.2575 145.986 34.3295C146.16 34.3985 146.355 34.433 146.571 34.433C146.772 34.433 146.944 34.4105 147.088 34.3655C147.235 34.3175 147.361 34.2665 147.466 34.2125C147.571 34.1585 147.658 34.109 147.727 34.064C147.799 34.016 147.861 33.992 147.912 33.992C147.978 33.992 148.029 34.0175 148.065 34.0685L148.29 34.361ZM150.106 31.355C150.25 31.043 150.427 30.8 150.637 30.626C150.847 30.449 151.103 30.3605 151.406 30.3605C151.502 30.3605 151.594 30.371 151.681 30.392C151.771 30.413 151.85 30.446 151.919 30.491L151.861 31.0895C151.843 31.1645 151.798 31.202 151.726 31.202C151.684 31.202 151.622 31.193 151.541 31.175C151.46 31.157 151.369 31.148 151.267 31.148C151.123 31.148 150.994 31.169 150.88 31.211C150.769 31.253 150.668 31.316 150.578 31.4C150.491 31.481 150.412 31.583 150.34 31.706C150.271 31.826 150.208 31.964 150.151 32.12V35H149.345V30.4415H149.804C149.891 30.4415 149.951 30.458 149.984 30.491C150.017 30.524 150.04 30.581 150.052 30.662L150.106 31.355ZM152.624 35V30.4415H153.105C153.219 30.4415 153.29 30.497 153.317 30.608L153.375 31.076C153.543 30.869 153.732 30.6995 153.942 30.5675C154.152 30.4355 154.395 30.3695 154.671 30.3695C154.977 30.3695 155.225 30.455 155.414 30.626C155.606 30.797 155.744 31.028 155.828 31.319C155.894 31.154 155.978 31.0115 156.08 30.8915C156.185 30.7715 156.302 30.6725 156.431 30.5945C156.56 30.5165 156.696 30.4595 156.84 30.4235C156.987 30.3875 157.136 30.3695 157.286 30.3695C157.526 30.3695 157.739 30.4085 157.925 30.4865C158.114 30.5615 158.273 30.6725 158.402 30.8195C158.534 30.9665 158.634 31.148 158.703 31.364C158.772 31.577 158.807 31.8215 158.807 32.0975V35H158.001V32.0975C158.001 31.7405 157.923 31.4705 157.767 31.2875C157.611 31.1015 157.386 31.0085 157.092 31.0085C156.96 31.0085 156.834 31.0325 156.714 31.0805C156.597 31.1255 156.494 31.193 156.404 31.283C156.314 31.373 156.242 31.487 156.188 31.625C156.137 31.76 156.111 31.9175 156.111 32.0975V35H155.306V32.0975C155.306 31.7315 155.232 31.4585 155.085 31.2785C154.938 31.0985 154.724 31.0085 154.442 31.0085C154.244 31.0085 154.061 31.0625 153.893 31.1705C153.725 31.2755 153.57 31.4195 153.429 31.6025V35H152.624ZM162.679 31.193C162.643 31.259 162.588 31.292 162.513 31.292C162.468 31.292 162.417 31.2755 162.36 31.2425C162.303 31.2095 162.232 31.1735 162.148 31.1345C162.067 31.0925 161.97 31.055 161.856 31.022C161.742 30.986 161.607 30.968 161.451 30.968C161.316 30.968 161.194 30.986 161.086 31.022C160.978 31.055 160.885 31.1015 160.807 31.1615C160.732 31.2215 160.674 31.292 160.632 31.373C160.593 31.451 160.573 31.5365 160.573 31.6295C160.573 31.7465 160.606 31.844 160.672 31.922C160.741 32 160.831 32.0675 160.942 32.1245C161.053 32.1815 161.179 32.2325 161.32 32.2775C161.461 32.3195 161.605 32.366 161.752 32.417C161.902 32.465 162.048 32.519 162.189 32.579C162.33 32.639 162.456 32.714 162.567 32.804C162.678 32.894 162.766 33.005 162.832 33.137C162.901 33.266 162.936 33.422 162.936 33.605C162.936 33.815 162.898 34.01 162.823 34.19C162.748 34.367 162.637 34.5215 162.49 34.6535C162.343 34.7825 162.163 34.8845 161.95 34.9595C161.737 35.0345 161.491 35.072 161.212 35.072C160.894 35.072 160.606 35.021 160.348 34.919C160.09 34.814 159.871 34.6805 159.691 34.5185L159.88 34.2125C159.904 34.1735 159.933 34.1435 159.966 34.1225C159.999 34.1015 160.041 34.091 160.092 34.091C160.146 34.091 160.203 34.112 160.263 34.154C160.323 34.196 160.395 34.2425 160.479 34.2935C160.566 34.3445 160.671 34.391 160.794 34.433C160.917 34.475 161.07 34.496 161.253 34.496C161.409 34.496 161.545 34.4765 161.662 34.4375C161.779 34.3955 161.877 34.34 161.955 34.271C162.033 34.202 162.09 34.1225 162.126 34.0325C162.165 33.9425 162.184 33.8465 162.184 33.7445C162.184 33.6185 162.15 33.515 162.081 33.434C162.015 33.35 161.926 33.2795 161.815 33.2225C161.704 33.1625 161.577 33.1115 161.433 33.0695C161.292 33.0245 161.146 32.978 160.996 32.93C160.849 32.882 160.704 32.828 160.56 32.768C160.419 32.705 160.293 32.627 160.182 32.534C160.071 32.441 159.981 32.327 159.912 32.192C159.846 32.054 159.813 31.8875 159.813 31.6925C159.813 31.5185 159.849 31.352 159.921 31.193C159.993 31.031 160.098 30.89 160.236 30.77C160.374 30.647 160.543 30.5495 160.744 30.4775C160.945 30.4055 161.175 30.3695 161.433 30.3695C161.733 30.3695 162.001 30.4175 162.238 30.5135C162.478 30.6065 162.685 30.7355 162.859 30.9005L162.679 31.193ZM168.142 30.3695C168.475 30.3695 168.775 30.425 169.042 30.536C169.309 30.647 169.537 30.8045 169.726 31.0085C169.915 31.2125 170.059 31.46 170.158 31.751C170.26 32.039 170.311 32.3615 170.311 32.7185C170.311 33.0785 170.26 33.4025 170.158 33.6905C170.059 33.9785 169.915 34.2245 169.726 34.4285C169.537 34.6325 169.309 34.79 169.042 34.901C168.775 35.009 168.475 35.063 168.142 35.063C167.806 35.063 167.503 35.009 167.233 34.901C166.966 34.79 166.738 34.6325 166.549 34.4285C166.36 34.2245 166.214 33.9785 166.112 33.6905C166.013 33.4025 165.964 33.0785 165.964 32.7185C165.964 32.3615 166.013 32.039 166.112 31.751C166.214 31.46 166.36 31.2125 166.549 31.0085C166.738 30.8045 166.966 30.647 167.233 30.536C167.503 30.425 167.806 30.3695 168.142 30.3695ZM168.142 34.4375C168.592 34.4375 168.928 34.2875 169.15 33.9875C169.372 33.6845 169.483 33.263 169.483 32.723C169.483 32.18 169.372 31.757 169.15 31.454C168.928 31.151 168.592 30.9995 168.142 30.9995C167.914 30.9995 167.714 31.0385 167.543 31.1165C167.375 31.1945 167.234 31.307 167.12 31.454C167.009 31.601 166.925 31.7825 166.868 31.9985C166.814 32.2115 166.787 32.453 166.787 32.723C166.787 33.263 166.898 33.6845 167.12 33.9875C167.345 34.2875 167.686 34.4375 168.142 34.4375ZM171.527 35V31.1255L171.023 31.067C170.96 31.052 170.908 31.0295 170.866 30.9995C170.827 30.9665 170.807 30.92 170.807 30.86V30.5315H171.527V30.0905C171.527 29.8295 171.563 29.5985 171.635 29.3975C171.71 29.1935 171.815 29.0225 171.95 28.8845C172.088 28.7435 172.253 28.637 172.445 28.565C172.637 28.493 172.853 28.457 173.093 28.457C173.297 28.457 173.485 28.487 173.656 28.547L173.638 28.9475C173.632 29.0195 173.591 29.0585 173.516 29.0645C173.444 29.0705 173.347 29.0735 173.224 29.0735C173.086 29.0735 172.96 29.0915 172.846 29.1275C172.735 29.1635 172.639 29.222 172.558 29.303C172.477 29.384 172.414 29.4905 172.369 29.6225C172.327 29.7545 172.306 29.918 172.306 30.113V30.5315H173.62V31.112H172.333V35H171.527ZM179.199 34.307C179.466 34.307 179.704 34.262 179.914 34.172C180.124 34.082 180.301 33.956 180.445 33.794C180.592 33.632 180.703 33.4385 180.778 33.2135C180.856 32.9885 180.895 32.741 180.895 32.471V28.5515H181.764V32.471C181.764 32.843 181.704 33.188 181.584 33.506C181.467 33.824 181.297 34.1 181.075 34.334C180.856 34.565 180.588 34.7465 180.27 34.8785C179.952 35.0105 179.595 35.0765 179.199 35.0765C178.803 35.0765 178.446 35.0105 178.128 34.8785C177.81 34.7465 177.54 34.565 177.318 34.334C177.096 34.1 176.925 33.824 176.805 33.506C176.688 33.188 176.629 32.843 176.629 32.471V28.5515H177.498V32.4665C177.498 32.7365 177.535 32.984 177.61 33.209C177.688 33.434 177.799 33.6275 177.943 33.7895C178.09 33.9515 178.269 34.079 178.479 34.172C178.692 34.262 178.932 34.307 179.199 34.307ZM185.575 31.193C185.539 31.259 185.483 31.292 185.408 31.292C185.363 31.292 185.312 31.2755 185.255 31.2425C185.198 31.2095 185.128 31.1735 185.044 31.1345C184.963 31.0925 184.865 31.055 184.751 31.022C184.637 30.986 184.502 30.968 184.346 30.968C184.211 30.968 184.09 30.986 183.982 31.022C183.874 31.055 183.781 31.1015 183.703 31.1615C183.628 31.2215 183.569 31.292 183.527 31.373C183.488 31.451 183.469 31.5365 183.469 31.6295C183.469 31.7465 183.502 31.844 183.568 31.922C183.637 32 183.727 32.0675 183.838 32.1245C183.949 32.1815 184.075 32.2325 184.216 32.2775C184.357 32.3195 184.501 32.366 184.648 32.417C184.798 32.465 184.943 32.519 185.084 32.579C185.225 32.639 185.351 32.714 185.462 32.804C185.573 32.894 185.662 33.005 185.728 33.137C185.797 33.266 185.831 33.422 185.831 33.605C185.831 33.815 185.794 34.01 185.719 34.19C185.644 34.367 185.533 34.5215 185.386 34.6535C185.239 34.7825 185.059 34.8845 184.846 34.9595C184.633 35.0345 184.387 35.072 184.108 35.072C183.79 35.072 183.502 35.021 183.244 34.919C182.986 34.814 182.767 34.6805 182.587 34.5185L182.776 34.2125C182.8 34.1735 182.828 34.1435 182.861 34.1225C182.894 34.1015 182.936 34.091 182.987 34.091C183.041 34.091 183.098 34.112 183.158 34.154C183.218 34.196 183.29 34.2425 183.374 34.2935C183.461 34.3445 183.566 34.391 183.689 34.433C183.812 34.475 183.965 34.496 184.148 34.496C184.304 34.496 184.441 34.4765 184.558 34.4375C184.675 34.3955 184.772 34.34 184.85 34.271C184.928 34.202 184.985 34.1225 185.021 34.0325C185.06 33.9425 185.08 33.8465 185.08 33.7445C185.08 33.6185 185.045 33.515 184.976 33.434C184.91 33.35 184.822 33.2795 184.711 33.2225C184.6 33.1625 184.472 33.1115 184.328 33.0695C184.187 33.0245 184.042 32.978 183.892 32.93C183.745 32.882 183.599 32.828 183.455 32.768C183.314 32.705 183.188 32.627 183.077 32.534C182.966 32.441 182.876 32.327 182.807 32.192C182.741 32.054 182.708 31.8875 182.708 31.6925C182.708 31.5185 182.744 31.352 182.816 31.193C182.888 31.031 182.993 30.89 183.131 30.77C183.269 30.647 183.439 30.5495 183.64 30.4775C183.841 30.4055 184.07 30.3695 184.328 30.3695C184.628 30.3695 184.897 30.4175 185.134 30.5135C185.374 30.6065 185.581 30.7355 185.755 30.9005L185.575 31.193ZM189.864 32.2235C189.864 32.0375 189.837 31.868 189.783 31.715C189.732 31.559 189.656 31.4255 189.554 31.3145C189.455 31.2005 189.333 31.1135 189.189 31.0535C189.045 30.9905 188.882 30.959 188.699 30.959C188.315 30.959 188.01 31.0715 187.785 31.2965C187.563 31.5185 187.425 31.8275 187.371 32.2235H189.864ZM190.512 34.361C190.413 34.481 190.295 34.586 190.157 34.676C190.019 34.763 189.87 34.835 189.711 34.892C189.555 34.949 189.393 34.991 189.225 35.018C189.057 35.048 188.891 35.063 188.726 35.063C188.411 35.063 188.12 35.0105 187.853 34.9055C187.589 34.7975 187.359 34.6415 187.164 34.4375C186.972 34.2305 186.822 33.9755 186.714 33.6725C186.606 33.3695 186.552 33.0215 186.552 32.6285C186.552 32.3105 186.6 32.0135 186.696 31.7375C186.795 31.4615 186.936 31.223 187.119 31.022C187.302 30.818 187.526 30.659 187.79 30.545C188.054 30.428 188.351 30.3695 188.681 30.3695C188.954 30.3695 189.206 30.416 189.437 30.509C189.671 30.599 189.872 30.731 190.04 30.905C190.211 31.076 190.344 31.289 190.44 31.544C190.536 31.796 190.584 32.084 190.584 32.408C190.584 32.534 190.571 32.618 190.544 32.66C190.517 32.702 190.466 32.723 190.391 32.723H187.344C187.353 33.011 187.392 33.2615 187.461 33.4745C187.533 33.6875 187.632 33.866 187.758 34.01C187.884 34.151 188.034 34.2575 188.208 34.3295C188.382 34.3985 188.577 34.433 188.793 34.433C188.994 34.433 189.167 34.4105 189.311 34.3655C189.458 34.3175 189.584 34.2665 189.689 34.2125C189.794 34.1585 189.881 34.109 189.95 34.064C190.022 34.016 190.083 33.992 190.134 33.992C190.2 33.992 190.251 34.0175 190.287 34.0685L190.512 34.361ZM5.49991 47.668C5.54791 47.668 5.58991 47.6875 5.62591 47.7265L5.97241 48.1C5.70841 48.406 5.38741 48.6445 5.00941 48.8155C4.63441 48.9865 4.17991 49.072 3.64591 49.072C3.18391 49.072 2.76391 48.9925 2.38591 48.8335C2.00791 48.6715 1.68541 48.4465 1.41841 48.1585C1.15141 47.8675 0.944414 47.5195 0.797414 47.1145C0.650414 46.7095 0.576914 46.264 0.576914 45.778C0.576914 45.292 0.653414 44.8465 0.806414 44.4415C0.959414 44.0365 1.17391 43.6885 1.44991 43.3975C1.72891 43.1065 2.06191 42.8815 2.44891 42.7225C2.83591 42.5605 3.26341 42.4795 3.73141 42.4795C4.19041 42.4795 4.59541 42.553 4.94641 42.7C5.29741 42.847 5.60641 43.0465 5.87341 43.2985L5.58541 43.699C5.56741 43.729 5.54341 43.7545 5.51341 43.7755C5.48641 43.7935 5.44891 43.8025 5.40091 43.8025C5.34691 43.8025 5.28091 43.774 5.20291 43.717C5.12491 43.657 5.02291 43.591 4.89691 43.519C4.77091 43.447 4.61341 43.3825 4.42441 43.3255C4.23541 43.2655 4.00291 43.2355 3.72691 43.2355C3.39391 43.2355 3.08941 43.294 2.81341 43.411C2.53741 43.525 2.29891 43.6915 2.09791 43.9105C1.89991 44.1295 1.74541 44.3965 1.63441 44.7115C1.52341 45.0265 1.46791 45.382 1.46791 45.778C1.46791 46.18 1.52491 46.5385 1.63891 46.8535C1.75591 47.1685 1.91341 47.4355 2.11141 47.6545C2.31241 47.8705 2.54791 48.0355 2.81791 48.1495C3.09091 48.2635 3.38491 48.3205 3.69991 48.3205C3.89191 48.3205 4.06441 48.31 4.21741 48.289C4.37341 48.265 4.51591 48.229 4.64491 48.181C4.77691 48.133 4.89841 48.073 5.00941 48.001C5.12341 47.926 5.23591 47.8375 5.34691 47.7355C5.39791 47.6905 5.44891 47.668 5.49991 47.668ZM9.26613 46.948C8.89713 46.96 8.58213 46.99 8.32113 47.038C8.06313 47.083 7.85163 47.143 7.68663 47.218C7.52463 47.293 7.40613 47.3815 7.33113 47.4835C7.25913 47.5855 7.22313 47.6995 7.22313 47.8255C7.22313 47.9455 7.24263 48.049 7.28163 48.136C7.32063 48.223 7.37313 48.295 7.43913 48.352C7.50813 48.406 7.58763 48.4465 7.67763 48.4735C7.77063 48.4975 7.86963 48.5095 7.97463 48.5095C8.11563 48.5095 8.24463 48.496 8.36163 48.469C8.47863 48.439 8.58813 48.397 8.69013 48.343C8.79513 48.289 8.89413 48.2245 8.98713 48.1495C9.08313 48.0745 9.17613 47.989 9.26613 47.893V46.948ZM6.67863 45.085C6.93063 44.842 7.20213 44.6605 7.49313 44.5405C7.78413 44.4205 8.10663 44.3605 8.46063 44.3605C8.71563 44.3605 8.94213 44.4025 9.14013 44.4865C9.33813 44.5705 9.50463 44.6875 9.63963 44.8375C9.77463 44.9875 9.87663 45.169 9.94563 45.382C10.0146 45.595 10.0491 45.829 10.0491 46.084V49H9.69363C9.61563 49 9.55563 48.988 9.51363 48.964C9.47163 48.937 9.43863 48.886 9.41463 48.811L9.32463 48.379C9.20463 48.49 9.08763 48.589 8.97363 48.676C8.85963 48.76 8.73963 48.832 8.61363 48.892C8.48763 48.949 8.35263 48.9925 8.20863 49.0225C8.06763 49.0555 7.91013 49.072 7.73613 49.072C7.55913 49.072 7.39263 49.048 7.23663 49C7.08063 48.949 6.94413 48.874 6.82713 48.775C6.71313 48.676 6.62163 48.5515 6.55263 48.4015C6.48663 48.2485 6.45363 48.0685 6.45363 47.8615C6.45363 47.6815 6.50313 47.509 6.60213 47.344C6.70113 47.176 6.86163 47.0275 7.08363 46.8985C7.30563 46.7695 7.59513 46.6645 7.95213 46.5835C8.30913 46.4995 8.74713 46.4515 9.26613 46.4395V46.084C9.26613 45.73 9.18963 45.463 9.03663 45.283C8.88363 45.1 8.66013 45.0085 8.36613 45.0085C8.16813 45.0085 8.00163 45.034 7.86663 45.085C7.73463 45.133 7.61913 45.1885 7.52013 45.2515C7.42413 45.3115 7.34013 45.367 7.26813 45.418C7.19913 45.466 7.13013 45.49 7.06113 45.49C7.00713 45.49 6.96063 45.4765 6.92163 45.4495C6.88263 45.4195 6.84963 45.3835 6.82263 45.3415L6.67863 45.085ZM12.0973 42.3715V49H11.2963V42.3715H12.0973ZM14.2422 44.4415V49H13.4412V44.4415H14.2422ZM14.4132 43.0105C14.4132 43.0885 14.3967 43.162 14.3637 43.231C14.3337 43.297 14.2917 43.357 14.2377 43.411C14.1867 43.462 14.1252 43.5025 14.0532 43.5325C13.9842 43.5625 13.9107 43.5775 13.8327 43.5775C13.7547 43.5775 13.6812 43.5625 13.6122 43.5325C13.5462 43.5025 13.4877 43.462 13.4367 43.411C13.3857 43.357 13.3452 43.297 13.3152 43.231C13.2852 43.162 13.2702 43.0885 13.2702 43.0105C13.2702 42.9325 13.2852 42.859 13.3152 42.79C13.3452 42.718 13.3857 42.6565 13.4367 42.6055C13.4877 42.5515 13.5462 42.5095 13.6122 42.4795C13.6812 42.4495 13.7547 42.4345 13.8327 42.4345C13.9107 42.4345 13.9842 42.4495 14.0532 42.4795C14.1252 42.5095 14.1867 42.5515 14.2377 42.6055C14.2917 42.6565 14.3337 42.718 14.3637 42.79C14.3967 42.859 14.4132 42.9325 14.4132 43.0105ZM15.8553 49V45.1255L15.3513 45.067C15.2883 45.052 15.2358 45.0295 15.1938 44.9995C15.1548 44.9665 15.1353 44.92 15.1353 44.86V44.5315H15.8553V44.0905C15.8553 43.8295 15.8913 43.5985 15.9633 43.3975C16.0383 43.1935 16.1433 43.0225 16.2783 42.8845C16.4163 42.7435 16.5813 42.637 16.7733 42.565C16.9653 42.493 17.1813 42.457 17.4213 42.457C17.6253 42.457 17.8128 42.487 17.9838 42.547L17.9658 42.9475C17.9598 43.0195 17.9193 43.0585 17.8443 43.0645C17.7723 43.0705 17.6748 43.0735 17.5518 43.0735C17.4138 43.0735 17.2878 43.0915 17.1738 43.1275C17.0628 43.1635 16.9668 43.222 16.8858 43.303C16.8048 43.384 16.7418 43.4905 16.6968 43.6225C16.6548 43.7545 16.6338 43.918 16.6338 44.113V44.5315H17.9478V45.112H16.6608V49H15.8553ZM20.4857 44.3695C20.8187 44.3695 21.1187 44.425 21.3857 44.536C21.6527 44.647 21.8807 44.8045 22.0697 45.0085C22.2587 45.2125 22.4027 45.46 22.5017 45.751C22.6037 46.039 22.6547 46.3615 22.6547 46.7185C22.6547 47.0785 22.6037 47.4025 22.5017 47.6905C22.4027 47.9785 22.2587 48.2245 22.0697 48.4285C21.8807 48.6325 21.6527 48.79 21.3857 48.901C21.1187 49.009 20.8187 49.063 20.4857 49.063C20.1497 49.063 19.8467 49.009 19.5767 48.901C19.3097 48.79 19.0817 48.6325 18.8927 48.4285C18.7037 48.2245 18.5582 47.9785 18.4562 47.6905C18.3572 47.4025 18.3077 47.0785 18.3077 46.7185C18.3077 46.3615 18.3572 46.039 18.4562 45.751C18.5582 45.46 18.7037 45.2125 18.8927 45.0085C19.0817 44.8045 19.3097 44.647 19.5767 44.536C19.8467 44.425 20.1497 44.3695 20.4857 44.3695ZM20.4857 48.4375C20.9357 48.4375 21.2717 48.2875 21.4937 47.9875C21.7157 47.6845 21.8267 47.263 21.8267 46.723C21.8267 46.18 21.7157 45.757 21.4937 45.454C21.2717 45.151 20.9357 44.9995 20.4857 44.9995C20.2577 44.9995 20.0582 45.0385 19.8872 45.1165C19.7192 45.1945 19.5782 45.307 19.4642 45.454C19.3532 45.601 19.2692 45.7825 19.2122 45.9985C19.1582 46.2115 19.1312 46.453 19.1312 46.723C19.1312 47.263 19.2422 47.6845 19.4642 47.9875C19.6892 48.2875 20.0297 48.4375 20.4857 48.4375ZM24.4311 45.355C24.5751 45.043 24.7521 44.8 24.9621 44.626C25.1721 44.449 25.4286 44.3605 25.7316 44.3605C25.8276 44.3605 25.9191 44.371 26.0061 44.392C26.0961 44.413 26.1756 44.446 26.2446 44.491L26.1861 45.0895C26.1681 45.1645 26.1231 45.202 26.0511 45.202C26.0091 45.202 25.9476 45.193 25.8666 45.175C25.7856 45.157 25.6941 45.148 25.5921 45.148C25.4481 45.148 25.3191 45.169 25.2051 45.211C25.0941 45.253 24.9936 45.316 24.9036 45.4C24.8166 45.481 24.7371 45.583 24.6651 45.706C24.5961 45.826 24.5331 45.964 24.4761 46.12V49H23.6706V44.4415H24.1296C24.2166 44.4415 24.2766 44.458 24.3096 44.491C24.3426 44.524 24.3651 44.581 24.3771 44.662L24.4311 45.355ZM27.705 45.103C27.804 44.992 27.909 44.8915 28.02 44.8015C28.131 44.7115 28.248 44.635 28.371 44.572C28.497 44.506 28.629 44.4565 28.767 44.4235C28.908 44.3875 29.0595 44.3695 29.2215 44.3695C29.4705 44.3695 29.6895 44.4115 29.8785 44.4955C30.0705 44.5765 30.2295 44.6935 30.3555 44.8465C30.4845 44.9965 30.582 45.178 30.648 45.391C30.714 45.604 30.747 45.8395 30.747 46.0975V49H29.9415V46.0975C29.9415 45.7525 29.862 45.4855 29.703 45.2965C29.547 45.1045 29.3085 45.0085 28.9875 45.0085C28.7505 45.0085 28.5285 45.0655 28.3215 45.1795C28.1175 45.2935 27.9285 45.448 27.7545 45.643V49H26.949V44.4415H27.4305C27.5445 44.4415 27.615 44.497 27.642 44.608L27.705 45.103ZM32.8135 44.4415V49H32.0125V44.4415H32.8135ZM32.9845 43.0105C32.9845 43.0885 32.968 43.162 32.935 43.231C32.905 43.297 32.863 43.357 32.809 43.411C32.758 43.462 32.6965 43.5025 32.6245 43.5325C32.5555 43.5625 32.482 43.5775 32.404 43.5775C32.326 43.5775 32.2525 43.5625 32.1835 43.5325C32.1175 43.5025 32.059 43.462 32.008 43.411C31.957 43.357 31.9165 43.297 31.8865 43.231C31.8565 43.162 31.8415 43.0885 31.8415 43.0105C31.8415 42.9325 31.8565 42.859 31.8865 42.79C31.9165 42.718 31.957 42.6565 32.008 42.6055C32.059 42.5515 32.1175 42.5095 32.1835 42.4795C32.2525 42.4495 32.326 42.4345 32.404 42.4345C32.482 42.4345 32.5555 42.4495 32.6245 42.4795C32.6965 42.5095 32.758 42.5515 32.809 42.6055C32.863 42.6565 32.905 42.718 32.935 42.79C32.968 42.859 32.9845 42.9325 32.9845 43.0105ZM36.6001 46.948C36.2311 46.96 35.9161 46.99 35.6551 47.038C35.3971 47.083 35.1856 47.143 35.0206 47.218C34.8586 47.293 34.7401 47.3815 34.6651 47.4835C34.5931 47.5855 34.5571 47.6995 34.5571 47.8255C34.5571 47.9455 34.5766 48.049 34.6156 48.136C34.6546 48.223 34.7071 48.295 34.7731 48.352C34.8421 48.406 34.9216 48.4465 35.0116 48.4735C35.1046 48.4975 35.2036 48.5095 35.3086 48.5095C35.4496 48.5095 35.5786 48.496 35.6956 48.469C35.8126 48.439 35.9221 48.397 36.0241 48.343C36.1291 48.289 36.2281 48.2245 36.3211 48.1495C36.4171 48.0745 36.5101 47.989 36.6001 47.893V46.948ZM34.0126 45.085C34.2646 44.842 34.5361 44.6605 34.8271 44.5405C35.1181 44.4205 35.4406 44.3605 35.7946 44.3605C36.0496 44.3605 36.2761 44.4025 36.4741 44.4865C36.6721 44.5705 36.8386 44.6875 36.9736 44.8375C37.1086 44.9875 37.2106 45.169 37.2796 45.382C37.3486 45.595 37.3831 45.829 37.3831 46.084V49H37.0276C36.9496 49 36.8896 48.988 36.8476 48.964C36.8056 48.937 36.7726 48.886 36.7486 48.811L36.6586 48.379C36.5386 48.49 36.4216 48.589 36.3076 48.676C36.1936 48.76 36.0736 48.832 35.9476 48.892C35.8216 48.949 35.6866 48.9925 35.5426 49.0225C35.4016 49.0555 35.2441 49.072 35.0701 49.072C34.8931 49.072 34.7266 49.048 34.5706 49C34.4146 48.949 34.2781 48.874 34.1611 48.775C34.0471 48.676 33.9556 48.5515 33.8866 48.4015C33.8206 48.2485 33.7876 48.0685 33.7876 47.8615C33.7876 47.6815 33.8371 47.509 33.9361 47.344C34.0351 47.176 34.1956 47.0275 34.4176 46.8985C34.6396 46.7695 34.9291 46.6645 35.2861 46.5835C35.6431 46.4995 36.0811 46.4515 36.6001 46.4395V46.084C36.6001 45.73 36.5236 45.463 36.3706 45.283C36.2176 45.1 35.9941 45.0085 35.7001 45.0085C35.5021 45.0085 35.3356 45.034 35.2006 45.085C35.0686 45.133 34.9531 45.1885 34.8541 45.2515C34.7581 45.3115 34.6741 45.367 34.6021 45.418C34.5331 45.466 34.4641 45.49 34.3951 45.49C34.3411 45.49 34.2946 45.4765 34.2556 45.4495C34.2166 45.4195 34.1836 45.3835 34.1566 45.3415L34.0126 45.085ZM42.9985 45.895C43.2475 45.895 43.4665 45.862 43.6555 45.796C43.8475 45.73 44.008 45.6385 44.137 45.5215C44.269 45.4015 44.368 45.259 44.434 45.094C44.5 44.929 44.533 44.7475 44.533 44.5495C44.533 44.1385 44.4055 43.8175 44.1505 43.5865C43.8985 43.3555 43.5145 43.24 42.9985 43.24H41.9635V45.895H42.9985ZM42.9985 42.5515C43.4065 42.5515 43.7605 42.5995 44.0605 42.6955C44.3635 42.7885 44.614 42.922 44.812 43.096C45.01 43.27 45.157 43.48 45.253 43.726C45.352 43.972 45.4015 44.2465 45.4015 44.5495C45.4015 44.8495 45.349 45.124 45.244 45.373C45.139 45.622 44.9845 45.8365 44.7805 46.0165C44.5795 46.1965 44.329 46.3375 44.029 46.4395C43.732 46.5385 43.3885 46.588 42.9985 46.588H41.9635V49H41.095V42.5515H42.9985ZM46.9839 45.355C47.1279 45.043 47.3049 44.8 47.5149 44.626C47.7249 44.449 47.9814 44.3605 48.2844 44.3605C48.3804 44.3605 48.4719 44.371 48.5589 44.392C48.6489 44.413 48.7284 44.446 48.7974 44.491L48.7389 45.0895C48.7209 45.1645 48.6759 45.202 48.6039 45.202C48.5619 45.202 48.5004 45.193 48.4194 45.175C48.3384 45.157 48.2469 45.148 48.1449 45.148C48.0009 45.148 47.8719 45.169 47.7579 45.211C47.6469 45.253 47.5464 45.316 47.4564 45.4C47.3694 45.481 47.2899 45.583 47.2179 45.706C47.1489 45.826 47.0859 45.964 47.0289 46.12V49H46.2234V44.4415H46.6824C46.7694 44.4415 46.8294 44.458 46.8624 44.491C46.8954 44.524 46.9179 44.581 46.9299 44.662L46.9839 45.355ZM50.3477 44.4415V49H49.5467V44.4415H50.3477ZM50.5187 43.0105C50.5187 43.0885 50.5022 43.162 50.4692 43.231C50.4392 43.297 50.3972 43.357 50.3432 43.411C50.2922 43.462 50.2307 43.5025 50.1587 43.5325C50.0897 43.5625 50.0162 43.5775 49.9382 43.5775C49.8602 43.5775 49.7867 43.5625 49.7177 43.5325C49.6517 43.5025 49.5932 43.462 49.5422 43.411C49.4912 43.357 49.4507 43.297 49.4207 43.231C49.3907 43.162 49.3757 43.0885 49.3757 43.0105C49.3757 42.9325 49.3907 42.859 49.4207 42.79C49.4507 42.718 49.4912 42.6565 49.5422 42.6055C49.5932 42.5515 49.6517 42.5095 49.7177 42.4795C49.7867 42.4495 49.8602 42.4345 49.9382 42.4345C50.0162 42.4345 50.0897 42.4495 50.1587 42.4795C50.2307 42.5095 50.2922 42.5515 50.3432 42.6055C50.3972 42.6565 50.4392 42.718 50.4692 42.79C50.5022 42.859 50.5187 42.9325 50.5187 43.0105ZM55.5698 44.4415L53.7113 49H52.9913L51.1328 44.4415H51.7853C51.8513 44.4415 51.9053 44.458 51.9473 44.491C51.9893 44.524 52.0178 44.563 52.0328 44.608L53.1893 47.542C53.2253 47.653 53.2568 47.761 53.2838 47.866C53.3108 47.971 53.3363 48.076 53.3603 48.181C53.3843 48.076 53.4098 47.971 53.4368 47.866C53.4638 47.761 53.4968 47.653 53.5358 47.542L54.7058 44.608C54.7238 44.56 54.7538 44.521 54.7958 44.491C54.8378 44.458 54.8873 44.4415 54.9443 44.4415H55.5698ZM58.6782 46.948C58.3092 46.96 57.9942 46.99 57.7332 47.038C57.4752 47.083 57.2637 47.143 57.0987 47.218C56.9367 47.293 56.8182 47.3815 56.7432 47.4835C56.6712 47.5855 56.6352 47.6995 56.6352 47.8255C56.6352 47.9455 56.6547 48.049 56.6937 48.136C56.7327 48.223 56.7852 48.295 56.8512 48.352C56.9202 48.406 56.9997 48.4465 57.0897 48.4735C57.1827 48.4975 57.2817 48.5095 57.3867 48.5095C57.5277 48.5095 57.6567 48.496 57.7737 48.469C57.8907 48.439 58.0002 48.397 58.1022 48.343C58.2072 48.289 58.3062 48.2245 58.3992 48.1495C58.4952 48.0745 58.5882 47.989 58.6782 47.893V46.948ZM56.0907 45.085C56.3427 44.842 56.6142 44.6605 56.9052 44.5405C57.1962 44.4205 57.5187 44.3605 57.8727 44.3605C58.1277 44.3605 58.3542 44.4025 58.5522 44.4865C58.7502 44.5705 58.9167 44.6875 59.0517 44.8375C59.1867 44.9875 59.2887 45.169 59.3577 45.382C59.4267 45.595 59.4612 45.829 59.4612 46.084V49H59.1057C59.0277 49 58.9677 48.988 58.9257 48.964C58.8837 48.937 58.8507 48.886 58.8267 48.811L58.7367 48.379C58.6167 48.49 58.4997 48.589 58.3857 48.676C58.2717 48.76 58.1517 48.832 58.0257 48.892C57.8997 48.949 57.7647 48.9925 57.6207 49.0225C57.4797 49.0555 57.3222 49.072 57.1482 49.072C56.9712 49.072 56.8047 49.048 56.6487 49C56.4927 48.949 56.3562 48.874 56.2392 48.775C56.1252 48.676 56.0337 48.5515 55.9647 48.4015C55.8987 48.2485 55.8657 48.0685 55.8657 47.8615C55.8657 47.6815 55.9152 47.509 56.0142 47.344C56.1132 47.176 56.2737 47.0275 56.4957 46.8985C56.7177 46.7695 57.0072 46.6645 57.3642 46.5835C57.7212 46.4995 58.1592 46.4515 58.6782 46.4395V46.084C58.6782 45.73 58.6017 45.463 58.4487 45.283C58.2957 45.1 58.0722 45.0085 57.7782 45.0085C57.5802 45.0085 57.4137 45.034 57.2787 45.085C57.1467 45.133 57.0312 45.1885 56.9322 45.2515C56.8362 45.3115 56.7522 45.367 56.6802 45.418C56.6112 45.466 56.5422 45.49 56.4732 45.49C56.4192 45.49 56.3727 45.4765 56.3337 45.4495C56.2947 45.4195 56.2617 45.3835 56.2347 45.3415L56.0907 45.085ZM63.8539 45.2515C63.8299 45.2845 63.8059 45.31 63.7819 45.328C63.7579 45.346 63.7249 45.355 63.6829 45.355C63.6379 45.355 63.5884 45.337 63.5344 45.301C63.4804 45.262 63.4129 45.22 63.3319 45.175C63.2539 45.13 63.1564 45.0895 63.0394 45.0535C62.9254 45.0145 62.7844 44.995 62.6164 44.995C62.3914 44.995 62.1934 45.0355 62.0224 45.1165C61.8514 45.1945 61.7074 45.3085 61.5904 45.4585C61.4764 45.6085 61.3894 45.79 61.3294 46.003C61.2724 46.216 61.2439 46.4545 61.2439 46.7185C61.2439 46.9945 61.2754 47.2405 61.3384 47.4565C61.4014 47.6695 61.4899 47.8495 61.6039 47.9965C61.7209 48.1405 61.8604 48.2515 62.0224 48.3295C62.1874 48.4045 62.3719 48.442 62.5759 48.442C62.7709 48.442 62.9314 48.4195 63.0574 48.3745C63.1834 48.3265 63.2869 48.274 63.3679 48.217C63.4519 48.16 63.5209 48.109 63.5749 48.064C63.6319 48.016 63.6874 47.992 63.7414 47.992C63.8074 47.992 63.8584 48.0175 63.8944 48.0685L64.1194 48.361C64.0204 48.484 63.9079 48.589 63.7819 48.676C63.6559 48.763 63.5194 48.8365 63.3724 48.8965C63.2284 48.9535 63.0769 48.9955 62.9179 49.0225C62.7589 49.0495 62.5969 49.063 62.4319 49.063C62.1469 49.063 61.8814 49.0105 61.6354 48.9055C61.3924 48.8005 61.1809 48.649 61.0009 48.451C60.8209 48.25 60.6799 48.004 60.5779 47.713C60.4759 47.422 60.4249 47.0905 60.4249 46.7185C60.4249 46.3795 60.4714 46.066 60.5644 45.778C60.6604 45.49 60.7984 45.2425 60.9784 45.0355C61.1614 44.8255 61.3849 44.662 61.6489 44.545C61.9159 44.428 62.2219 44.3695 62.5669 44.3695C62.8879 44.3695 63.1699 44.422 63.4129 44.527C63.6589 44.629 63.8764 44.7745 64.0654 44.9635L63.8539 45.2515ZM68.9122 44.4415L66.3697 50.3455C66.3427 50.4055 66.3082 50.4535 66.2662 50.4895C66.2272 50.5255 66.1657 50.5435 66.0817 50.5435H65.4877L66.3202 48.7345L64.4392 44.4415H65.1322C65.2012 44.4415 65.2552 44.4595 65.2942 44.4955C65.3362 44.5285 65.3647 44.566 65.3797 44.608L66.5992 47.479C66.6472 47.605 66.6877 47.737 66.7207 47.875C66.7627 47.734 66.8077 47.6005 66.8557 47.4745L68.0392 44.608C68.0572 44.56 68.0872 44.521 68.1292 44.491C68.1742 44.458 68.2237 44.4415 68.2777 44.4415H68.9122ZM71.8829 42.1015H72.5084V50.5705H71.8829V42.1015ZM81.6779 42.5515V49H81.2414C81.1724 49 81.1139 48.988 81.0659 48.964C81.0209 48.94 80.9759 48.8995 80.9309 48.8425L77.2004 43.9825C77.2064 44.0575 77.2109 44.131 77.2139 44.203C77.2169 44.275 77.2184 44.3425 77.2184 44.4055V49H76.4534V42.5515H76.9034C76.9424 42.5515 76.9754 42.5545 77.0024 42.5605C77.0294 42.5635 77.0534 42.571 77.0744 42.583C77.0954 42.592 77.1164 42.607 77.1374 42.628C77.1584 42.646 77.1809 42.67 77.2049 42.7L80.9354 47.5555C80.9294 47.4775 80.9234 47.4025 80.9174 47.3305C80.9144 47.2555 80.9129 47.185 80.9129 47.119V42.5515H81.6779ZM86.0478 46.2235C86.0478 46.0375 86.0208 45.868 85.9668 45.715C85.9158 45.559 85.8393 45.4255 85.7373 45.3145C85.6383 45.2005 85.5168 45.1135 85.3728 45.0535C85.2288 44.9905 85.0653 44.959 84.8823 44.959C84.4983 44.959 84.1938 45.0715 83.9688 45.2965C83.7468 45.5185 83.6088 45.8275 83.5548 46.2235H86.0478ZM86.6958 48.361C86.5968 48.481 86.4783 48.586 86.3403 48.676C86.2023 48.763 86.0538 48.835 85.8948 48.892C85.7388 48.949 85.5768 48.991 85.4088 49.018C85.2408 49.048 85.0743 49.063 84.9093 49.063C84.5943 49.063 84.3033 49.0105 84.0363 48.9055C83.7723 48.7975 83.5428 48.6415 83.3478 48.4375C83.1558 48.2305 83.0058 47.9755 82.8978 47.6725C82.7898 47.3695 82.7358 47.0215 82.7358 46.6285C82.7358 46.3105 82.7838 46.0135 82.8798 45.7375C82.9788 45.4615 83.1198 45.223 83.3028 45.022C83.4858 44.818 83.7093 44.659 83.9733 44.545C84.2373 44.428 84.5343 44.3695 84.8643 44.3695C85.1373 44.3695 85.3893 44.416 85.6203 44.509C85.8543 44.599 86.0553 44.731 86.2233 44.905C86.3943 45.076 86.5278 45.289 86.6238 45.544C86.7198 45.796 86.7678 46.084 86.7678 46.408C86.7678 46.534 86.7543 46.618 86.7273 46.66C86.7003 46.702 86.6493 46.723 86.5743 46.723H83.5278C83.5368 47.011 83.5758 47.2615 83.6448 47.4745C83.7168 47.6875 83.8158 47.866 83.9418 48.01C84.0678 48.151 84.2178 48.2575 84.3918 48.3295C84.5658 48.3985 84.7608 48.433 84.9768 48.433C85.1778 48.433 85.3503 48.4105 85.4943 48.3655C85.6413 48.3175 85.7673 48.2665 85.8723 48.2125C85.9773 48.1585 86.0643 48.109 86.1333 48.064C86.2053 48.016 86.2668 47.992 86.3178 47.992C86.3838 47.992 86.4348 48.0175 86.4708 48.0685L86.6958 48.361ZM93.9942 44.4415L92.5182 49H91.8837C91.8057 49 91.7517 48.949 91.7217 48.847L90.7137 45.7555C90.6897 45.6865 90.6702 45.6175 90.6552 45.5485C90.6402 45.4765 90.6252 45.406 90.6102 45.337C90.5952 45.406 90.5802 45.4765 90.5652 45.5485C90.5502 45.6175 90.5307 45.688 90.5067 45.76L89.4807 48.847C89.4537 48.949 89.3937 49 89.3007 49H88.6977L87.2217 44.4415H87.8517C87.9147 44.4415 87.9672 44.458 88.0092 44.491C88.0542 44.524 88.0842 44.563 88.0992 44.608L88.9722 47.542C89.0232 47.758 89.0637 47.962 89.0937 48.154C89.1207 48.055 89.1477 47.9545 89.1747 47.8525C89.2047 47.7505 89.2362 47.647 89.2692 47.542L90.2322 44.59C90.2472 44.545 90.2727 44.5075 90.3087 44.4775C90.3477 44.4475 90.3942 44.4325 90.4482 44.4325H90.7992C90.8592 44.4325 90.9087 44.4475 90.9477 44.4775C90.9867 44.5075 91.0137 44.545 91.0287 44.59L91.9692 47.542C92.0022 47.647 92.0322 47.7505 92.0592 47.8525C92.0862 47.9545 92.1117 48.055 92.1357 48.154C92.1507 48.055 92.1687 47.956 92.1897 47.857C92.2137 47.755 92.2392 47.65 92.2662 47.542L93.1572 44.608C93.1722 44.56 93.2007 44.521 93.2427 44.491C93.2847 44.458 93.3342 44.4415 93.3912 44.4415H93.9942ZM99.1508 46.4305V49H98.2778V46.4305L95.9153 42.5515H96.6803C96.7583 42.5515 96.8198 42.571 96.8648 42.61C96.9098 42.646 96.9488 42.694 96.9818 42.754L98.4578 45.2605C98.5118 45.3655 98.5613 45.4645 98.6063 45.5575C98.6513 45.6475 98.6903 45.739 98.7233 45.832C98.7563 45.739 98.7938 45.6475 98.8358 45.5575C98.8778 45.4645 98.9243 45.3655 98.9753 45.2605L100.447 42.754C100.474 42.703 100.511 42.6565 100.559 42.6145C100.607 42.5725 100.669 42.5515 100.744 42.5515H101.513L99.1508 46.4305ZM103.094 44.3695C103.427 44.3695 103.727 44.425 103.994 44.536C104.261 44.647 104.489 44.8045 104.678 45.0085C104.867 45.2125 105.011 45.46 105.11 45.751C105.212 46.039 105.263 46.3615 105.263 46.7185C105.263 47.0785 105.212 47.4025 105.11 47.6905C105.011 47.9785 104.867 48.2245 104.678 48.4285C104.489 48.6325 104.261 48.79 103.994 48.901C103.727 49.009 103.427 49.063 103.094 49.063C102.758 49.063 102.455 49.009 102.185 48.901C101.918 48.79 101.69 48.6325 101.501 48.4285C101.312 48.2245 101.167 47.9785 101.065 47.6905C100.966 47.4025 100.916 47.0785 100.916 46.7185C100.916 46.3615 100.966 46.039 101.065 45.751C101.167 45.46 101.312 45.2125 101.501 45.0085C101.69 44.8045 101.918 44.647 102.185 44.536C102.455 44.425 102.758 44.3695 103.094 44.3695ZM103.094 48.4375C103.544 48.4375 103.88 48.2875 104.102 47.9875C104.324 47.6845 104.435 47.263 104.435 46.723C104.435 46.18 104.324 45.757 104.102 45.454C103.88 45.151 103.544 44.9995 103.094 44.9995C102.866 44.9995 102.667 45.0385 102.496 45.1165C102.328 45.1945 102.187 45.307 102.073 45.454C101.962 45.601 101.878 45.7825 101.821 45.9985C101.767 46.2115 101.74 46.453 101.74 46.723C101.74 47.263 101.851 47.6845 102.073 47.9875C102.298 48.2875 102.638 48.4375 103.094 48.4375ZM107.04 45.355C107.184 45.043 107.361 44.8 107.571 44.626C107.781 44.449 108.037 44.3605 108.34 44.3605C108.436 44.3605 108.528 44.371 108.615 44.392C108.705 44.413 108.784 44.446 108.853 44.491L108.795 45.0895C108.777 45.1645 108.732 45.202 108.66 45.202C108.618 45.202 108.556 45.193 108.475 45.175C108.394 45.157 108.303 45.148 108.201 45.148C108.057 45.148 107.928 45.169 107.814 45.211C107.703 45.253 107.602 45.316 107.512 45.4C107.425 45.481 107.346 45.583 107.274 45.706C107.205 45.826 107.142 45.964 107.085 46.12V49H106.279V44.4415H106.738C106.825 44.4415 106.885 44.458 106.918 44.491C106.951 44.524 106.974 44.581 106.986 44.662L107.04 45.355ZM110.363 42.3715V46.273H110.57C110.63 46.273 110.679 46.2655 110.718 46.2505C110.76 46.2325 110.804 46.198 110.849 46.147L112.289 44.6035C112.331 44.5525 112.374 44.5135 112.419 44.4865C112.467 44.4565 112.53 44.4415 112.608 44.4415H113.333L111.654 46.228C111.573 46.33 111.486 46.4095 111.393 46.4665C111.447 46.5025 111.495 46.5445 111.537 46.5925C111.582 46.6375 111.624 46.69 111.663 46.75L113.445 49H112.73C112.661 49 112.601 48.9895 112.55 48.9685C112.502 48.9445 112.46 48.9025 112.424 48.8425L110.925 46.975C110.88 46.912 110.835 46.8715 110.79 46.8535C110.748 46.8325 110.682 46.822 110.592 46.822H110.363V49H109.557V42.3715H110.363ZM118.523 45.895C118.772 45.895 118.991 45.862 119.18 45.796C119.372 45.73 119.532 45.6385 119.661 45.5215C119.793 45.4015 119.892 45.259 119.958 45.094C120.024 44.929 120.057 44.7475 120.057 44.5495C120.057 44.1385 119.93 43.8175 119.675 43.5865C119.423 43.3555 119.039 43.24 118.523 43.24H117.488V45.895H118.523ZM118.523 42.5515C118.931 42.5515 119.285 42.5995 119.585 42.6955C119.888 42.7885 120.138 42.922 120.336 43.096C120.534 43.27 120.681 43.48 120.777 43.726C120.876 43.972 120.926 44.2465 120.926 44.5495C120.926 44.8495 120.873 45.124 120.768 45.373C120.663 45.622 120.509 45.8365 120.305 46.0165C120.104 46.1965 119.853 46.3375 119.553 46.4395C119.256 46.5385 118.913 46.588 118.523 46.588H117.488V49H116.619V42.5515H118.523ZM123.52 44.3695C123.853 44.3695 124.153 44.425 124.42 44.536C124.687 44.647 124.915 44.8045 125.104 45.0085C125.293 45.2125 125.437 45.46 125.536 45.751C125.638 46.039 125.689 46.3615 125.689 46.7185C125.689 47.0785 125.638 47.4025 125.536 47.6905C125.437 47.9785 125.293 48.2245 125.104 48.4285C124.915 48.6325 124.687 48.79 124.42 48.901C124.153 49.009 123.853 49.063 123.52 49.063C123.184 49.063 122.881 49.009 122.611 48.901C122.344 48.79 122.116 48.6325 121.927 48.4285C121.738 48.2245 121.592 47.9785 121.49 47.6905C121.391 47.4025 121.342 47.0785 121.342 46.7185C121.342 46.3615 121.391 46.039 121.49 45.751C121.592 45.46 121.738 45.2125 121.927 45.0085C122.116 44.8045 122.344 44.647 122.611 44.536C122.881 44.425 123.184 44.3695 123.52 44.3695ZM123.52 48.4375C123.97 48.4375 124.306 48.2875 124.528 47.9875C124.75 47.6845 124.861 47.263 124.861 46.723C124.861 46.18 124.75 45.757 124.528 45.454C124.306 45.151 123.97 44.9995 123.52 44.9995C123.292 44.9995 123.092 45.0385 122.921 45.1165C122.753 45.1945 122.612 45.307 122.498 45.454C122.387 45.601 122.303 45.7825 122.246 45.9985C122.192 46.2115 122.165 46.453 122.165 46.723C122.165 47.263 122.276 47.6845 122.498 47.9875C122.723 48.2875 123.064 48.4375 123.52 48.4375ZM127.533 42.3715V49H126.732V42.3715H127.533ZM129.678 44.4415V49H128.877V44.4415H129.678ZM129.849 43.0105C129.849 43.0885 129.832 43.162 129.799 43.231C129.769 43.297 129.727 43.357 129.673 43.411C129.622 43.462 129.561 43.5025 129.489 43.5325C129.42 43.5625 129.346 43.5775 129.268 43.5775C129.19 43.5775 129.117 43.5625 129.048 43.5325C128.982 43.5025 128.923 43.462 128.872 43.411C128.821 43.357 128.781 43.297 128.751 43.231C128.721 43.162 128.706 43.0885 128.706 43.0105C128.706 42.9325 128.721 42.859 128.751 42.79C128.781 42.718 128.821 42.6565 128.872 42.6055C128.923 42.5515 128.982 42.5095 129.048 42.4795C129.117 42.4495 129.19 42.4345 129.268 42.4345C129.346 42.4345 129.42 42.4495 129.489 42.4795C129.561 42.5095 129.622 42.5515 129.673 42.6055C129.727 42.6565 129.769 42.718 129.799 42.79C129.832 42.859 129.849 42.9325 129.849 43.0105ZM134.166 45.2515C134.142 45.2845 134.118 45.31 134.094 45.328C134.07 45.346 134.037 45.355 133.995 45.355C133.95 45.355 133.901 45.337 133.847 45.301C133.793 45.262 133.725 45.22 133.644 45.175C133.566 45.13 133.469 45.0895 133.352 45.0535C133.238 45.0145 133.097 44.995 132.929 44.995C132.704 44.995 132.506 45.0355 132.335 45.1165C132.164 45.1945 132.02 45.3085 131.903 45.4585C131.789 45.6085 131.702 45.79 131.642 46.003C131.585 46.216 131.556 46.4545 131.556 46.7185C131.556 46.9945 131.588 47.2405 131.651 47.4565C131.714 47.6695 131.802 47.8495 131.916 47.9965C132.033 48.1405 132.173 48.2515 132.335 48.3295C132.5 48.4045 132.684 48.442 132.888 48.442C133.083 48.442 133.244 48.4195 133.37 48.3745C133.496 48.3265 133.599 48.274 133.68 48.217C133.764 48.16 133.833 48.109 133.887 48.064C133.944 48.016 134 47.992 134.054 47.992C134.12 47.992 134.171 48.0175 134.207 48.0685L134.432 48.361C134.333 48.484 134.22 48.589 134.094 48.676C133.968 48.763 133.832 48.8365 133.685 48.8965C133.541 48.9535 133.389 48.9955 133.23 49.0225C133.071 49.0495 132.909 49.063 132.744 49.063C132.459 49.063 132.194 49.0105 131.948 48.9055C131.705 48.8005 131.493 48.649 131.313 48.451C131.133 48.25 130.992 48.004 130.89 47.713C130.788 47.422 130.737 47.0905 130.737 46.7185C130.737 46.3795 130.784 46.066 130.877 45.778C130.973 45.49 131.111 45.2425 131.291 45.0355C131.474 44.8255 131.697 44.662 131.961 44.545C132.228 44.428 132.534 44.3695 132.879 44.3695C133.2 44.3695 133.482 44.422 133.725 44.527C133.971 44.629 134.189 44.7745 134.378 44.9635L134.166 45.2515ZM139.225 44.4415L136.682 50.3455C136.655 50.4055 136.621 50.4535 136.579 50.4895C136.54 50.5255 136.478 50.5435 136.394 50.5435H135.8L136.633 48.7345L134.752 44.4415H135.445C135.514 44.4415 135.568 44.4595 135.607 44.4955C135.649 44.5285 135.677 44.566 135.692 44.608L136.912 47.479C136.96 47.605 137 47.737 137.033 47.875C137.075 47.734 137.12 47.6005 137.168 47.4745L138.352 44.608C138.37 44.56 138.4 44.521 138.442 44.491C138.487 44.458 138.536 44.4415 138.59 44.4415H139.225ZM142.195 42.1015H142.821V50.5705H142.195V42.1015ZM151.293 47.668C151.341 47.668 151.383 47.6875 151.419 47.7265L151.765 48.1C151.501 48.406 151.18 48.6445 150.802 48.8155C150.427 48.9865 149.973 49.072 149.439 49.072C148.977 49.072 148.557 48.9925 148.179 48.8335C147.801 48.6715 147.478 48.4465 147.211 48.1585C146.944 47.8675 146.737 47.5195 146.59 47.1145C146.443 46.7095 146.37 46.264 146.37 45.778C146.37 45.292 146.446 44.8465 146.599 44.4415C146.752 44.0365 146.967 43.6885 147.243 43.3975C147.522 43.1065 147.855 42.8815 148.242 42.7225C148.629 42.5605 149.056 42.4795 149.524 42.4795C149.983 42.4795 150.388 42.553 150.739 42.7C151.09 42.847 151.399 43.0465 151.666 43.2985L151.378 43.699C151.36 43.729 151.336 43.7545 151.306 43.7755C151.279 43.7935 151.242 43.8025 151.194 43.8025C151.14 43.8025 151.074 43.774 150.996 43.717C150.918 43.657 150.816 43.591 150.69 43.519C150.564 43.447 150.406 43.3825 150.217 43.3255C150.028 43.2655 149.796 43.2355 149.52 43.2355C149.187 43.2355 148.882 43.294 148.606 43.411C148.33 43.525 148.092 43.6915 147.891 43.9105C147.693 44.1295 147.538 44.3965 147.427 44.7115C147.316 45.0265 147.261 45.382 147.261 45.778C147.261 46.18 147.318 46.5385 147.432 46.8535C147.549 47.1685 147.706 47.4355 147.904 47.6545C148.105 47.8705 148.341 48.0355 148.611 48.1495C148.884 48.2635 149.178 48.3205 149.493 48.3205C149.685 48.3205 149.857 48.31 150.01 48.289C150.166 48.265 150.309 48.229 150.438 48.181C150.57 48.133 150.691 48.073 150.802 48.001C150.916 47.926 151.029 47.8375 151.14 47.7355C151.191 47.6905 151.242 47.668 151.293 47.668ZM155.059 46.948C154.69 46.96 154.375 46.99 154.114 47.038C153.856 47.083 153.645 47.143 153.48 47.218C153.318 47.293 153.199 47.3815 153.124 47.4835C153.052 47.5855 153.016 47.6995 153.016 47.8255C153.016 47.9455 153.036 48.049 153.075 48.136C153.114 48.223 153.166 48.295 153.232 48.352C153.301 48.406 153.381 48.4465 153.471 48.4735C153.564 48.4975 153.663 48.5095 153.768 48.5095C153.909 48.5095 154.038 48.496 154.155 48.469C154.272 48.439 154.381 48.397 154.483 48.343C154.588 48.289 154.687 48.2245 154.78 48.1495C154.876 48.0745 154.969 47.989 155.059 47.893V46.948ZM152.472 45.085C152.724 44.842 152.995 44.6605 153.286 44.5405C153.577 44.4205 153.9 44.3605 154.254 44.3605C154.509 44.3605 154.735 44.4025 154.933 44.4865C155.131 44.5705 155.298 44.6875 155.433 44.8375C155.568 44.9875 155.67 45.169 155.739 45.382C155.808 45.595 155.842 45.829 155.842 46.084V49H155.487C155.409 49 155.349 48.988 155.307 48.964C155.265 48.937 155.232 48.886 155.208 48.811L155.118 48.379C154.998 48.49 154.881 48.589 154.767 48.676C154.653 48.76 154.533 48.832 154.407 48.892C154.281 48.949 154.146 48.9925 154.002 49.0225C153.861 49.0555 153.703 49.072 153.529 49.072C153.352 49.072 153.186 49.048 153.03 49C152.874 48.949 152.737 48.874 152.62 48.775C152.506 48.676 152.415 48.5515 152.346 48.4015C152.28 48.2485 152.247 48.0685 152.247 47.8615C152.247 47.6815 152.296 47.509 152.395 47.344C152.494 47.176 152.655 47.0275 152.877 46.8985C153.099 46.7695 153.388 46.6645 153.745 46.5835C154.102 46.4995 154.54 46.4515 155.059 46.4395V46.084C155.059 45.73 154.983 45.463 154.83 45.283C154.677 45.1 154.453 45.0085 154.159 45.0085C153.961 45.0085 153.795 45.034 153.66 45.085C153.528 45.133 153.412 45.1885 153.313 45.2515C153.217 45.3115 153.133 45.367 153.061 45.418C152.992 45.466 152.923 45.49 152.854 45.49C152.8 45.49 152.754 45.4765 152.715 45.4495C152.676 45.4195 152.643 45.3835 152.616 45.3415L152.472 45.085ZM157.89 42.3715V49H157.089V42.3715H157.89ZM160.035 44.4415V49H159.234V44.4415H160.035ZM160.206 43.0105C160.206 43.0885 160.19 43.162 160.157 43.231C160.127 43.297 160.085 43.357 160.031 43.411C159.98 43.462 159.918 43.5025 159.846 43.5325C159.777 43.5625 159.704 43.5775 159.626 43.5775C159.548 43.5775 159.474 43.5625 159.405 43.5325C159.339 43.5025 159.281 43.462 159.23 43.411C159.179 43.357 159.138 43.297 159.108 43.231C159.078 43.162 159.063 43.0885 159.063 43.0105C159.063 42.9325 159.078 42.859 159.108 42.79C159.138 42.718 159.179 42.6565 159.23 42.6055C159.281 42.5515 159.339 42.5095 159.405 42.4795C159.474 42.4495 159.548 42.4345 159.626 42.4345C159.704 42.4345 159.777 42.4495 159.846 42.4795C159.918 42.5095 159.98 42.5515 160.031 42.6055C160.085 42.6565 160.127 42.718 160.157 42.79C160.19 42.859 160.206 42.9325 160.206 43.0105ZM161.648 49V45.1255L161.144 45.067C161.081 45.052 161.029 45.0295 160.987 44.9995C160.948 44.9665 160.928 44.92 160.928 44.86V44.5315H161.648V44.0905C161.648 43.8295 161.684 43.5985 161.756 43.3975C161.831 43.1935 161.936 43.0225 162.071 42.8845C162.209 42.7435 162.374 42.637 162.566 42.565C162.758 42.493 162.974 42.457 163.214 42.457C163.418 42.457 163.606 42.487 163.777 42.547L163.759 42.9475C163.753 43.0195 163.712 43.0585 163.637 43.0645C163.565 43.0705 163.468 43.0735 163.345 43.0735C163.207 43.0735 163.081 43.0915 162.967 43.1275C162.856 43.1635 162.76 43.222 162.679 43.303C162.598 43.384 162.535 43.4905 162.49 43.6225C162.448 43.7545 162.427 43.918 162.427 44.113V44.5315H163.741V45.112H162.454V49H161.648ZM166.279 44.3695C166.612 44.3695 166.912 44.425 167.179 44.536C167.446 44.647 167.674 44.8045 167.863 45.0085C168.052 45.2125 168.196 45.46 168.295 45.751C168.397 46.039 168.448 46.3615 168.448 46.7185C168.448 47.0785 168.397 47.4025 168.295 47.6905C168.196 47.9785 168.052 48.2245 167.863 48.4285C167.674 48.6325 167.446 48.79 167.179 48.901C166.912 49.009 166.612 49.063 166.279 49.063C165.943 49.063 165.64 49.009 165.37 48.901C165.103 48.79 164.875 48.6325 164.686 48.4285C164.497 48.2245 164.351 47.9785 164.249 47.6905C164.15 47.4025 164.101 47.0785 164.101 46.7185C164.101 46.3615 164.15 46.039 164.249 45.751C164.351 45.46 164.497 45.2125 164.686 45.0085C164.875 44.8045 165.103 44.647 165.37 44.536C165.64 44.425 165.943 44.3695 166.279 44.3695ZM166.279 48.4375C166.729 48.4375 167.065 48.2875 167.287 47.9875C167.509 47.6845 167.62 47.263 167.62 46.723C167.62 46.18 167.509 45.757 167.287 45.454C167.065 45.151 166.729 44.9995 166.279 44.9995C166.051 44.9995 165.851 45.0385 165.68 45.1165C165.512 45.1945 165.371 45.307 165.257 45.454C165.146 45.601 165.062 45.7825 165.005 45.9985C164.951 46.2115 164.924 46.453 164.924 46.723C164.924 47.263 165.035 47.6845 165.257 47.9875C165.482 48.2875 165.823 48.4375 166.279 48.4375ZM170.224 45.355C170.368 45.043 170.545 44.8 170.755 44.626C170.965 44.449 171.222 44.3605 171.525 44.3605C171.621 44.3605 171.712 44.371 171.799 44.392C171.889 44.413 171.969 44.446 172.038 44.491L171.979 45.0895C171.961 45.1645 171.916 45.202 171.844 45.202C171.802 45.202 171.741 45.193 171.66 45.175C171.579 45.157 171.487 45.148 171.385 45.148C171.241 45.148 171.112 45.169 170.998 45.211C170.887 45.253 170.787 45.316 170.697 45.4C170.61 45.481 170.53 45.583 170.458 45.706C170.389 45.826 170.326 45.964 170.269 46.12V49H169.464V44.4415H169.923C170.01 44.4415 170.07 44.458 170.103 44.491C170.136 44.524 170.158 44.581 170.17 44.662L170.224 45.355ZM173.498 45.103C173.597 44.992 173.702 44.8915 173.813 44.8015C173.924 44.7115 174.041 44.635 174.164 44.572C174.29 44.506 174.422 44.4565 174.56 44.4235C174.701 44.3875 174.852 44.3695 175.014 44.3695C175.263 44.3695 175.482 44.4115 175.671 44.4955C175.863 44.5765 176.022 44.6935 176.148 44.8465C176.277 44.9965 176.375 45.178 176.441 45.391C176.507 45.604 176.54 45.8395 176.54 46.0975V49H175.734V46.0975C175.734 45.7525 175.655 45.4855 175.496 45.2965C175.34 45.1045 175.101 45.0085 174.78 45.0085C174.543 45.0085 174.321 45.0655 174.114 45.1795C173.91 45.2935 173.721 45.448 173.547 45.643V49H172.742V44.4415H173.223C173.337 44.4415 173.408 44.497 173.435 44.608L173.498 45.103ZM178.606 44.4415V49H177.805V44.4415H178.606ZM178.777 43.0105C178.777 43.0885 178.761 43.162 178.728 43.231C178.698 43.297 178.656 43.357 178.602 43.411C178.551 43.462 178.489 43.5025 178.417 43.5325C178.348 43.5625 178.275 43.5775 178.197 43.5775C178.119 43.5775 178.045 43.5625 177.976 43.5325C177.91 43.5025 177.852 43.462 177.801 43.411C177.75 43.357 177.709 43.297 177.679 43.231C177.649 43.162 177.634 43.0885 177.634 43.0105C177.634 42.9325 177.649 42.859 177.679 42.79C177.709 42.718 177.75 42.6565 177.801 42.6055C177.852 42.5515 177.91 42.5095 177.976 42.4795C178.045 42.4495 178.119 42.4345 178.197 42.4345C178.275 42.4345 178.348 42.4495 178.417 42.4795C178.489 42.5095 178.551 42.5515 178.602 42.6055C178.656 42.6565 178.698 42.718 178.728 42.79C178.761 42.859 178.777 42.9325 178.777 43.0105ZM182.393 46.948C182.024 46.96 181.709 46.99 181.448 47.038C181.19 47.083 180.979 47.143 180.814 47.218C180.652 47.293 180.533 47.3815 180.458 47.4835C180.386 47.5855 180.35 47.6995 180.35 47.8255C180.35 47.9455 180.37 48.049 180.409 48.136C180.448 48.223 180.5 48.295 180.566 48.352C180.635 48.406 180.715 48.4465 180.805 48.4735C180.898 48.4975 180.997 48.5095 181.102 48.5095C181.243 48.5095 181.372 48.496 181.489 48.469C181.606 48.439 181.715 48.397 181.817 48.343C181.922 48.289 182.021 48.2245 182.114 48.1495C182.21 48.0745 182.303 47.989 182.393 47.893V46.948ZM179.806 45.085C180.058 44.842 180.329 44.6605 180.62 44.5405C180.911 44.4205 181.234 44.3605 181.588 44.3605C181.843 44.3605 182.069 44.4025 182.267 44.4865C182.465 44.5705 182.632 44.6875 182.767 44.8375C182.902 44.9875 183.004 45.169 183.073 45.382C183.142 45.595 183.176 45.829 183.176 46.084V49H182.821C182.743 49 182.683 48.988 182.641 48.964C182.599 48.937 182.566 48.886 182.542 48.811L182.452 48.379C182.332 48.49 182.215 48.589 182.101 48.676C181.987 48.76 181.867 48.832 181.741 48.892C181.615 48.949 181.48 48.9925 181.336 49.0225C181.195 49.0555 181.037 49.072 180.863 49.072C180.686 49.072 180.52 49.048 180.364 49C180.208 48.949 180.071 48.874 179.954 48.775C179.84 48.676 179.749 48.5515 179.68 48.4015C179.614 48.2485 179.581 48.0685 179.581 47.8615C179.581 47.6815 179.63 47.509 179.729 47.344C179.828 47.176 179.989 47.0275 180.211 46.8985C180.433 46.7695 180.722 46.6645 181.079 46.5835C181.436 46.4995 181.874 46.4515 182.393 46.4395V46.084C182.393 45.73 182.317 45.463 182.164 45.283C182.011 45.1 181.787 45.0085 181.493 45.0085C181.295 45.0085 181.129 45.034 180.994 45.085C180.862 45.133 180.746 45.1885 180.647 45.2515C180.551 45.3115 180.467 45.367 180.395 45.418C180.326 45.466 180.257 45.49 180.188 45.49C180.134 45.49 180.088 45.4765 180.049 45.4495C180.01 45.4195 179.977 45.3835 179.95 45.3415L179.806 45.085ZM186.627 45.9625H188.85V46.642H186.627V45.9625ZM198.12 45.778C198.12 46.261 198.043 46.7005 197.89 47.0965C197.737 47.4925 197.521 47.8315 197.242 48.1135C196.963 48.3955 196.627 48.6145 196.234 48.7705C195.844 48.9235 195.412 49 194.938 49H192.531V42.5515H194.938C195.412 42.5515 195.844 42.6295 196.234 42.7855C196.627 42.9385 196.963 43.1575 197.242 43.4425C197.521 43.7245 197.737 44.0635 197.89 44.4595C198.043 44.8555 198.12 45.295 198.12 45.778ZM197.224 45.778C197.224 45.382 197.17 45.028 197.062 44.716C196.954 44.404 196.801 44.14 196.603 43.924C196.405 43.708 196.165 43.543 195.883 43.429C195.601 43.315 195.286 43.258 194.938 43.258H193.404V48.2935H194.938C195.286 48.2935 195.601 48.2365 195.883 48.1225C196.165 48.0085 196.405 47.845 196.603 47.632C196.801 47.416 196.954 47.152 197.062 46.84C197.17 46.528 197.224 46.174 197.224 45.778ZM201.048 44.3695C201.381 44.3695 201.681 44.425 201.948 44.536C202.215 44.647 202.443 44.8045 202.632 45.0085C202.821 45.2125 202.965 45.46 203.064 45.751C203.166 46.039 203.217 46.3615 203.217 46.7185C203.217 47.0785 203.166 47.4025 203.064 47.6905C202.965 47.9785 202.821 48.2245 202.632 48.4285C202.443 48.6325 202.215 48.79 201.948 48.901C201.681 49.009 201.381 49.063 201.048 49.063C200.712 49.063 200.409 49.009 200.139 48.901C199.872 48.79 199.644 48.6325 199.455 48.4285C199.266 48.2245 199.121 47.9785 199.019 47.6905C198.92 47.4025 198.87 47.0785 198.87 46.7185C198.87 46.3615 198.92 46.039 199.019 45.751C199.121 45.46 199.266 45.2125 199.455 45.0085C199.644 44.8045 199.872 44.647 200.139 44.536C200.409 44.425 200.712 44.3695 201.048 44.3695ZM201.048 48.4375C201.498 48.4375 201.834 48.2875 202.056 47.9875C202.278 47.6845 202.389 47.263 202.389 46.723C202.389 46.18 202.278 45.757 202.056 45.454C201.834 45.151 201.498 44.9995 201.048 44.9995C200.82 44.9995 200.621 45.0385 200.45 45.1165C200.282 45.1945 200.141 45.307 200.027 45.454C199.916 45.601 199.832 45.7825 199.775 45.9985C199.721 46.2115 199.694 46.453 199.694 46.723C199.694 47.263 199.805 47.6845 200.027 47.9875C200.252 48.2875 200.592 48.4375 201.048 48.4375ZM211.949 42.5515V49H211.513C211.444 49 211.385 48.988 211.337 48.964C211.292 48.94 211.247 48.8995 211.202 48.8425L207.472 43.9825C207.478 44.0575 207.482 44.131 207.485 44.203C207.488 44.275 207.49 44.3425 207.49 44.4055V49H206.725V42.5515H207.175C207.214 42.5515 207.247 42.5545 207.274 42.5605C207.301 42.5635 207.325 42.571 207.346 42.583C207.367 42.592 207.388 42.607 207.409 42.628C207.43 42.646 207.452 42.67 207.476 42.7L211.207 47.5555C211.201 47.4775 211.195 47.4025 211.189 47.3305C211.186 47.2555 211.184 47.185 211.184 47.119V42.5515H211.949ZM215.19 44.3695C215.523 44.3695 215.823 44.425 216.09 44.536C216.357 44.647 216.585 44.8045 216.774 45.0085C216.963 45.2125 217.107 45.46 217.206 45.751C217.308 46.039 217.359 46.3615 217.359 46.7185C217.359 47.0785 217.308 47.4025 217.206 47.6905C217.107 47.9785 216.963 48.2245 216.774 48.4285C216.585 48.6325 216.357 48.79 216.09 48.901C215.823 49.009 215.523 49.063 215.19 49.063C214.854 49.063 214.551 49.009 214.281 48.901C214.014 48.79 213.786 48.6325 213.597 48.4285C213.408 48.2245 213.262 47.9785 213.16 47.6905C213.061 47.4025 213.012 47.0785 213.012 46.7185C213.012 46.3615 213.061 46.039 213.16 45.751C213.262 45.46 213.408 45.2125 213.597 45.0085C213.786 44.8045 214.014 44.647 214.281 44.536C214.551 44.425 214.854 44.3695 215.19 44.3695ZM215.19 48.4375C215.64 48.4375 215.976 48.2875 216.198 47.9875C216.42 47.6845 216.531 47.263 216.531 46.723C216.531 46.18 216.42 45.757 216.198 45.454C215.976 45.151 215.64 44.9995 215.19 44.9995C214.962 44.9995 214.762 45.0385 214.591 45.1165C214.423 45.1945 214.282 45.307 214.168 45.454C214.057 45.601 213.973 45.7825 213.916 45.9985C213.862 46.2115 213.835 46.453 213.835 46.723C213.835 47.263 213.946 47.6845 214.168 47.9875C214.393 48.2875 214.734 48.4375 215.19 48.4375ZM219.695 49.072C219.335 49.072 219.058 48.9715 218.863 48.7705C218.671 48.5695 218.575 48.28 218.575 47.902V45.112H218.026C217.978 45.112 217.937 45.0985 217.904 45.0715C217.871 45.0415 217.855 44.9965 217.855 44.9365V44.617L218.602 44.5225L218.786 43.114C218.795 43.069 218.815 43.033 218.845 43.006C218.878 42.976 218.92 42.961 218.971 42.961H219.376V44.5315H220.694V45.112H219.376V47.848C219.376 48.04 219.422 48.1825 219.515 48.2755C219.608 48.3685 219.728 48.415 219.875 48.415C219.959 48.415 220.031 48.4045 220.091 48.3835C220.154 48.3595 220.208 48.334 220.253 48.307C220.298 48.28 220.336 48.256 220.366 48.235C220.399 48.211 220.427 48.199 220.451 48.199C220.493 48.199 220.531 48.2245 220.564 48.2755L220.798 48.658C220.66 48.787 220.493 48.889 220.298 48.964C220.103 49.036 219.902 49.072 219.695 49.072ZM227.311 43.5595C227.284 43.6045 227.254 43.639 227.221 43.663C227.191 43.684 227.154 43.6945 227.109 43.6945C227.058 43.6945 226.998 43.669 226.929 43.618C226.86 43.567 226.773 43.5115 226.668 43.4515C226.566 43.3885 226.441 43.3315 226.294 43.2805C226.15 43.2295 225.975 43.204 225.768 43.204C225.573 43.204 225.4 43.231 225.25 43.285C225.103 43.336 224.979 43.4065 224.877 43.4965C224.778 43.5865 224.703 43.693 224.652 43.816C224.601 43.936 224.575 44.0665 224.575 44.2075C224.575 44.3875 224.619 44.5375 224.706 44.6575C224.796 44.7745 224.913 44.875 225.057 44.959C225.204 45.043 225.369 45.1165 225.552 45.1795C225.738 45.2395 225.927 45.3025 226.119 45.3685C226.314 45.4345 226.503 45.5095 226.686 45.5935C226.872 45.6745 227.037 45.778 227.181 45.904C227.328 46.03 227.445 46.1845 227.532 46.3675C227.622 46.5505 227.667 46.7755 227.667 47.0425C227.667 47.3245 227.619 47.59 227.523 47.839C227.427 48.085 227.286 48.2995 227.1 48.4825C226.917 48.6655 226.69 48.8095 226.42 48.9145C226.153 49.0195 225.849 49.072 225.507 49.072C225.087 49.072 224.706 48.997 224.364 48.847C224.022 48.694 223.729 48.4885 223.486 48.2305L223.738 47.8165C223.762 47.7835 223.791 47.7565 223.824 47.7355C223.86 47.7115 223.899 47.6995 223.941 47.6995C223.98 47.6995 224.023 47.716 224.071 47.749C224.122 47.779 224.179 47.818 224.242 47.866C224.305 47.914 224.377 47.9665 224.458 48.0235C224.539 48.0805 224.631 48.133 224.733 48.181C224.838 48.229 224.956 48.2695 225.088 48.3025C225.22 48.3325 225.369 48.3475 225.534 48.3475C225.741 48.3475 225.925 48.319 226.087 48.262C226.249 48.205 226.386 48.1255 226.497 48.0235C226.611 47.9185 226.698 47.794 226.758 47.65C226.818 47.506 226.848 47.3455 226.848 47.1685C226.848 46.9735 226.803 46.8145 226.713 46.6915C226.626 46.5655 226.51 46.4605 226.366 46.3765C226.222 46.2925 226.057 46.222 225.871 46.165C225.685 46.105 225.496 46.045 225.304 45.985C225.112 45.922 224.923 45.85 224.737 45.769C224.551 45.688 224.386 45.583 224.242 45.454C224.098 45.325 223.981 45.1645 223.891 44.9725C223.804 44.7775 223.761 44.5375 223.761 44.2525C223.761 44.0245 223.804 43.804 223.891 43.591C223.981 43.378 224.11 43.189 224.278 43.024C224.449 42.859 224.658 42.727 224.904 42.628C225.153 42.529 225.438 42.4795 225.759 42.4795C226.119 42.4795 226.446 42.5365 226.74 42.6505C227.037 42.7645 227.298 42.9295 227.523 43.1455L227.311 43.5595ZM231.735 46.2235C231.735 46.0375 231.708 45.868 231.654 45.715C231.603 45.559 231.527 45.4255 231.425 45.3145C231.326 45.2005 231.204 45.1135 231.06 45.0535C230.916 44.9905 230.753 44.959 230.57 44.959C230.186 44.959 229.881 45.0715 229.656 45.2965C229.434 45.5185 229.296 45.8275 229.242 46.2235H231.735ZM232.383 48.361C232.284 48.481 232.166 48.586 232.028 48.676C231.89 48.763 231.741 48.835 231.582 48.892C231.426 48.949 231.264 48.991 231.096 49.018C230.928 49.048 230.762 49.063 230.597 49.063C230.282 49.063 229.991 49.0105 229.724 48.9055C229.46 48.7975 229.23 48.6415 229.035 48.4375C228.843 48.2305 228.693 47.9755 228.585 47.6725C228.477 47.3695 228.423 47.0215 228.423 46.6285C228.423 46.3105 228.471 46.0135 228.567 45.7375C228.666 45.4615 228.807 45.223 228.99 45.022C229.173 44.818 229.397 44.659 229.661 44.545C229.925 44.428 230.222 44.3695 230.552 44.3695C230.825 44.3695 231.077 44.416 231.308 44.509C231.542 44.599 231.743 44.731 231.911 44.905C232.082 45.076 232.215 45.289 232.311 45.544C232.407 45.796 232.455 46.084 232.455 46.408C232.455 46.534 232.442 46.618 232.415 46.66C232.388 46.702 232.337 46.723 232.262 46.723H229.215C229.224 47.011 229.263 47.2615 229.332 47.4745C229.404 47.6875 229.503 47.866 229.629 48.01C229.755 48.151 229.905 48.2575 230.079 48.3295C230.253 48.3985 230.448 48.433 230.664 48.433C230.865 48.433 231.038 48.4105 231.182 48.3655C231.329 48.3175 231.455 48.2665 231.56 48.2125C231.665 48.1585 231.752 48.109 231.821 48.064C231.893 48.016 231.954 47.992 232.005 47.992C232.071 47.992 232.122 48.0175 232.158 48.0685L232.383 48.361ZM234.267 42.3715V49H233.466V42.3715H234.267ZM236.394 42.3715V49H235.593V42.3715H236.394ZM246.894 42.5515V49H246.129V44.2615C246.129 44.1985 246.131 44.131 246.134 44.059C246.14 43.987 246.146 43.9135 246.152 43.8385L243.938 47.8705C243.869 48.0055 243.764 48.073 243.623 48.073H243.497C243.356 48.073 243.251 48.0055 243.182 47.8705L240.923 43.8205C240.941 43.9795 240.95 44.1265 240.95 44.2615V49H240.185V42.5515H240.828C240.906 42.5515 240.966 42.559 241.008 42.574C241.05 42.589 241.091 42.631 241.13 42.7L243.357 46.669C243.393 46.741 243.428 46.816 243.461 46.894C243.497 46.972 243.53 47.0515 243.56 47.1325C243.59 47.0515 243.621 46.972 243.654 46.894C243.687 46.813 243.723 46.7365 243.762 46.6645L245.949 42.7C245.985 42.631 246.024 42.589 246.066 42.574C246.111 42.559 246.173 42.5515 246.251 42.5515H246.894ZM252.182 44.4415L249.639 50.3455C249.612 50.4055 249.578 50.4535 249.536 50.4895C249.497 50.5255 249.435 50.5435 249.351 50.5435H248.757L249.59 48.7345L247.709 44.4415H248.402C248.471 44.4415 248.525 44.4595 248.564 44.4955C248.606 44.5285 248.634 44.566 248.649 44.608L249.869 47.479C249.917 47.605 249.957 47.737 249.99 47.875C250.032 47.734 250.077 47.6005 250.125 47.4745L251.309 44.608C251.327 44.56 251.357 44.521 251.399 44.491C251.444 44.458 251.493 44.4415 251.547 44.4415H252.182ZM256.034 49H255.161V42.5515H256.034V49ZM258.181 45.103C258.28 44.992 258.385 44.8915 258.496 44.8015C258.607 44.7115 258.724 44.635 258.847 44.572C258.973 44.506 259.105 44.4565 259.243 44.4235C259.384 44.3875 259.535 44.3695 259.697 44.3695C259.946 44.3695 260.165 44.4115 260.354 44.4955C260.546 44.5765 260.705 44.6935 260.831 44.8465C260.96 44.9965 261.058 45.178 261.124 45.391C261.19 45.604 261.223 45.8395 261.223 46.0975V49H260.417V46.0975C260.417 45.7525 260.338 45.4855 260.179 45.2965C260.023 45.1045 259.784 45.0085 259.463 45.0085C259.226 45.0085 259.004 45.0655 258.797 45.1795C258.593 45.2935 258.404 45.448 258.23 45.643V49H257.425V44.4415H257.906C258.02 44.4415 258.091 44.497 258.118 44.608L258.181 45.103ZM262.67 49V45.1255L262.166 45.067C262.103 45.052 262.05 45.0295 262.008 44.9995C261.969 44.9665 261.95 44.92 261.95 44.86V44.5315H262.67V44.0905C262.67 43.8295 262.706 43.5985 262.778 43.3975C262.853 43.1935 262.958 43.0225 263.093 42.8845C263.231 42.7435 263.396 42.637 263.588 42.565C263.78 42.493 263.996 42.457 264.236 42.457C264.44 42.457 264.627 42.487 264.798 42.547L264.78 42.9475C264.774 43.0195 264.734 43.0585 264.659 43.0645C264.587 43.0705 264.489 43.0735 264.366 43.0735C264.228 43.0735 264.102 43.0915 263.988 43.1275C263.877 43.1635 263.781 43.222 263.7 43.303C263.619 43.384 263.556 43.4905 263.511 43.6225C263.469 43.7545 263.448 43.918 263.448 44.113V44.5315H264.762V45.112H263.475V49H262.67ZM267.3 44.3695C267.633 44.3695 267.933 44.425 268.2 44.536C268.467 44.647 268.695 44.8045 268.884 45.0085C269.073 45.2125 269.217 45.46 269.316 45.751C269.418 46.039 269.469 46.3615 269.469 46.7185C269.469 47.0785 269.418 47.4025 269.316 47.6905C269.217 47.9785 269.073 48.2245 268.884 48.4285C268.695 48.6325 268.467 48.79 268.2 48.901C267.933 49.009 267.633 49.063 267.3 49.063C266.964 49.063 266.661 49.009 266.391 48.901C266.124 48.79 265.896 48.6325 265.707 48.4285C265.518 48.2245 265.373 47.9785 265.271 47.6905C265.172 47.4025 265.122 47.0785 265.122 46.7185C265.122 46.3615 265.172 46.039 265.271 45.751C265.373 45.46 265.518 45.2125 265.707 45.0085C265.896 44.8045 266.124 44.647 266.391 44.536C266.661 44.425 266.964 44.3695 267.3 44.3695ZM267.3 48.4375C267.75 48.4375 268.086 48.2875 268.308 47.9875C268.53 47.6845 268.641 47.263 268.641 46.723C268.641 46.18 268.53 45.757 268.308 45.454C268.086 45.151 267.75 44.9995 267.3 44.9995C267.072 44.9995 266.873 45.0385 266.702 45.1165C266.534 45.1945 266.393 45.307 266.279 45.454C266.168 45.601 266.084 45.7825 266.027 45.9985C265.973 46.2115 265.946 46.453 265.946 46.723C265.946 47.263 266.057 47.6845 266.279 47.9875C266.504 48.2875 266.844 48.4375 267.3 48.4375Z" fill="#555555"/>
</svg>
