<svg width="26" height="22" viewBox="0 0 26 22" fill="none" xmlns="http://www.w3.org/2000/svg">
<path d="M23.1562 0H2.84375C1.5498 0 0.5 1.0498 0.5 2.34375V19.5312C0.5 20.8252 1.5498 21.875 2.84375 21.875H23.1562C24.4502 21.875 25.5 20.8252 25.5 19.5312V2.34375C25.5 1.0498 24.4502 0 23.1562 0ZM19.0742 14.1846C19.3086 14.4189 19.3086 14.7998 19.0742 15.0342L17.0967 17.0117C16.8623 17.2461 16.4814 17.2461 16.2471 17.0117L13 13.7354L9.75293 17.0117C9.51855 17.2461 9.1377 17.2461 8.90332 17.0117L6.92578 15.0342C6.69141 14.7998 6.69141 14.4189 6.92578 14.1846L10.2021 10.9375L6.92578 7.69043C6.69141 7.45605 6.69141 7.0752 6.92578 6.84082L8.90332 4.86328C9.1377 4.62891 9.51855 4.62891 9.75293 4.86328L13 8.13965L16.2471 4.86328C16.4814 4.62891 16.8623 4.62891 17.0967 4.86328L19.0742 6.84082C19.3086 7.0752 19.3086 7.45605 19.0742 7.69043L15.7979 10.9375L19.0742 14.1846Z" fill="#AFB4BB"/>
</svg>
