<svg width="21" height="21" viewBox="0 0 21 21" fill="none" xmlns="http://www.w3.org/2000/svg">
<path d="M20.0969 17.293L16.2021 13.3984C16.0263 13.2227 15.788 13.125 15.538 13.125H14.9012C15.9794 11.7461 16.6201 10.0117 16.6201 8.125C16.6201 3.63672 12.9831 0 8.49449 0C4.00588 0 0.368896 3.63672 0.368896 8.125C0.368896 12.6133 4.00588 16.25 8.49449 16.25C10.3813 16.25 12.1158 15.6094 13.4949 14.5313V15.168C13.4949 15.418 13.5925 15.6563 13.7683 15.832L17.6631 19.7266C18.0303 20.0938 18.6241 20.0938 18.9874 19.7266L20.093 18.6211C20.4602 18.2539 20.4602 17.6602 20.0969 17.293ZM8.49449 13.125C5.73257 13.125 3.49413 10.8906 3.49413 8.125C3.49413 5.36328 5.72866 3.125 8.49449 3.125C11.2564 3.125 13.4949 5.35938 13.4949 8.125C13.4949 10.8867 11.2603 13.125 8.49449 13.125Z" fill="#AFB4BB"/>
</svg>
