<svg width="21" height="21" viewBox="0 0 21 21" fill="none" xmlns="http://www.w3.org/2000/svg">
<path d="M20.228 17.293L16.3332 13.3984C16.1574 13.2227 15.9191 13.125 15.6691 13.125H15.0323C16.1105 11.7461 16.7512 10.0117 16.7512 8.125C16.7512 3.63672 13.1142 0 8.62559 0C4.13698 0 0.5 3.63672 0.5 8.125C0.5 12.6133 4.13698 16.25 8.62559 16.25C10.5125 16.25 12.247 15.6094 13.626 14.5313V15.168C13.626 15.418 13.7236 15.6563 13.8994 15.832L17.7942 19.7266C18.1614 20.0938 18.7552 20.0938 19.1185 19.7266L20.2241 18.6211C20.5913 18.2539 20.5913 17.6602 20.228 17.293ZM8.62559 13.125C5.86367 13.125 3.62523 10.8906 3.62523 8.125C3.62523 5.36328 5.85977 3.125 8.62559 3.125C11.3875 3.125 13.626 5.35938 13.626 8.125C13.626 10.8867 11.3914 13.125 8.62559 13.125Z" fill="#0E76BC"/>
</svg>
