<svg width="27" height="29" viewBox="0 0 27 29" fill="none" xmlns="http://www.w3.org/2000/svg">
<path d="M25.4869 24.051C26.499 25.1497 26.499 26.9294 25.4869 28.0281C24.9849 28.5774 24.321 28.8499 23.6571 28.8499C22.9931 28.8499 22.3308 28.5752 21.8256 28.0259L13.2934 18.7688L4.76204 28.0237C4.256 28.5774 3.59289 28.8499 2.92978 28.8499C2.26667 28.8499 1.60436 28.5774 1.09792 28.0237C0.0858486 26.9251 0.0858486 25.1453 1.09792 24.0466L9.63173 14.783L1.09792 5.52368C0.0858486 4.42505 0.0858486 2.64526 1.09792 1.54663C2.11 0.447998 3.74956 0.447998 4.76163 1.54663L13.2934 10.8147L21.8272 1.55103C22.8393 0.452393 24.4789 0.452393 25.4909 1.55103C26.503 2.64966 26.503 4.42944 25.4909 5.52808L16.9571 14.7917L25.4869 24.051Z" fill="#D9D9D9"/>
</svg>
