<svg id="Layer_1" data-name="Layer 1" xmlns="http://www.w3.org/2000/svg" width="1.6in" height="0.9in" viewBox="0 0 115.56 65">
  <defs>
    <style>
      .cls-1 {
        fill: none;
      }

      .cls-2 {
        fill: #231f20;
        stroke: #231f20;
        stroke-miterlimit: 10;
        stroke-width: 0.03px;
      }

      .cls-3 {
        fill: #1c75bc;
      }
    </style>
  </defs>
  <rect class="cls-1" width="115.56" height="65"/>
  <g>
    <g>
      <path class="cls-2" d="M34.56,45.82l-4.22,9.8a.72.72,0,0,1-.16.24.46.46,0,0,1-.31.09h-1l1.38-3-3.12-7.13h1.15a.37.37,0,0,1,.27.09.41.41,0,0,1,.14.19l2,4.76c.07.21.14.43.2.66.07-.23.14-.46.22-.67l2-4.75a.39.39,0,0,1,.16-.2.41.41,0,0,1,.24-.08Z" transform="translate(-0.22)"/>
      <path class="cls-2" d="M38,45.7a3.92,3.92,0,0,1,1.49.28,3.4,3.4,0,0,1,1.14.78A3.57,3.57,0,0,1,41.3,48a5.08,5.08,0,0,1,.25,1.61,5,5,0,0,1-.25,1.61,3.57,3.57,0,0,1-.72,1.23,3.13,3.13,0,0,1-1.14.78,4.27,4.27,0,0,1-3,0,3.05,3.05,0,0,1-1.14-.78,3.28,3.28,0,0,1-.72-1.23,4.73,4.73,0,0,1-.25-1.61A4.81,4.81,0,0,1,34.59,48a3.21,3.21,0,0,1,1.86-2A3.93,3.93,0,0,1,38,45.7Zm0,6.75a1.94,1.94,0,0,0,1.67-.75,3.46,3.46,0,0,0,.55-2.09,3.53,3.53,0,0,0-.55-2.11A1.94,1.94,0,0,0,38,46.75a2.33,2.33,0,0,0-1,.19,1.91,1.91,0,0,0-.7.56,2.5,2.5,0,0,0-.42.9,5,5,0,0,0-.14,1.21,3.46,3.46,0,0,0,.56,2.09A2,2,0,0,0,38,52.45Z" transform="translate(-0.22)"/>
      <path class="cls-2" d="M48.7,45.82v7.57h-.79a.35.35,0,0,1-.36-.28l-.11-.81a4,4,0,0,1-1.1.87,2.92,2.92,0,0,1-1.4.33,2.7,2.7,0,0,1-1.1-.2,2.19,2.19,0,0,1-.79-.58,2.3,2.3,0,0,1-.48-.9,4,4,0,0,1-.16-1.17V45.82h1.33v4.83A2,2,0,0,0,44.13,52a1.44,1.44,0,0,0,1.19.47,2.34,2.34,0,0,0,1.11-.27,3.58,3.58,0,0,0,.94-.78V45.82Z" transform="translate(-0.22)"/>
      <path class="cls-2" d="M51.69,47.34a3.36,3.36,0,0,1,.88-1.21,2,2,0,0,1,1.28-.44,2.31,2.31,0,0,1,.46.05,1.25,1.25,0,0,1,.39.17l-.1,1a.22.22,0,0,1-.22.19,1.73,1.73,0,0,1-.31-.05,2,2,0,0,0-.45,0,1.83,1.83,0,0,0-.64.1,1.45,1.45,0,0,0-.5.31,2.32,2.32,0,0,0-.4.51,4.45,4.45,0,0,0-.31.69v4.78H50.43V45.82h.76a.38.38,0,0,1,.3.09.46.46,0,0,1,.11.28Z" transform="translate(-0.22)"/>
    </g>
    <g>
      <path class="cls-2" d="M58.75,46.8A3.78,3.78,0,0,1,59.82,46a3.11,3.11,0,0,1,2.45-.11,2.13,2.13,0,0,1,.79.59,2.45,2.45,0,0,1,.49.9,4.37,4.37,0,0,1,.16,1.18v4.81H62.37V48.54A2.06,2.06,0,0,0,62,47.2a1.47,1.47,0,0,0-1.19-.47,2.22,2.22,0,0,0-1.1.28,3.58,3.58,0,0,0-.94.77v5.57H57.41v-11h1.34Z" transform="translate(-0.22)"/>
      <path class="cls-2" d="M68.18,45.67a3.73,3.73,0,0,1,1.49.28,3.13,3.13,0,0,1,1.14.78A3.57,3.57,0,0,1,71.53,48a5.31,5.31,0,0,1,0,3.22,3.52,3.52,0,0,1-.72,1.22,3.13,3.13,0,0,1-1.14.78,4.27,4.27,0,0,1-3,0,3.05,3.05,0,0,1-1.14-.78,3.24,3.24,0,0,1-.72-1.22,5.31,5.31,0,0,1,0-3.22,3.28,3.28,0,0,1,.72-1.23A3.05,3.05,0,0,1,66.68,46,3.75,3.75,0,0,1,68.18,45.67Zm0,6.75a1.94,1.94,0,0,0,1.67-.75,4.28,4.28,0,0,0,0-4.2,1.94,1.94,0,0,0-1.67-.76,2.33,2.33,0,0,0-1,.2,1.81,1.81,0,0,0-.7.56,2.35,2.35,0,0,0-.42.9,4.88,4.88,0,0,0-.14,1.2,3.47,3.47,0,0,0,.56,2.1A2,2,0,0,0,68.18,52.42Z" transform="translate(-0.22)"/>
      <path class="cls-2" d="M72.71,53.35V45.79h.8a.32.32,0,0,1,.35.27l.1.78A3.92,3.92,0,0,1,74.9,46a2.22,2.22,0,0,1,1.21-.33,1.78,1.78,0,0,1,1.23.42A2.42,2.42,0,0,1,78,47.24a2.38,2.38,0,0,1,.42-.71A2.48,2.48,0,0,1,79,46a2.38,2.38,0,0,1,.68-.28,3,3,0,0,1,.73-.09,2.76,2.76,0,0,1,1.07.19,2.11,2.11,0,0,1,.79.56,2.49,2.49,0,0,1,.5.89A4.2,4.2,0,0,1,83,48.54v4.81H81.63V48.54a2,2,0,0,0-.39-1.35,1.37,1.37,0,0,0-1.12-.46,1.84,1.84,0,0,0-.62.11,1.67,1.67,0,0,0-.52.34,1.49,1.49,0,0,0-.35.57,2.11,2.11,0,0,0-.13.79v4.81H77.16V48.54a2.08,2.08,0,0,0-.37-1.36,1.29,1.29,0,0,0-1.06-.45,1.69,1.69,0,0,0-.91.26,3.06,3.06,0,0,0-.77.72v5.64Z" transform="translate(-0.22)"/>
      <path class="cls-2" d="M90.38,52.29a2.69,2.69,0,0,1-.59.52,3.17,3.17,0,0,1-.74.36,3.71,3.71,0,0,1-.81.21,4.54,4.54,0,0,1-.82.07A3.78,3.78,0,0,1,86,53.19a3.22,3.22,0,0,1-1.14-.78,3.58,3.58,0,0,1-.75-1.26,5.11,5.11,0,0,1-.27-1.73,4.46,4.46,0,0,1,.24-1.48,3.44,3.44,0,0,1,.7-1.19A3.17,3.17,0,0,1,85.86,46a3.52,3.52,0,0,1,1.48-.29,3.28,3.28,0,0,1,1.26.23,2.93,2.93,0,0,1,1,.65,3.08,3.08,0,0,1,.66,1.06,4,4,0,0,1,.24,1.44.81.81,0,0,1-.07.42.27.27,0,0,1-.25.1H85.12a4.48,4.48,0,0,0,.2,1.25,2.49,2.49,0,0,0,.49.88,1.87,1.87,0,0,0,.75.53,2.5,2.5,0,0,0,1,.18,2.75,2.75,0,0,0,.86-.12A3.33,3.33,0,0,0,89,52a4.05,4.05,0,0,0,.44-.25.65.65,0,0,1,.3-.11.31.31,0,0,1,.26.12ZM89.3,48.74a2.51,2.51,0,0,0-.13-.84,1.77,1.77,0,0,0-.38-.67,1.69,1.69,0,0,0-.61-.43,2.05,2.05,0,0,0-.81-.15,2,2,0,0,0-1.51.55,2.63,2.63,0,0,0-.69,1.54Z" transform="translate(-0.22)"/>
    </g>
  </g>
  <path class="cls-3" d="M92.51,20.22c0-1,0-2.33,0-2.95,0-1.77-.06-2.94-1.27-2.94h-4.4v1.83L73.55,6.07,60,17.54c-1.6,1.34-4.62,3.87-5.28,4.45-1.49,1.32-2.48,2.18-1.61,3.22l1.37,1.63L58.94,23,73.58,10.52,90.16,22.79c1.55,1.3,4.76,4,5.47,4.56,1.56,1.25,2.57,2.07,3.45,1l1.37-1.63Z" transform="translate(-0.22)"/>
  <g>
    <g>
      <path class="cls-3" d="M16.49,31.57a4.5,4.5,0,0,1,1.16-1.39,2.39,2.39,0,0,1,1.51-.5,2,2,0,0,1,1.2.34l-.21,2.4a.49.49,0,0,1-.17.32.54.54,0,0,1-.33.08h-.23l-.28,0-.3,0-.28,0a1.65,1.65,0,0,0-1.14.38,2.79,2.79,0,0,0-.72,1.05v6.64H13.43V29.89h1.94a1.62,1.62,0,0,1,.41,0,.75.75,0,0,1,.27.13.61.61,0,0,1,.17.24,2,2,0,0,1,.1.36Z" transform="translate(-0.22)"/>
      <path class="cls-3" d="M24.17,35.93a3.12,3.12,0,0,0,.84,2,2.46,2.46,0,0,0,1.73.61,3.14,3.14,0,0,0,1-.13,6.61,6.61,0,0,0,.74-.31l.58-.3a1.15,1.15,0,0,1,.57-.14.68.68,0,0,1,.59.28l.95,1.17a4.74,4.74,0,0,1-1.09.94,5,5,0,0,1-1.2.57,7.16,7.16,0,0,1-1.24.29,9.72,9.72,0,0,1-1.17.08,6.08,6.08,0,0,1-2.15-.38,4.88,4.88,0,0,1-1.76-1.11,5.09,5.09,0,0,1-1.19-1.83,6.88,6.88,0,0,1-.44-2.55A5.71,5.71,0,0,1,21.28,33a5,5,0,0,1,1.08-1.72,5.11,5.11,0,0,1,1.69-1.17,5.61,5.61,0,0,1,2.25-.43,5.54,5.54,0,0,1,2,.34,4.3,4.3,0,0,1,1.54,1,4.54,4.54,0,0,1,1,1.58,5.8,5.8,0,0,1,.36,2.11,4.75,4.75,0,0,1,0,.6.85.85,0,0,1-.12.37.45.45,0,0,1-.22.19,1.27,1.27,0,0,1-.37,0ZM28.28,34a2.73,2.73,0,0,0-.1-.76,1.71,1.71,0,0,0-.33-.66,1.64,1.64,0,0,0-.59-.47,2,2,0,0,0-.9-.18,2,2,0,0,0-1.45.53A2.79,2.79,0,0,0,24.22,34Z" transform="translate(-0.22)"/>
      <path class="cls-3" d="M33.05,40.81V29.89h2a.76.76,0,0,1,.8.54l.18.59c.19-.19.38-.36.57-.52a3.87,3.87,0,0,1,.64-.41,3.42,3.42,0,0,1,.74-.27,3.33,3.33,0,0,1,.86-.1,2.57,2.57,0,0,1,1.64.51,3.23,3.23,0,0,1,1,1.36,3.16,3.16,0,0,1,.67-.86,3.46,3.46,0,0,1,.85-.58,4,4,0,0,1,1-.33,5,5,0,0,1,1-.1,4.57,4.57,0,0,1,1.67.28,3,3,0,0,1,1.21.81,3.47,3.47,0,0,1,.75,1.3,5.63,5.63,0,0,1,.25,1.76v6.94H45.6V33.87c0-1.13-.48-1.7-1.45-1.7a1.5,1.5,0,0,0-1.1.44,1.71,1.71,0,0,0-.44,1.26v6.94H39.35V33.87A1.84,1.84,0,0,0,39,32.55a1.46,1.46,0,0,0-1.08-.38,1.86,1.86,0,0,0-.84.2,3.11,3.11,0,0,0-.74.54v7.9Z" transform="translate(-0.22)"/>
      <path class="cls-3" d="M56.22,29.72a6.27,6.27,0,0,1,2.26.39,5,5,0,0,1,1.76,1.11A5.09,5.09,0,0,1,61.38,33a6.36,6.36,0,0,1,.4,2.33,6.44,6.44,0,0,1-.4,2.35,5,5,0,0,1-1.14,1.78,4.89,4.89,0,0,1-1.76,1.13,6.27,6.27,0,0,1-2.26.4,6.34,6.34,0,0,1-2.28-.4,5.11,5.11,0,0,1-1.77-1.13A5,5,0,0,1,51,37.67a6.44,6.44,0,0,1-.4-2.35A6.36,6.36,0,0,1,51,33a5.11,5.11,0,0,1,1.15-1.77,5.21,5.21,0,0,1,1.77-1.11A6.34,6.34,0,0,1,56.22,29.72Zm0,8.83a1.86,1.86,0,0,0,1.66-.79,4.45,4.45,0,0,0,.53-2.42,4.42,4.42,0,0,0-.53-2.41,1.86,1.86,0,0,0-1.66-.79,1.91,1.91,0,0,0-1.7.79A4.42,4.42,0,0,0,54,35.34a4.45,4.45,0,0,0,.53,2.42A1.91,1.91,0,0,0,56.22,38.55Z" transform="translate(-0.22)"/>
      <path class="cls-3" d="M73.52,25V40.81h-2a.78.78,0,0,1-.8-.55l-.25-.83a6.77,6.77,0,0,1-.69.63,4.16,4.16,0,0,1-1.67.81,4.78,4.78,0,0,1-1,.11,3.38,3.38,0,0,1-1.58-.38,3.66,3.66,0,0,1-1.26-1.1,5.56,5.56,0,0,1-.82-1.75,8.53,8.53,0,0,1-.3-2.37,7.55,7.55,0,0,1,.33-2.27,5.79,5.79,0,0,1,1-1.81,4.38,4.38,0,0,1,1.48-1.19,4.15,4.15,0,0,1,1.9-.43,3.8,3.8,0,0,1,1.44.24,4.09,4.09,0,0,1,1.05.65V25Zm-3.26,7.77a2.12,2.12,0,0,0-.8-.57,2.53,2.53,0,0,0-.91-.16,1.9,1.9,0,0,0-.83.18,1.77,1.77,0,0,0-.66.57,3.07,3.07,0,0,0-.43,1,6.11,6.11,0,0,0-.16,1.52,7.53,7.53,0,0,0,.12,1.46,3.15,3.15,0,0,0,.36.95,1.34,1.34,0,0,0,.54.52,1.47,1.47,0,0,0,.7.16,2.59,2.59,0,0,0,.65-.07,2.22,2.22,0,0,0,.53-.19,2.1,2.1,0,0,0,.46-.32,3.71,3.71,0,0,0,.43-.45Z" transform="translate(-0.22)"/>
      <path class="cls-3" d="M78.1,35.93a3.12,3.12,0,0,0,.84,2,2.46,2.46,0,0,0,1.73.61,3.14,3.14,0,0,0,1-.13,5.72,5.72,0,0,0,.73-.31l.59-.3a1.15,1.15,0,0,1,.57-.14.68.68,0,0,1,.59.28l1,1.17A4.74,4.74,0,0,1,84,40a5,5,0,0,1-1.2.57,7.16,7.16,0,0,1-1.24.29,9.72,9.72,0,0,1-1.17.08,6.08,6.08,0,0,1-2.15-.38,4.88,4.88,0,0,1-1.76-1.11,5.09,5.09,0,0,1-1.19-1.83,6.68,6.68,0,0,1-.44-2.55A5.71,5.71,0,0,1,75.21,33a5,5,0,0,1,1.08-1.72A5.11,5.11,0,0,1,78,30.15a5.61,5.61,0,0,1,2.25-.43,5.54,5.54,0,0,1,2,.34,4.3,4.3,0,0,1,1.54,1,4.54,4.54,0,0,1,1,1.58,5.8,5.8,0,0,1,.36,2.11,4.75,4.75,0,0,1,0,.6.85.85,0,0,1-.12.37.43.43,0,0,1-.23.19,1.15,1.15,0,0,1-.36,0ZM82.21,34a2.73,2.73,0,0,0-.1-.76,1.71,1.71,0,0,0-.33-.66,1.64,1.64,0,0,0-.59-.47,2,2,0,0,0-.9-.18,2,2,0,0,0-1.45.53A2.79,2.79,0,0,0,78.15,34Z" transform="translate(-0.22)"/>
    </g>
    <path class="cls-3" d="M90.26,24.94V40.71h-2a1.08,1.08,0,0,1-.93-.55,5.53,5.53,0,0,1-.37-2.44c0-1.48.06-12.78.06-12.78Z" transform="translate(-0.22)"/>
  </g>
</svg>
