<svg width="26" height="26" viewBox="0 0 26 26" fill="none" xmlns="http://www.w3.org/2000/svg">
<path d="M22.2441 10.6445H15.2129V3.61328C15.2129 2.75049 14.5132 2.05078 13.6504 2.05078H12.0879C11.2251 2.05078 10.5254 2.75049 10.5254 3.61328V10.6445H3.49414C2.63135 10.6445 1.93164 11.3442 1.93164 12.207V13.7695C1.93164 14.6323 2.63135 15.332 3.49414 15.332H10.5254V22.3633C10.5254 23.2261 11.2251 23.9258 12.0879 23.9258H13.6504C14.5132 23.9258 15.2129 23.2261 15.2129 22.3633V15.332H22.2441C23.1069 15.332 23.8066 14.6323 23.8066 13.7695V12.207C23.8066 11.3442 23.1069 10.6445 22.2441 10.6445Z" fill="black"/>
</svg>
